<svg width="65" height="65" viewBox="0 0 65 65" fill="none" xmlns="http://www.w3.org/2000/svg">
<path d="M4.11998 31.7931L4 32L4.02289 32.0395C4.05496 31.957 4.08732 31.8748 4.11998 31.7931Z" fill="white" style="fill:white;fill-opacity:1;"/>
<path d="M7.53488 25.9054C11.1047 21.6011 16.2307 19.4489 22.9141 19.4489C32.9138 19.4489 37.4915 24.2655 41.4477 28.4321C43.8749 30.9872 46.0697 33.2965 49.1404 34.0916C53.5798 35.2432 57.5615 34.02 61.0847 30.4218L47.5 7L18.5 7L7.53488 25.9054Z" fill="white" style="fill:white;fill-opacity:1;"/>
<path d="M61.9776 31.9614C61.9464 32.042 61.9148 32.1221 61.8829 32.2018L62 32L61.9776 31.9614Z" fill="white" style="fill:white;fill-opacity:1;"/>
<path d="M58.4626 38.099C54.893 42.4003 49.7678 44.5511 43.0875 44.5511C33.0878 44.5511 28.5085 39.7329 24.5523 35.5695C22.1251 33.0128 19.9303 30.7035 16.8611 29.9084C12.4218 28.7582 8.44017 29.9816 4.9162 33.5797L18.5 57L47.5 57L58.4626 38.099Z" fill="white" style="fill:white;fill-opacity:1;"/>
</svg>
