<svg width="65" height="65" viewBox="0 0 65 65" fill="none" xmlns="http://www.w3.org/2000/svg">
<path d="M1.13239 32.7683L1 33L1.02526 33.0442C1.06065 32.9518 1.09635 32.8598 1.13239 32.7683Z" fill="white" style="fill:white;fill-opacity:1;"/>
<path d="M4.90056 26.174C8.83963 21.3532 14.4959 18.9428 21.8707 18.9428C32.9049 18.9428 37.9561 24.3373 42.3216 29.004C44.9999 31.8657 47.4217 34.4521 50.8101 35.3426C55.7088 36.6324 60.1024 35.2624 63.99 31.2324L49 5L17 5L4.90056 26.174Z" fill="white" style="fill:white;fill-opacity:1;"/>
<path d="M64.9753 32.9568C64.9408 33.047 64.906 33.1367 64.8708 33.226L65 33L64.9753 32.9568Z" fill="white" style="fill:white;fill-opacity:1;"/>
<path d="M61.0966 39.8309C57.1578 44.6483 51.5024 47.0572 44.131 47.0572C33.0968 47.0572 28.0439 41.6608 23.6783 36.9979C21.0001 34.1343 18.5783 31.5479 15.1916 30.6574C10.293 29.3691 5.8995 30.7394 2.01098 34.7692L17 61L49 61L61.0966 39.8309Z" fill="white" style="fill:white;fill-opacity:1;"/>
</svg>
