<svg width="204" height="81" viewBox="0 0 204 81" fill="none" xmlns="http://www.w3.org/2000/svg">
<path d="M199.108 37.7663V36.2329C198.729 36.6405 198.215 37.0869 197.807 37.349C197.05 37.8051 196.294 38.0477 195.643 38.0477C194.682 38.0477 193.838 37.6401 193.081 36.8346C192.344 36.0291 191.984 34.8451 191.984 33.2632C191.984 32.0598 192.237 30.9243 192.703 29.9732C193.149 29.0415 193.838 28.2069 194.595 27.6537C195.401 27.0811 196.429 26.79 197.594 26.79C197.924 26.79 198.438 26.8094 199.069 26.8773C199.069 26.8773 199.079 26.887 199.108 26.887V22.4324H201.534V37.7663H199.108ZM199.108 33.0303V29.0803C198.642 28.9833 198.205 28.9348 197.817 28.9348C196.934 28.9348 196.109 29.3618 195.488 30.012V30.0023C194.896 30.7302 194.556 31.7686 194.556 33.0303C194.556 33.9522 194.731 34.6413 195.042 35.0877C195.342 35.4856 195.682 35.6991 196.031 35.6991C196.478 35.6991 196.973 35.4662 197.536 34.9907C198.137 34.4957 198.652 33.8358 199.108 33.0303Z" fill="#1F2328" style="fill:#1F2328;fill:color(display-p3 0.1216 0.1373 0.1569);fill-opacity:1;"/>
<path d="M182.842 37.7663H180.426V26.9258H182.842V28.3816C183.211 27.9546 183.59 27.6343 184.026 27.3528C184.754 26.8773 185.501 26.6444 186.268 26.6444C186.948 26.6444 187.559 26.8191 188.102 27.1782C188.656 27.5469 189.063 28.0322 189.277 28.6048C189.481 29.158 189.587 30.2158 189.587 31.7492V37.7663H187.161V31.5454C187.161 30.6234 187.122 30.0217 187.045 29.7403C186.967 29.5074 186.831 29.2938 186.647 29.158C186.462 29.0027 186.268 28.9348 186.064 28.9348C185.56 28.9348 184.997 29.1774 184.395 29.682C183.784 30.1867 183.279 30.8369 182.842 31.6133V37.7663Z" fill="#1F2328" style="fill:#1F2328;fill:color(display-p3 0.1216 0.1373 0.1569);fill-opacity:1;"/>
<path d="M176.544 37.7663H171.303V29.0609H168.498V26.9258H173.72V35.6312H176.544V37.7663ZM171.022 23.6456C171.022 23.1506 171.226 22.7624 171.565 22.5004C171.876 22.2674 172.215 22.151 172.507 22.151C172.827 22.151 173.167 22.2674 173.477 22.5004C173.817 22.7624 174.011 23.1506 174.011 23.6456C174.011 24.1405 173.817 24.519 173.477 24.781C173.157 25.0237 172.817 25.1401 172.507 25.1401C172.196 25.1401 171.876 25.0237 171.565 24.781C171.226 24.519 171.022 24.1405 171.022 23.6456Z" fill="#1F2328" style="fill:#1F2328;fill:color(display-p3 0.1216 0.1373 0.1569);fill-opacity:1;"/>
<path d="M159.259 37.7663H157.027L155.261 26.9258H157.571L158.502 32.8264L160.055 26.9258H162.122L163.889 32.9138L164.84 26.9258H166.887L165.131 37.7663H162.967L160.977 31.1281L159.259 37.7663Z" fill="#1F2328" style="fill:#1F2328;fill:color(display-p3 0.1216 0.1373 0.1569);fill-opacity:1;"/>
<path d="M152.893 37.7663H147.312V24.5772H144.285V22.4324H149.729V35.6312H152.893V37.7663Z" fill="#1F2328" style="fill:#1F2328;fill:color(display-p3 0.1216 0.1373 0.1569);fill-opacity:1;"/>
<path d="M140.733 37.7663H135.492V29.0609H132.687V26.9258H137.908V35.6312H140.733V37.7663ZM135.21 23.6456C135.21 23.1506 135.414 22.7624 135.754 22.5004C136.064 22.2674 136.404 22.151 136.695 22.151C137.016 22.151 137.355 22.2674 137.666 22.5004C138.005 22.7624 138.2 23.1506 138.2 23.6456C138.2 24.1405 138.005 24.519 137.666 24.781C137.346 25.0237 137.006 25.1401 136.695 25.1401C136.385 25.1401 136.064 25.0237 135.754 24.781C135.414 24.519 135.21 24.1405 135.21 23.6456Z" fill="#1F2328" style="fill:#1F2328;fill:color(display-p3 0.1216 0.1373 0.1569);fill-opacity:1;"/>
<path d="M127.932 37.7663L127.747 37.6304C127.631 37.1549 127.543 36.6599 127.476 36.1164C127.058 36.6114 126.573 37.0481 126.088 37.349C125.311 37.8051 124.564 38.0477 123.924 38.0477C122.963 38.0477 122.109 37.6401 121.361 36.8346C120.624 36.0388 120.265 34.8548 120.265 33.2632C120.265 32.0404 120.507 30.934 120.964 29.9732C121.429 29.0124 122.099 28.2166 122.866 27.6537C123.671 27.0811 124.7 26.79 125.865 26.79C126.204 26.79 126.728 26.8094 127.349 26.8773C127.427 26.8773 127.476 26.887 127.543 26.8967L127.747 26.9258H129.814V34.4278C129.814 35.5924 129.989 36.6987 130.339 37.7663H127.932ZM127.388 33.0303V29.0803C126.922 28.9833 126.476 28.9348 126.088 28.9348C125.205 28.9348 124.37 29.3618 123.768 30.012V30.0023C123.167 30.7302 122.827 31.7783 122.827 33.0303C122.827 33.9716 123.002 34.651 123.312 35.0974V35.0877C123.623 35.4953 123.953 35.6991 124.312 35.6991C124.739 35.6991 125.263 35.4662 125.816 34.9907C126.379 34.4957 126.922 33.8358 127.388 33.0303Z" fill="#1F2328" style="fill:#1F2328;fill:color(display-p3 0.1216 0.1373 0.1569);fill-opacity:1;"/>
<path d="M117.984 34.8839V37.2325C117.004 37.6304 116.334 37.8924 115.965 37.941C115.616 38.0089 115.247 38.0477 114.869 38.0477C114.112 38.0477 113.423 37.8924 112.782 37.611C112.122 37.3004 111.618 36.8346 111.288 36.2523C110.948 35.67 110.793 34.7772 110.793 33.6028V29.9053H108.269V27.7702H110.793V23.6941H113.209V27.7702H117.703V29.9053H113.209V33.5737C113.209 34.321 113.297 34.8451 113.452 35.1362L113.442 35.1265C113.588 35.3692 113.811 35.573 114.054 35.7088C114.325 35.8253 114.675 35.9126 115.043 35.9126C115.8 35.9126 116.781 35.5633 117.984 34.8839Z" fill="#1F2328" style="fill:#1F2328;fill:color(display-p3 0.1216 0.1373 0.1569);fill-opacity:1;"/>
<path d="M105.406 32.6809H97.5066V30.507H105.406V32.6809Z" fill="#1F2328" style="fill:#1F2328;fill:color(display-p3 0.1216 0.1373 0.1569);fill-opacity:1;"/>
<path d="M94.071 34.5539V36.9705C92.5376 37.6983 91.1401 38.0574 89.8881 38.0574C87.918 38.0574 86.3264 37.0481 85.385 35.2333C84.9386 34.3501 84.7057 33.3796 84.7057 32.3703C84.7057 31.3998 84.9289 30.4584 85.3559 29.5462C85.7926 28.6436 86.4235 27.9157 87.2096 27.4111C87.9957 26.8967 88.8691 26.6444 89.8687 26.6444C91.1692 26.6444 92.227 27.1296 93.0228 28.0613C93.7895 28.9833 94.2166 30.4293 94.2166 32.2539V32.9914H87.2678C87.3066 33.4864 87.4425 33.9522 87.6463 34.3792C87.918 34.8839 88.2577 35.2721 88.6653 35.5244H88.6556C89.0826 35.7768 89.5582 35.9126 90.1017 35.9126C91.1013 35.9126 92.4405 35.4565 94.071 34.5539ZM91.6447 30.9922V31.1281V31.1766L91.8388 30.9922H91.6447ZM87.4425 30.9922H91.6447C91.635 30.3323 91.4506 29.7791 91.1207 29.3909C90.8004 28.9833 90.354 28.7795 89.7911 28.7795C88.7041 28.7795 87.8501 29.5074 87.4425 30.9922Z" fill="#1F2328" style="fill:#1F2328;fill:color(display-p3 0.1216 0.1373 0.1569);fill-opacity:1;"/>
<path d="M81.2702 37.7663H75.6898V24.5772H72.6619V22.4324H78.1064V35.6312H81.2702V37.7663Z" fill="#1F2328" style="fill:#1F2328;fill:color(display-p3 0.1216 0.1373 0.1569);fill-opacity:1;"/>
<path d="M63.3548 22.4324V28.4301C63.7527 28.0031 64.2185 27.6052 64.6552 27.3431C65.4122 26.887 66.1595 26.6444 66.8194 26.6444C67.7802 26.6444 68.6246 27.052 69.3816 27.8575C70.1094 28.6436 70.4879 29.8276 70.4879 31.4289C70.4879 32.6323 70.2356 33.7678 69.76 34.7286C69.3039 35.67 68.644 36.4949 67.8579 37.0481C67.0524 37.6304 66.0625 37.9021 64.859 37.9021C64.5291 37.9021 64.0244 37.8827 63.3742 37.8148L63.1607 37.7857C63.0927 37.776 63.0248 37.7663 62.986 37.7663H60.9382V22.4324H63.3548ZM63.3548 31.6619V35.6118C63.8206 35.7088 64.2864 35.7573 64.6649 35.7573C65.4996 35.7573 66.3633 35.2818 66.965 34.6995C67.557 33.9716 67.9161 32.8944 67.9161 31.6619C67.9161 30.7399 67.7414 30.0411 67.4212 29.6044C67.1106 29.2065 66.7709 28.993 66.4215 28.993C66.0139 28.993 65.4219 29.2938 64.927 29.7014C64.3641 30.1964 63.8109 30.8563 63.3548 31.6619Z" fill="#1F2328" style="fill:#1F2328;fill:color(display-p3 0.1216 0.1373 0.1569);fill-opacity:1;"/>
<path d="M56.309 37.7663L56.1246 37.6304C56.0082 37.1549 55.9208 36.6599 55.8529 36.1164C55.4356 36.6114 54.9503 37.0481 54.4651 37.349C53.6887 37.8051 52.9414 38.0477 52.3009 38.0477C51.3401 38.0477 50.486 37.6401 49.7388 36.8346C49.0012 36.0388 48.6421 34.8548 48.6421 33.2632C48.6421 32.0404 48.8847 30.934 49.3408 29.9732C49.8067 29.0124 50.4763 28.2166 51.243 27.6537C52.0485 27.0811 53.0773 26.79 54.2419 26.79C54.5815 26.79 55.1056 26.8094 55.7267 26.8773C55.8044 26.8773 55.8529 26.887 55.9208 26.8967L56.1246 26.9258H58.1918V34.4278C58.1918 35.5924 58.3665 36.6987 58.7158 37.7663H56.309ZM55.7655 33.0303V29.0803C55.2997 28.9833 54.8533 28.9348 54.4651 28.9348C53.5819 28.9348 52.7473 29.3618 52.1456 30.012V30.0023C51.5439 30.7302 51.2042 31.7783 51.2042 33.0303C51.2042 33.9716 51.3789 34.651 51.6895 35.0974V35.0877C52 35.4953 52.33 35.6991 52.6891 35.6991C53.1161 35.6991 53.6401 35.4662 54.1933 34.9907C54.7562 34.4957 55.2997 33.8358 55.7655 33.0303Z" fill="#1F2328" style="fill:#1F2328;fill:color(display-p3 0.1216 0.1373 0.1569);fill-opacity:1;"/>
<path d="M43.9254 37.7663V36.2329C43.547 36.6405 43.0326 37.0869 42.625 37.349C41.868 37.8051 41.111 38.0477 40.4608 38.0477C39.5 38.0477 38.6557 37.6401 37.8987 36.8346C37.1611 36.0291 36.802 34.8451 36.802 33.2632C36.802 32.0598 37.0543 30.9243 37.5202 29.9732C37.9666 29.0415 38.6557 28.2069 39.4126 27.6537C40.2182 27.0811 41.2469 26.79 42.4115 26.79C42.7414 26.79 43.2558 26.8094 43.8866 26.8773C43.8866 26.8773 43.8963 26.887 43.9254 26.887V22.4324H46.3517V37.7663H43.9254ZM43.9254 33.0303V29.0803C43.4596 28.9833 43.0229 28.9348 42.6347 28.9348C41.7515 28.9348 40.9266 29.3618 40.3055 30.012V30.0023C39.7135 30.7302 39.3738 31.7686 39.3738 33.0303C39.3738 33.9522 39.5485 34.6413 39.8591 35.0877C40.1599 35.4856 40.4996 35.6991 40.849 35.6991C41.2954 35.6991 41.7904 35.4662 42.3532 34.9907C42.955 34.4957 43.4693 33.8358 43.9254 33.0303Z" fill="#1F2328" style="fill:#1F2328;fill:color(display-p3 0.1216 0.1373 0.1569);fill-opacity:1;"/>
<path d="M32.4347 37.7663L32.2504 37.6304C32.1339 37.1549 32.0465 36.6599 31.9786 36.1164C31.5613 36.6114 31.0761 37.0481 30.5908 37.349C29.8144 37.8051 29.0671 38.0477 28.4266 38.0477C27.4658 38.0477 26.6118 37.6401 25.8645 36.8346C25.1269 36.0388 24.7678 34.8548 24.7678 33.2632C24.7678 32.0404 25.0104 30.934 25.4666 29.9732C25.9324 29.0124 26.6021 28.2166 27.3688 27.6537C28.1743 27.0811 29.203 26.79 30.3676 26.79C30.7073 26.79 31.2313 26.8094 31.8524 26.8773C31.9301 26.8773 31.9786 26.887 32.0465 26.8967L32.2504 26.9258H34.3175V34.4278C34.3175 35.5924 34.4922 36.6987 34.8416 37.7663H32.4347ZM31.8913 33.0303V29.0803C31.4254 28.9833 30.979 28.9348 30.5908 28.9348C29.7077 28.9348 28.873 29.3618 28.2713 30.012V30.0023C27.6696 30.7302 27.3299 31.7783 27.3299 33.0303C27.3299 33.9716 27.5046 34.651 27.8152 35.0974V35.0877C28.1257 35.4953 28.4557 35.6991 28.8148 35.6991C29.2418 35.6991 29.7659 35.4662 30.3191 34.9907C30.882 34.4957 31.4254 33.8358 31.8913 33.0303Z" fill="#1F2328" style="fill:#1F2328;fill:color(display-p3 0.1216 0.1373 0.1569);fill-opacity:1;"/>
<path d="M22.4483 34.5539V36.9705C20.9149 37.6983 19.5174 38.0574 18.2655 38.0574C16.2954 38.0574 14.7037 37.0481 13.7624 35.2333C13.3159 34.3501 13.083 33.3796 13.083 32.3703C13.083 31.3998 13.3062 30.4584 13.7332 29.5462C14.17 28.6436 14.8008 27.9157 15.5869 27.4111C16.373 26.8967 17.2464 26.6444 18.2461 26.6444C19.5465 26.6444 20.6044 27.1296 21.4002 28.0613C22.1669 28.9833 22.5939 30.4293 22.5939 32.2539V32.9914H15.6451C15.6839 33.4864 15.8198 33.9522 16.0236 34.3792C16.2954 34.8839 16.635 35.2721 17.0426 35.5244H17.0329C17.4599 35.7768 17.9355 35.9126 18.479 35.9126C19.4786 35.9126 20.8179 35.4565 22.4483 34.5539ZM20.0221 30.9922V31.1281V31.1766L20.2162 30.9922H20.0221ZM15.8198 30.9922H20.0221C20.0124 30.3323 19.828 29.7791 19.498 29.3909C19.1777 28.9833 18.7313 28.7795 18.1684 28.7795C17.0815 28.7795 16.2274 29.5074 15.8198 30.9922Z" fill="#1F2328" style="fill:#1F2328;fill:color(display-p3 0.1216 0.1373 0.1569);fill-opacity:1;"/>
<path d="M4.66886 37.7663H2.25232V26.9258H4.66886V28.401C5.66847 27.314 6.97864 26.6444 8.36645 26.6444C9.03609 26.6444 9.75426 26.7803 10.5598 27.0229V31.3125H8.21117V28.9542C8.08501 28.9348 7.96855 28.9348 7.91032 28.9348C6.79424 28.9348 5.7267 29.8373 4.66886 31.623V37.7663Z" fill="#1F2328" style="fill:#1F2328;fill:color(display-p3 0.1216 0.1373 0.1569);fill-opacity:1;"/>
<path fill-rule="evenodd" clip-rule="evenodd" d="M6.56063 55.6284C5.70766 56.4753 4.64538 57 3.25 57C2.55964 57 2 56.2538 2 55.3333C2 54.4129 2.55964 53.6667 3.25 53.6667C4.12704 53.6667 4.66151 53.358 5.06746 52.9549C5.52304 52.5026 5.8791 51.8784 6.35827 51.0113C6.37091 50.9884 6.38365 50.9654 6.39649 50.9421C6.83269 50.1523 7.38817 49.1464 8.16853 48.3716C9.0215 47.5247 10.0838 47 11.4792 47C12.8745 47 13.9368 47.5247 14.7898 48.3716C15.5702 49.1464 16.1256 50.1523 16.5618 50.9421C16.5747 50.9654 16.5874 50.9884 16.6001 51.0113C17.0792 51.8784 17.4353 52.5026 17.8909 52.9549C18.2968 53.358 18.8313 53.6667 19.7083 53.6667C20.5854 53.6667 21.1198 53.358 21.5258 52.9549C21.9814 52.5026 22.3374 51.8784 22.8166 51.0113C22.8292 50.9885 22.842 50.9654 22.8548 50.9421C23.291 50.1523 23.8465 49.1464 24.6269 48.3716C25.4798 47.5247 26.5421 47 27.9375 47C29.3329 47 30.3952 47.5247 31.2481 48.3716C32.0285 49.1464 32.584 50.1523 33.0202 50.9421C33.033 50.9654 33.0458 50.9884 33.0584 51.0113C33.5376 51.8784 33.8936 52.5026 34.3492 52.9549C34.7552 53.358 35.2896 53.6667 36.1667 53.6667C37.0437 53.6667 37.5782 53.358 37.9841 52.9549C38.4397 52.5026 38.7958 51.8784 39.2749 51.0113C39.2876 50.9884 39.3003 50.9654 39.3132 50.9421C39.7494 50.1523 40.3048 49.1464 41.0852 48.3716C41.9382 47.5247 43.0005 47 44.3958 47C45.7912 47 46.8535 47.5247 47.7065 48.3716C48.4868 49.1464 49.0423 50.1523 49.4785 50.9421L49.5167 51.0113C49.9959 51.8784 50.352 52.5026 50.8075 52.9549C51.2135 53.358 51.748 53.6667 52.625 53.6667C53.502 53.6667 54.0365 53.358 54.4425 52.9549C54.898 52.5026 55.2541 51.8784 55.7333 51.0113L55.7715 50.9421C56.2077 50.1523 56.7632 49.1464 57.5435 48.3716C58.3965 47.5247 59.4588 47 60.8542 47C62.2495 47 63.3118 47.5247 64.1648 48.3716C64.9452 49.1464 65.5006 50.1523 65.9368 50.9421L65.9751 51.0113C66.4542 51.8784 66.8103 52.5026 67.2659 52.9549C67.6718 53.358 68.2063 53.6667 69.0833 53.6667C69.9604 53.6667 70.4948 53.358 70.9008 52.9549C71.3564 52.5026 71.7124 51.8784 72.1916 51.0113L72.2298 50.9421C72.666 50.1523 73.2215 49.1464 74.0019 48.3716C74.8548 47.5247 75.9171 47 77.3125 47C78.7079 47 79.7702 47.5247 80.6231 48.3716C81.4035 49.1464 81.959 50.1523 82.3952 50.9421L82.4334 51.0113C82.9126 51.8784 83.2686 52.5026 83.7242 52.9549C84.1302 53.358 84.6646 53.6667 85.5417 53.6667C86.4187 53.6667 86.9532 53.358 87.3591 52.9549C87.8147 52.5026 88.1708 51.8784 88.6499 51.0113L88.6881 50.9422C89.1243 50.1523 89.6798 49.1465 90.4602 48.3716C91.3132 47.5247 92.3755 47 93.7708 47C95.1662 47 96.2285 47.5247 97.0815 48.3716C97.8618 49.1464 98.4173 50.1523 98.8535 50.9421L98.8917 51.0113C99.3709 51.8784 99.727 52.5026 100.183 52.9549C100.588 53.358 101.123 53.6667 102 53.6667C102.877 53.6667 103.412 53.358 103.817 52.9549C104.273 52.5026 104.629 51.8784 105.108 51.0113L105.147 50.9421C105.583 50.1523 106.138 49.1464 106.919 48.3716C107.772 47.5247 108.834 47 110.229 47C111.625 47 112.687 47.5247 113.54 48.3716C114.32 49.1464 114.876 50.1523 115.312 50.9421L115.35 51.0113C115.829 51.8784 116.185 52.5026 116.641 52.9549C117.047 53.358 117.581 53.6667 118.458 53.6667C119.335 53.6667 119.87 53.358 120.276 52.9549C120.731 52.5026 121.087 51.8784 121.567 51.0113L121.605 50.9421C122.041 50.1523 122.597 49.1464 123.377 48.3716C124.23 47.5247 125.292 47 126.688 47C128.083 47 129.145 47.5247 129.998 48.3716C130.779 49.1465 131.334 50.1524 131.77 50.9422L131.808 51.0113C132.288 51.8784 132.644 52.5026 133.099 52.9549C133.505 53.358 134.04 53.6667 134.917 53.6667C135.794 53.6667 136.328 53.358 136.734 52.9549C137.19 52.5026 137.546 51.8784 138.025 51.0113L138.063 50.9421C138.499 50.1523 139.055 49.1464 139.835 48.3716C140.688 47.5247 141.75 47 143.146 47C144.541 47 145.603 47.5247 146.456 48.3716C147.237 49.1464 147.792 50.1523 148.229 50.9422L148.267 51.0113C148.746 51.8784 149.102 52.5026 149.558 52.9549C149.963 53.358 150.498 53.6667 151.375 53.6667C152.252 53.6667 152.787 53.358 153.192 52.9549C153.648 52.5026 154.004 51.8784 154.483 51.0113L154.521 50.9421C154.958 50.1523 155.513 49.1464 156.294 48.3716C157.147 47.5247 158.209 47 159.604 47C161 47 162.062 47.5247 162.915 48.3716C163.695 49.1465 164.251 50.1524 164.687 50.9422L164.725 51.0113C165.204 51.8784 165.56 52.5026 166.016 52.9549C166.422 53.358 166.956 53.6667 167.833 53.6667C168.71 53.6667 169.245 53.358 169.651 52.9549C170.106 52.5026 170.462 51.8784 170.942 51.0113L170.98 50.942C171.416 50.1522 171.972 49.1464 172.752 48.3716C173.605 47.5247 174.667 47 176.063 47C177.458 47 178.52 47.5247 179.373 48.3716C180.154 49.1464 180.709 50.1523 181.145 50.9421L181.183 51.0113C181.663 51.8784 182.019 52.5026 182.474 52.9549C182.88 53.358 183.415 53.6667 184.292 53.6667C185.169 53.6667 185.703 53.358 186.109 52.9549C186.565 52.5026 186.921 51.8784 187.4 51.0113L187.438 50.9422C187.874 50.1524 188.43 49.1465 189.21 48.3716C190.063 47.5247 191.125 47 192.521 47C193.916 47 194.979 47.5247 195.831 48.3716C196.612 49.1465 197.167 50.1524 197.604 50.9422L197.642 51.0113C198.121 51.8784 198.477 52.5026 198.933 52.9549C199.338 53.358 199.873 53.6667 200.75 53.6667C201.44 53.6667 202 54.4129 202 55.3333C202 56.2538 201.44 57 200.75 57C199.355 57 198.292 56.4753 197.439 55.6284C196.659 54.8535 196.103 53.8476 195.667 53.0578L195.629 52.9887C195.15 52.1216 194.794 51.4974 194.338 51.0451C193.932 50.642 193.398 50.3333 192.521 50.3333C191.644 50.3333 191.109 50.642 190.703 51.0451C190.248 51.4974 189.892 52.1216 189.413 52.9887L189.374 53.0579C188.938 53.8477 188.383 54.8536 187.602 55.6284C186.749 56.4753 185.687 57 184.292 57C182.896 57 181.834 56.4753 180.981 55.6284C180.201 54.8535 179.645 53.8476 179.209 53.0578L179.171 52.9887C178.692 52.1216 178.336 51.4974 177.88 51.0451C177.474 50.642 176.94 50.3333 176.063 50.3333C175.185 50.3333 174.651 50.642 174.245 51.0451C173.789 51.4974 173.433 52.1216 172.954 52.9887L172.916 53.0578C172.48 53.8476 171.924 54.8535 171.144 55.6284C170.291 56.4753 169.229 57 167.833 57C166.438 57 165.376 56.4753 164.523 55.6284C163.742 54.8536 163.187 53.8477 162.751 53.0579L162.712 52.9887C162.233 52.1216 161.877 51.4974 161.422 51.0451C161.016 50.642 160.481 50.3333 159.604 50.3333C158.727 50.3333 158.193 50.642 157.787 51.0451C157.331 51.4974 156.975 52.1216 156.496 52.9887L156.458 53.0579C156.021 53.8477 155.466 54.8536 154.686 55.6284C153.833 56.4753 152.77 57 151.375 57C149.98 57 148.917 56.4753 148.064 55.6284C147.284 54.8536 146.729 53.8477 146.292 53.0579L146.254 52.9887C145.775 52.1216 145.419 51.4974 144.963 51.0451C144.557 50.642 144.023 50.3333 143.146 50.3333C142.269 50.3333 141.734 50.642 141.328 51.0451C140.873 51.4974 140.517 52.1216 140.038 52.9887L139.999 53.0579C139.563 53.8477 139.008 54.8536 138.227 55.6284C137.374 56.4753 136.312 57 134.917 57C133.521 57 132.459 56.4753 131.606 55.6284C130.826 54.8536 130.27 53.8477 129.834 53.0579L129.796 52.9887C129.317 52.1216 128.961 51.4974 128.505 51.0451C128.099 50.642 127.565 50.3333 126.688 50.3333C125.81 50.3333 125.276 50.642 124.87 51.0451C124.414 51.4974 124.058 52.1216 123.579 52.9887L123.541 53.0579C123.105 53.8477 122.549 54.8536 121.769 55.6284C120.916 56.4753 119.854 57 118.458 57C117.063 57 116.001 56.4753 115.148 55.6284C114.367 54.8536 113.812 53.8477 113.376 53.0579L113.337 52.9887C112.858 52.1216 112.502 51.4974 112.047 51.0451C111.641 50.642 111.106 50.3333 110.229 50.3333C109.352 50.3333 108.818 50.642 108.412 51.0451C107.956 51.4974 107.6 52.1216 107.121 52.9887L107.083 53.0579C106.646 53.8477 106.091 54.8536 105.311 55.6284C104.458 56.4753 103.395 57 102 57C100.605 57 99.5423 56.4753 98.6894 55.6284C97.909 54.8536 97.3535 53.8477 96.9173 53.0579L96.8791 52.9887C96.3999 52.1216 96.0439 51.4974 95.5883 51.0451C95.1823 50.642 94.6479 50.3333 93.7708 50.3333C92.8938 50.3333 92.3593 50.642 91.9534 51.0451C91.4978 51.4974 91.1417 52.1216 90.6626 52.9887L90.6243 53.0579C90.1881 53.8477 89.6326 54.8536 88.8523 55.6284C87.9993 56.4753 86.937 57 85.5417 57C84.1463 57 83.084 56.4753 82.231 55.6284C81.4507 54.8536 80.8952 53.8477 80.459 53.0579L80.4208 52.9887C79.9416 52.1216 79.5855 51.4974 79.13 51.0451C78.724 50.642 78.1895 50.3333 77.3125 50.3333C76.4355 50.3333 75.901 50.642 75.495 51.0451C75.0395 51.4974 74.6834 52.1216 74.2042 52.9887L74.166 53.0579C73.7298 53.8477 73.1743 54.8536 72.394 55.6284C71.541 56.4753 70.4787 57 69.0833 57C67.6879 57 66.6257 56.4753 65.7727 55.6284C64.9923 54.8536 64.4369 53.8477 64.0007 53.0579L63.9624 52.9887C63.4833 52.1216 63.1272 51.4974 62.6716 51.0451C62.2657 50.642 61.7312 50.3333 60.8542 50.3333C59.9771 50.3333 59.4427 50.642 59.0367 51.0451C58.5811 51.4974 58.2251 52.1216 57.7459 52.9887L57.7077 53.0579C57.2715 53.8477 56.716 54.8536 55.9356 55.6284C55.0827 56.4753 54.0204 57 52.625 57C51.2296 57 50.1673 56.4753 49.3144 55.6284C48.534 54.8536 47.9785 53.8477 47.5423 53.0579L47.5041 52.9887C47.0249 52.1216 46.6689 51.4974 46.2133 51.0451C45.8073 50.642 45.2729 50.3333 44.3958 50.3333C43.5188 50.3333 42.9843 50.642 42.5784 51.0451C42.1228 51.4974 41.7667 52.1216 41.2876 52.9887C41.2749 53.0116 41.2622 53.0346 41.2493 53.0579C40.8131 53.8477 40.2577 54.8536 39.4773 55.6284C38.6243 56.4753 37.562 57 36.1667 57C34.7713 57 33.709 56.4753 32.856 55.6284C32.0757 54.8536 31.5202 53.8477 31.084 53.0579C31.0711 53.0346 31.0584 53.0115 31.0458 52.9887C30.5666 52.1216 30.2105 51.4974 29.755 51.0451C29.349 50.642 28.8145 50.3333 27.9375 50.3333C27.0605 50.3333 26.526 50.642 26.12 51.0451C25.6645 51.4974 25.3084 52.1216 24.8292 52.9887C24.8166 53.0116 24.8038 53.0346 24.791 53.0579C24.3548 53.8477 23.7993 54.8536 23.019 55.6284C22.166 56.4753 21.1037 57 19.7083 57C18.313 57 17.2507 56.4753 16.3977 55.6284C15.6173 54.8536 15.0619 53.8477 14.6257 53.0579C14.6128 53.0346 14.6001 53.0116 14.5874 52.9887C14.1083 52.1216 13.7522 51.4974 13.2966 51.0451C12.8907 50.642 12.3562 50.3333 11.4792 50.3333C10.6021 50.3333 10.0677 50.642 9.66171 51.0451C9.20613 51.4974 8.85007 52.1216 8.37089 52.9887C8.35825 53.0116 8.34552 53.0346 8.33267 53.0579C7.89648 53.8477 7.34099 54.8536 6.56063 55.6284Z" fill="#D0B243" style="fill:#D0B243;fill:color(display-p3 0.8157 0.6980 0.2627);fill-opacity:1;"/>
</svg>
