<svg width="128" height="128" viewBox="0 0 128 128" fill="none" xmlns="http://www.w3.org/2000/svg">
<path fill-rule="evenodd" clip-rule="evenodd" d="M18.19 63.5081L18 63.8372L18.0363 63.9C18.087 63.7687 18.1383 63.6381 18.19 63.5081ZM23.6074 54.1249C29.2698 47.2664 37.4006 43.8371 48.0016 43.8371C63.8632 43.8371 71.1244 51.5122 77.3998 58.1517C81.2498 62.2232 84.7312 65.9031 89.602 67.17C96.6438 69.0051 102.96 67.0559 108.548 61.3223L87 24L41 24L23.6074 54.1249ZM109.964 63.7756C109.915 63.9041 109.865 64.0321 109.814 64.1593L110 63.8372L109.964 63.7756ZM104.389 73.5553C98.7271 80.4096 90.5974 83.8371 80.0008 83.8371C64.1391 83.8371 56.8755 76.1593 50.6001 69.5251C46.75 65.451 43.2687 61.7711 38.4003 60.5042C31.3587 58.6713 25.043 60.6208 19.4532 66.3542L41 103.674H87L104.389 73.5553Z" fill="black" style="fill:black;fill-opacity:1;"/>
</svg>
