<svg width="239" height="157" viewBox="0 0 239 157" fill="none" xmlns="http://www.w3.org/2000/svg">
<path d="M61.6729 109.691L71.8418 114.763L61.6729 119.86V117.637L67.4561 114.771L65.3643 113.717L61.6729 111.862V109.691Z" fill="#F85149" style="fill:#F85149;fill:color(display-p3 0.9725 0.3176 0.2863);fill-opacity:1;"/>
<path d="M61.1895 105.613L52.5938 120.036H50.2822L58.9307 105.613H61.1895Z" fill="#F85149" style="fill:#F85149;fill:color(display-p3 0.9725 0.3176 0.2863);fill-opacity:1;"/>
<path d="M33.2666 114.352C33.4424 114.158 33.6885 113.965 33.9873 113.771C33.249 113.297 32.8975 112.787 32.6865 112.304C32.5547 111.996 32.4756 111.601 32.4756 111.214C32.4756 110.854 32.5195 110.396 32.6338 109.904L32.8447 108.955C32.9414 108.454 33.0117 108.059 33.0117 107.865C33.0117 107.637 32.9062 107.435 32.7129 107.259H32.7217C32.5195 107.065 32.0537 106.978 31.3154 106.978H29.6895V105H31.333C32.959 105 34.0225 105.29 34.541 105.87C35.0244 106.415 35.2881 107.048 35.2881 107.742C35.2881 108.085 35.2529 108.463 35.1387 108.885L35.1475 108.876L35.0068 109.535L34.9277 109.922C34.9102 110.045 34.875 110.15 34.8574 110.265L34.7607 110.713C34.7168 110.915 34.6992 111.091 34.6992 111.249C34.6992 111.68 34.8486 112.031 35.1299 112.33C35.4111 112.629 35.9385 112.778 36.7295 112.778H37.8105V114.756H36.7295C35.9473 114.756 35.4287 114.905 35.1299 115.204C34.8486 115.503 34.6992 115.854 34.6992 116.32C34.6992 116.47 34.7168 116.637 34.752 116.821L34.7432 116.812L34.8486 117.27L34.998 117.999C35.042 118.219 35.1035 118.447 35.1475 118.658L35.1387 118.649C35.2529 119.08 35.2881 119.458 35.2881 119.801C35.2881 120.486 34.998 121.154 34.5322 121.682C34.0049 122.235 32.9326 122.534 31.333 122.534H29.6895V120.565H31.3154C32.0537 120.565 32.5195 120.478 32.7217 120.284H32.7129C32.9062 120.108 33.0117 119.906 33.0117 119.669C33.0117 119.484 32.9414 119.089 32.8447 118.588L32.6338 117.639C32.5283 117.146 32.4756 116.689 32.4756 116.329C32.4756 115.512 32.7393 114.932 33.2666 114.352Z" fill="#E6EDF3" style="fill:#E6EDF3;fill:color(display-p3 0.9020 0.9294 0.9529);fill-opacity:1;"/>
<path d="M22.79 105.272L25.8662 108.665H23.5371L19.9688 105.272H22.79Z" fill="#A5D6FF" style="fill:#A5D6FF;fill:color(display-p3 0.6471 0.8392 1.0000);fill-opacity:1;"/>
<path d="M219.85 95.4229V94.0342C219.507 94.4033 219.041 94.8076 218.672 95.0449C217.986 95.458 217.301 95.6777 216.712 95.6777C215.842 95.6777 215.077 95.3086 214.392 94.5791C213.724 93.8496 213.398 92.7773 213.398 91.3447C213.398 90.2549 213.627 89.2266 214.049 88.3652C214.453 87.5215 215.077 86.7656 215.763 86.2646C216.492 85.7461 217.424 85.4824 218.479 85.4824C218.777 85.4824 219.243 85.5 219.814 85.5615C219.814 85.5615 219.823 85.5703 219.85 85.5703V81.5361H222.047V95.4229H219.85ZM219.85 91.1338V87.5566C219.428 87.4688 219.032 87.4248 218.681 87.4248C217.881 87.4248 217.134 87.8115 216.571 88.4004V88.3916C216.035 89.0508 215.728 89.9912 215.728 91.1338C215.728 91.9688 215.886 92.5928 216.167 92.9971C216.439 93.3574 216.747 93.5508 217.063 93.5508C217.468 93.5508 217.916 93.3398 218.426 92.9092C218.971 92.4609 219.437 91.8633 219.85 91.1338Z" fill="#A5D6FF" style="fill:#A5D6FF;fill:color(display-p3 0.6471 0.8392 1.0000);fill-opacity:1;"/>
<path d="M205.119 95.4229H202.931V85.6055H205.119V86.9238C205.453 86.5371 205.796 86.2471 206.191 85.9922C206.851 85.5615 207.527 85.3506 208.222 85.3506C208.837 85.3506 209.391 85.5088 209.883 85.834C210.384 86.168 210.753 86.6074 210.946 87.126C211.131 87.627 211.228 88.585 211.228 89.9736V95.4229H209.03V89.7891C209.03 88.9541 208.995 88.4092 208.925 88.1543C208.854 87.9434 208.731 87.75 208.564 87.627C208.397 87.4863 208.222 87.4248 208.037 87.4248C207.58 87.4248 207.07 87.6445 206.525 88.1016C205.972 88.5586 205.515 89.1475 205.119 89.8506V95.4229Z" fill="#A5D6FF" style="fill:#A5D6FF;fill:color(display-p3 0.6471 0.8392 1.0000);fill-opacity:1;"/>
<path d="M199.415 95.4229H194.669V87.5391H192.129V85.6055H196.857V93.4893H199.415V95.4229ZM194.414 82.6348C194.414 82.1865 194.599 81.835 194.906 81.5977C195.188 81.3867 195.495 81.2812 195.759 81.2812C196.049 81.2812 196.356 81.3867 196.638 81.5977C196.945 81.835 197.121 82.1865 197.121 82.6348C197.121 83.083 196.945 83.4258 196.638 83.6631C196.348 83.8828 196.04 83.9883 195.759 83.9883C195.478 83.9883 195.188 83.8828 194.906 83.6631C194.599 83.4258 194.414 83.083 194.414 82.6348Z" fill="#A5D6FF" style="fill:#A5D6FF;fill:color(display-p3 0.6471 0.8392 1.0000);fill-opacity:1;"/>
<path d="M183.762 95.4229H181.74L180.141 85.6055H182.232L183.076 90.9492L184.482 85.6055H186.354L187.954 91.0283L188.815 85.6055H190.67L189.079 95.4229H187.119L185.317 89.4111L183.762 95.4229Z" fill="#A5D6FF" style="fill:#A5D6FF;fill:color(display-p3 0.6471 0.8392 1.0000);fill-opacity:1;"/>
<path d="M177.996 95.4229H172.942V83.4785H170.2V81.5361H175.131V93.4893H177.996V95.4229Z" fill="#A5D6FF" style="fill:#A5D6FF;fill:color(display-p3 0.6471 0.8392 1.0000);fill-opacity:1;"/>
<path d="M166.983 95.4229H162.237V87.5391H159.697V85.6055H164.426V93.4893H166.983V95.4229ZM161.982 82.6348C161.982 82.1865 162.167 81.835 162.475 81.5977C162.756 81.3867 163.063 81.2812 163.327 81.2812C163.617 81.2812 163.925 81.3867 164.206 81.5977C164.514 81.835 164.689 82.1865 164.689 82.6348C164.689 83.083 164.514 83.4258 164.206 83.6631C163.916 83.8828 163.608 83.9883 163.327 83.9883C163.046 83.9883 162.756 83.8828 162.475 83.6631C162.167 83.4258 161.982 83.083 161.982 82.6348Z" fill="#A5D6FF" style="fill:#A5D6FF;fill:color(display-p3 0.6471 0.8392 1.0000);fill-opacity:1;"/>
<path d="M155.391 95.4229L155.224 95.2998C155.118 94.8691 155.039 94.4209 154.978 93.9287C154.6 94.377 154.16 94.7725 153.721 95.0449C153.018 95.458 152.341 95.6777 151.761 95.6777C150.891 95.6777 150.117 95.3086 149.44 94.5791C148.772 93.8584 148.447 92.7861 148.447 91.3447C148.447 90.2373 148.667 89.2354 149.08 88.3652C149.502 87.4951 150.108 86.7744 150.803 86.2646C151.532 85.7461 152.464 85.4824 153.519 85.4824C153.826 85.4824 154.301 85.5 154.863 85.5615C154.934 85.5615 154.978 85.5703 155.039 85.5791L155.224 85.6055H157.096V92.3994C157.096 93.4541 157.254 94.4561 157.57 95.4229H155.391ZM154.898 91.1338V87.5566C154.477 87.4688 154.072 87.4248 153.721 87.4248C152.921 87.4248 152.165 87.8115 151.62 88.4004V88.3916C151.075 89.0508 150.768 90 150.768 91.1338C150.768 91.9863 150.926 92.6016 151.207 93.0059V92.9971C151.488 93.3662 151.787 93.5508 152.112 93.5508C152.499 93.5508 152.974 93.3398 153.475 92.9092C153.984 92.4609 154.477 91.8633 154.898 91.1338Z" fill="#A5D6FF" style="fill:#A5D6FF;fill:color(display-p3 0.6471 0.8392 1.0000);fill-opacity:1;"/>
<path d="M146.382 92.8125V94.9395C145.494 95.2998 144.888 95.5371 144.554 95.5811C144.237 95.6426 143.903 95.6777 143.561 95.6777C142.875 95.6777 142.251 95.5371 141.671 95.2822C141.073 95.001 140.616 94.5791 140.317 94.0518C140.01 93.5244 139.869 92.7158 139.869 91.6523V88.3037H137.584V86.3701H139.869V82.6787H142.058V86.3701H146.127V88.3037H142.058V91.626C142.058 92.3027 142.137 92.7773 142.277 93.041L142.269 93.0322C142.4 93.252 142.603 93.4365 142.822 93.5596C143.068 93.665 143.385 93.7441 143.719 93.7441C144.404 93.7441 145.292 93.4277 146.382 92.8125Z" fill="#A5D6FF" style="fill:#A5D6FF;fill:color(display-p3 0.6471 0.8392 1.0000);fill-opacity:1;"/>
<path d="M124.726 92.5137V94.7021C123.337 95.3613 122.071 95.6865 120.938 95.6865C119.153 95.6865 117.712 94.7725 116.859 93.1289C116.455 92.3291 116.244 91.4502 116.244 90.5361C116.244 89.6572 116.446 88.8047 116.833 87.9785C117.229 87.1611 117.8 86.502 118.512 86.0449C119.224 85.5791 120.015 85.3506 120.92 85.3506C122.098 85.3506 123.056 85.79 123.776 86.6338C124.471 87.4688 124.857 88.7783 124.857 90.4307V91.0986H118.564C118.6 91.5469 118.723 91.9688 118.907 92.3555C119.153 92.8125 119.461 93.1641 119.83 93.3926H119.821C120.208 93.6211 120.639 93.7441 121.131 93.7441C122.036 93.7441 123.249 93.3311 124.726 92.5137ZM122.528 89.2881V89.4111V89.4551L122.704 89.2881H122.528ZM118.723 89.2881H122.528C122.52 88.6904 122.353 88.1895 122.054 87.8379C121.764 87.4688 121.359 87.2842 120.85 87.2842C119.865 87.2842 119.092 87.9434 118.723 89.2881Z" fill="#A5D6FF" style="fill:#A5D6FF;fill:color(display-p3 0.6471 0.8392 1.0000);fill-opacity:1;"/>
<path d="M113.133 95.4229H108.079V83.4785H105.337V81.5361H110.268V93.4893H113.133V95.4229Z" fill="#A5D6FF" style="fill:#A5D6FF;fill:color(display-p3 0.6471 0.8392 1.0000);fill-opacity:1;"/>
<path d="M96.9082 81.5361V86.9678C97.2686 86.5811 97.6904 86.2207 98.0859 85.9834C98.7715 85.5703 99.4482 85.3506 100.046 85.3506C100.916 85.3506 101.681 85.7197 102.366 86.4492C103.025 87.1611 103.368 88.2334 103.368 89.6836C103.368 90.7734 103.14 91.8018 102.709 92.6719C102.296 93.5244 101.698 94.2715 100.986 94.7725C100.257 95.2998 99.3604 95.5459 98.2705 95.5459C97.9717 95.5459 97.5146 95.5283 96.9258 95.4668L96.7324 95.4404C96.6709 95.4316 96.6094 95.4229 96.5742 95.4229H94.7197V81.5361H96.9082ZM96.9082 89.8945V93.4717C97.3301 93.5596 97.752 93.6035 98.0947 93.6035C98.8506 93.6035 99.6328 93.1729 100.178 92.6455C100.714 91.9863 101.039 91.0107 101.039 89.8945C101.039 89.0596 100.881 88.4268 100.591 88.0312C100.31 87.6709 100.002 87.4775 99.6855 87.4775C99.3164 87.4775 98.7803 87.75 98.332 88.1191C97.8223 88.5674 97.3213 89.165 96.9082 89.8945Z" fill="#A5D6FF" style="fill:#A5D6FF;fill:color(display-p3 0.6471 0.8392 1.0000);fill-opacity:1;"/>
<path d="M90.5273 95.4229L90.3604 95.2998C90.2549 94.8691 90.1758 94.4209 90.1143 93.9287C89.7363 94.377 89.2969 94.7725 88.8574 95.0449C88.1543 95.458 87.4775 95.6777 86.8975 95.6777C86.0273 95.6777 85.2539 95.3086 84.5771 94.5791C83.9092 93.8584 83.584 92.7861 83.584 91.3447C83.584 90.2373 83.8037 89.2354 84.2168 88.3652C84.6387 87.4951 85.2451 86.7744 85.9395 86.2646C86.6689 85.7461 87.6006 85.4824 88.6553 85.4824C88.9629 85.4824 89.4375 85.5 90 85.5615C90.0703 85.5615 90.1143 85.5703 90.1758 85.5791L90.3604 85.6055H92.2324V92.3994C92.2324 93.4541 92.3906 94.4561 92.707 95.4229H90.5273ZM90.0352 91.1338V87.5566C89.6133 87.4688 89.209 87.4248 88.8574 87.4248C88.0576 87.4248 87.3018 87.8115 86.7568 88.4004V88.3916C86.2119 89.0508 85.9043 90 85.9043 91.1338C85.9043 91.9863 86.0625 92.6016 86.3438 93.0059V92.9971C86.625 93.3662 86.9238 93.5508 87.249 93.5508C87.6357 93.5508 88.1104 93.3398 88.6113 92.9092C89.1211 92.4609 89.6133 91.8633 90.0352 91.1338Z" fill="#A5D6FF" style="fill:#A5D6FF;fill:color(display-p3 0.6471 0.8392 1.0000);fill-opacity:1;"/>
<path d="M79.3125 95.4229V94.0342C78.9697 94.4033 78.5039 94.8076 78.1348 95.0449C77.4492 95.458 76.7637 95.6777 76.1748 95.6777C75.3047 95.6777 74.54 95.3086 73.8545 94.5791C73.1865 93.8496 72.8613 92.7773 72.8613 91.3447C72.8613 90.2549 73.0898 89.2266 73.5117 88.3652C73.916 87.5215 74.54 86.7656 75.2256 86.2646C75.9551 85.7461 76.8867 85.4824 77.9414 85.4824C78.2402 85.4824 78.7061 85.5 79.2773 85.5615C79.2773 85.5615 79.2861 85.5703 79.3125 85.5703V81.5361H81.5098V95.4229H79.3125ZM79.3125 91.1338V87.5566C78.8906 87.4688 78.4951 87.4248 78.1436 87.4248C77.3438 87.4248 76.5967 87.8115 76.0342 88.4004V88.3916C75.498 89.0508 75.1904 89.9912 75.1904 91.1338C75.1904 91.9688 75.3486 92.5928 75.6299 92.9971C75.9023 93.3574 76.21 93.5508 76.5264 93.5508C76.9307 93.5508 77.3789 93.3398 77.8887 92.9092C78.4336 92.4609 78.8994 91.8633 79.3125 91.1338Z" fill="#A5D6FF" style="fill:#A5D6FF;fill:color(display-p3 0.6471 0.8392 1.0000);fill-opacity:1;"/>
<path d="M68.9062 95.4229L68.7393 95.2998C68.6338 94.8691 68.5547 94.4209 68.4932 93.9287C68.1152 94.377 67.6758 94.7725 67.2363 95.0449C66.5332 95.458 65.8564 95.6777 65.2764 95.6777C64.4062 95.6777 63.6328 95.3086 62.9561 94.5791C62.2881 93.8584 61.9629 92.7861 61.9629 91.3447C61.9629 90.2373 62.1826 89.2354 62.5957 88.3652C63.0176 87.4951 63.624 86.7744 64.3184 86.2646C65.0479 85.7461 65.9795 85.4824 67.0342 85.4824C67.3418 85.4824 67.8164 85.5 68.3789 85.5615C68.4492 85.5615 68.4932 85.5703 68.5547 85.5791L68.7393 85.6055H70.6113V92.3994C70.6113 93.4541 70.7695 94.4561 71.0859 95.4229H68.9062ZM68.4141 91.1338V87.5566C67.9922 87.4688 67.5879 87.4248 67.2363 87.4248C66.4365 87.4248 65.6807 87.8115 65.1357 88.4004V88.3916C64.5908 89.0508 64.2832 90 64.2832 91.1338C64.2832 91.9863 64.4414 92.6016 64.7227 93.0059V92.9971C65.0039 93.3662 65.3027 93.5508 65.6279 93.5508C66.0146 93.5508 66.4893 93.3398 66.9902 92.9092C67.5 92.4609 67.9922 91.8633 68.4141 91.1338Z" fill="#A5D6FF" style="fill:#A5D6FF;fill:color(display-p3 0.6471 0.8392 1.0000);fill-opacity:1;"/>
<path d="M59.8623 92.5137V94.7021C58.4736 95.3613 57.208 95.6865 56.0742 95.6865C54.29 95.6865 52.8486 94.7725 51.9961 93.1289C51.5918 92.3291 51.3809 91.4502 51.3809 90.5361C51.3809 89.6572 51.583 88.8047 51.9697 87.9785C52.3652 87.1611 52.9365 86.502 53.6484 86.0449C54.3604 85.5791 55.1514 85.3506 56.0566 85.3506C57.2344 85.3506 58.1924 85.79 58.9131 86.6338C59.6074 87.4688 59.9941 88.7783 59.9941 90.4307V91.0986H53.7012C53.7363 91.5469 53.8594 91.9688 54.0439 92.3555C54.29 92.8125 54.5977 93.1641 54.9668 93.3926H54.958C55.3447 93.6211 55.7754 93.7441 56.2676 93.7441C57.1729 93.7441 58.3857 93.3311 59.8623 92.5137ZM57.665 89.2881V89.4111V89.4551L57.8408 89.2881H57.665ZM53.8594 89.2881H57.665C57.6562 88.6904 57.4893 88.1895 57.1904 87.8379C56.9004 87.4688 56.4961 87.2842 55.9863 87.2842C55.002 87.2842 54.2285 87.9434 53.8594 89.2881Z" fill="#A5D6FF" style="fill:#A5D6FF;fill:color(display-p3 0.6471 0.8392 1.0000);fill-opacity:1;"/>
<path d="M43.7607 95.4229H41.5723V85.6055H43.7607V86.9414C44.666 85.957 45.8525 85.3506 47.1094 85.3506C47.7158 85.3506 48.3662 85.4736 49.0957 85.6934V89.5781H46.9688V87.4424C46.8545 87.4248 46.749 87.4248 46.6963 87.4248C45.6855 87.4248 44.7188 88.2422 43.7607 89.8594V95.4229Z" fill="#A5D6FF" style="fill:#A5D6FF;fill:color(display-p3 0.6471 0.8392 1.0000);fill-opacity:1;"/>
<path d="M172.688 71.4229H170.499V61.6055H172.688V62.9238C173.021 62.5371 173.364 62.2471 173.76 61.9922C174.419 61.5615 175.096 61.3506 175.79 61.3506C176.405 61.3506 176.959 61.5088 177.451 61.834C177.952 62.168 178.321 62.6074 178.515 63.126C178.699 63.627 178.796 64.585 178.796 65.9736V71.4229H176.599V65.7891C176.599 64.9541 176.563 64.4092 176.493 64.1543C176.423 63.9434 176.3 63.75 176.133 63.627C175.966 63.4863 175.79 63.4248 175.605 63.4248C175.148 63.4248 174.639 63.6445 174.094 64.1016C173.54 64.5586 173.083 65.1475 172.688 65.8506V71.4229Z" fill="#A5D6FF" style="fill:#A5D6FF;fill:color(display-p3 0.6471 0.8392 1.0000);fill-opacity:1;"/>
<path d="M166.983 71.4229H162.237V63.5391H159.697V61.6055H164.426V69.4893H166.983V71.4229ZM161.982 58.6348C161.982 58.1865 162.167 57.835 162.475 57.5977C162.756 57.3867 163.063 57.2812 163.327 57.2812C163.617 57.2812 163.925 57.3867 164.206 57.5977C164.514 57.835 164.689 58.1865 164.689 58.6348C164.689 59.083 164.514 59.4258 164.206 59.6631C163.916 59.8828 163.608 59.9883 163.327 59.9883C163.046 59.9883 162.756 59.8828 162.475 59.6631C162.167 59.4258 161.982 59.083 161.982 58.6348Z" fill="#A5D6FF" style="fill:#A5D6FF;fill:color(display-p3 0.6471 0.8392 1.0000);fill-opacity:1;"/>
<path d="M154.986 70.3242V70.0342C154.644 70.4033 154.178 70.8076 153.809 71.0449C153.123 71.458 152.438 71.6777 151.849 71.6777C150.979 71.6777 150.214 71.3086 149.528 70.5791C148.86 69.8496 148.535 68.7773 148.535 67.3447C148.535 66.2549 148.764 65.2266 149.186 64.3652C149.59 63.5215 150.214 62.7656 150.899 62.2646C151.629 61.7461 152.561 61.4824 153.615 61.4824C153.914 61.4824 154.389 61.5 154.96 61.5615L155.153 61.5879H155.145C155.215 61.5967 155.285 61.6055 155.329 61.6055H157.184V68.4082C157.184 69.8936 157.157 70.8779 157.113 71.2646C157.087 71.5811 157.008 71.9766 156.902 72.3545C156.656 73.2158 156.094 73.9805 155.259 74.4814C154.424 74.9824 153.422 75.2285 152.271 75.2285C151.102 75.2285 149.862 74.9121 148.57 74.2617V71.8799C149.3 72.3633 150.012 72.75 150.609 72.9697C151.216 73.1719 151.796 73.2949 152.332 73.2949C153.158 73.2949 153.94 73.0225 154.406 72.5479C154.626 72.3105 154.784 72.0381 154.854 71.7217C154.934 71.3701 154.986 70.9131 154.986 70.3242ZM154.986 67.1338V63.5566C154.564 63.4688 154.169 63.4248 153.817 63.4248C153.018 63.4248 152.271 63.8115 151.708 64.4004V64.3916C151.172 65.0508 150.864 65.9912 150.864 67.1338C150.864 67.9688 151.022 68.5928 151.304 68.9971C151.576 69.3574 151.884 69.5508 152.2 69.5508C152.604 69.5508 153.053 69.3398 153.562 68.9092C154.107 68.4609 154.573 67.8633 154.986 67.1338Z" fill="#A5D6FF" style="fill:#A5D6FF;fill:color(display-p3 0.6471 0.8392 1.0000);fill-opacity:1;"/>
<path d="M144.079 61.6055H146.268V71.4229H144.079V70.0869C143.147 71.1328 142.031 71.6777 140.959 71.6777C140.361 71.6777 139.808 71.5283 139.307 71.2031C138.806 70.8604 138.445 70.4385 138.243 69.9023C138.059 69.4014 137.971 68.4521 137.971 67.0547V61.6055H140.159V67.2393C140.159 68.083 140.194 68.6279 140.265 68.8828C140.335 69.0762 140.467 69.2783 140.625 69.4102C140.792 69.542 140.968 69.6035 141.161 69.6035C141.601 69.6035 142.102 69.3662 142.664 68.9268L142.655 68.9355C143.209 68.4785 143.684 67.8809 144.079 67.1777V61.6055Z" fill="#A5D6FF" style="fill:#A5D6FF;fill:color(display-p3 0.6471 0.8392 1.0000);fill-opacity:1;"/>
<path d="M134.754 71.4229H129.7V59.4785H126.958V57.5361H131.889V69.4893H134.754V71.4229Z" fill="#A5D6FF" style="fill:#A5D6FF;fill:color(display-p3 0.6471 0.8392 1.0000);fill-opacity:1;"/>
<path d="M118.529 61.6055V62.9678C118.89 62.5811 119.312 62.2207 119.707 61.9834C120.393 61.5703 121.069 61.3506 121.667 61.3506C122.537 61.3506 123.302 61.7197 123.987 62.4492C124.646 63.1611 124.989 64.2334 124.989 65.6836C124.989 66.7734 124.761 67.8018 124.33 68.6719C123.917 69.5244 123.319 70.2715 122.607 70.7725C121.878 71.2998 120.981 71.5459 119.892 71.5459C119.602 71.5459 119.136 71.5283 118.556 71.4668C118.556 71.4668 118.556 71.458 118.529 71.458V74.9824H116.341V61.6055H118.529ZM118.529 65.8945V69.4717C118.951 69.5596 119.373 69.6035 119.716 69.6035C120.472 69.6035 121.254 69.1729 121.799 68.6455C122.335 67.9863 122.66 67.0107 122.66 65.8945C122.66 65.0596 122.502 64.4268 122.212 64.0312C121.931 63.6709 121.623 63.4775 121.307 63.4775C120.938 63.4775 120.401 63.75 119.953 64.1191C119.443 64.5674 118.942 65.165 118.529 65.8945Z" fill="#A5D6FF" style="fill:#A5D6FF;fill:color(display-p3 0.6471 0.8392 1.0000);fill-opacity:1;"/>
<path d="M113.37 66.8174H106.216V64.8486H113.37V66.8174Z" fill="#A5D6FF" style="fill:#A5D6FF;fill:color(display-p3 0.6471 0.8392 1.0000);fill-opacity:1;"/>
<path d="M103.14 68.8125V70.9395C102.252 71.2998 101.646 71.5371 101.312 71.5811C100.995 71.6426 100.661 71.6777 100.318 71.6777C99.6328 71.6777 99.0088 71.5371 98.4287 71.2822C97.8311 71.001 97.374 70.5791 97.0752 70.0518C96.7676 69.5244 96.627 68.7158 96.627 67.6523V64.3037H94.3418V62.3701H96.627V58.6787H98.8154V62.3701H102.885V64.3037H98.8154V67.626C98.8154 68.3027 98.8945 68.7773 99.0352 69.041L99.0264 69.0322C99.1582 69.252 99.3604 69.4365 99.5801 69.5596C99.8262 69.665 100.143 69.7441 100.477 69.7441C101.162 69.7441 102.05 69.4277 103.14 68.8125Z" fill="#A5D6FF" style="fill:#A5D6FF;fill:color(display-p3 0.6471 0.8392 1.0000);fill-opacity:1;"/>
<path d="M86.2031 71.4229H84.0146V61.6055H86.2031V62.9238C86.5371 62.5371 86.8799 62.2471 87.2754 61.9922C87.9346 61.5615 88.6113 61.3506 89.3057 61.3506C89.9209 61.3506 90.4746 61.5088 90.9668 61.834C91.4678 62.168 91.8369 62.6074 92.0303 63.126C92.2148 63.627 92.3115 64.585 92.3115 65.9736V71.4229H90.1143V65.7891C90.1143 64.9541 90.0791 64.4092 90.0088 64.1543C89.9385 63.9434 89.8154 63.75 89.6484 63.627C89.4814 63.4863 89.3057 63.4248 89.1211 63.4248C88.6641 63.4248 88.1543 63.6445 87.6094 64.1016C87.0557 64.5586 86.5986 65.1475 86.2031 65.8506V71.4229Z" fill="#A5D6FF" style="fill:#A5D6FF;fill:color(display-p3 0.6471 0.8392 1.0000);fill-opacity:1;"/>
<path d="M80.499 71.4229H75.7529V63.5391H73.2129V61.6055H77.9414V69.4893H80.499V71.4229ZM75.498 58.6348C75.498 58.1865 75.6826 57.835 75.9902 57.5977C76.2715 57.3867 76.5791 57.2812 76.8428 57.2812C77.1328 57.2812 77.4404 57.3867 77.7217 57.5977C78.0293 57.835 78.2051 58.1865 78.2051 58.6348C78.2051 59.083 78.0293 59.4258 77.7217 59.6631C77.4316 59.8828 77.124 59.9883 76.8428 59.9883C76.5615 59.9883 76.2715 59.8828 75.9902 59.6631C75.6826 59.4258 75.498 59.083 75.498 58.6348Z" fill="#A5D6FF" style="fill:#A5D6FF;fill:color(display-p3 0.6471 0.8392 1.0000);fill-opacity:1;"/>
<path d="M69.8906 71.4229H64.8369V59.4785H62.0947V57.5361H67.0254V69.4893H69.8906V71.4229Z" fill="#A5D6FF" style="fill:#A5D6FF;fill:color(display-p3 0.6471 0.8392 1.0000);fill-opacity:1;"/>
<path d="M51.6973 70.834V68.3643C52.6377 68.9971 53.4199 69.3662 54.0439 69.5244L54.0352 69.5156C54.6943 69.6562 55.2393 69.7441 55.7051 69.7441C56.3818 69.7441 56.8916 69.6299 57.1729 69.4365C57.4102 69.252 57.542 69.0146 57.542 68.7686C57.542 68.6016 57.4893 68.4697 57.3926 68.3555V68.3643C57.2607 68.2324 56.9004 68.0391 56.3291 67.8105H56.3379L55.8193 67.5996L54.7559 67.1777C53.7012 66.7559 52.7871 66.2461 52.4707 65.8506C52.1455 65.4287 51.9521 64.8662 51.9521 64.2686C51.9521 63.4248 52.2686 62.7129 52.9365 62.168C53.5781 61.6318 54.5977 61.3506 55.9775 61.3506C56.9707 61.3506 58.0078 61.5176 59.0977 61.8779V63.9785C57.8057 63.5127 56.751 63.2842 55.9248 63.2842C55.3359 63.2842 54.8965 63.3896 54.5801 63.583C54.334 63.7324 54.2021 63.9258 54.2021 64.1455C54.2021 64.3564 54.3076 64.5146 54.5186 64.6465C54.7998 64.8135 55.3096 65.0508 55.9775 65.2881L56.6982 65.5518H56.6895L57.0059 65.666C57.9902 66.0264 58.6934 66.4307 59.124 66.8789C59.5811 67.3535 59.8008 67.9336 59.8008 68.6191C59.8008 69.5332 59.458 70.2539 58.7637 70.8252C58.0957 71.3877 57.0498 71.6777 55.6348 71.6777C54.4131 71.6777 53.1035 71.3965 51.6973 70.834Z" fill="#A5D6FF" style="fill:#A5D6FF;fill:color(display-p3 0.6471 0.8392 1.0000);fill-opacity:1;"/>
<path d="M49.0518 68.5137V70.7021C47.6631 71.3613 46.3975 71.6865 45.2637 71.6865C43.4795 71.6865 42.0381 70.7725 41.1855 69.1289C40.7812 68.3291 40.5703 67.4502 40.5703 66.5361C40.5703 65.6572 40.7725 64.8047 41.1592 63.9785C41.5547 63.1611 42.126 62.502 42.8379 62.0449C43.5498 61.5791 44.3408 61.3506 45.2461 61.3506C46.4238 61.3506 47.3818 61.79 48.1025 62.6338C48.7969 63.4688 49.1836 64.7783 49.1836 66.4307V67.0986H42.8906C42.9258 67.5469 43.0488 67.9688 43.2334 68.3555C43.4795 68.8125 43.7871 69.1641 44.1562 69.3926H44.1475C44.5342 69.6211 44.9648 69.7441 45.457 69.7441C46.3623 69.7441 47.5752 69.3311 49.0518 68.5137ZM46.8545 65.2881V65.4111V65.4551L47.0303 65.2881H46.8545ZM43.0488 65.2881H46.8545C46.8457 64.6904 46.6787 64.1895 46.3799 63.8379C46.0898 63.4688 45.6855 63.2842 45.1758 63.2842C44.1914 63.2842 43.418 63.9434 43.0488 65.2881Z" fill="#A5D6FF" style="fill:#A5D6FF;fill:color(display-p3 0.6471 0.8392 1.0000);fill-opacity:1;"/>
<path d="M163.327 33.2725L166.403 36.665H164.074L160.506 33.2725H163.327Z" fill="#A5D6FF" style="fill:#A5D6FF;fill:color(display-p3 0.6471 0.8392 1.0000);fill-opacity:1;"/>
<path d="M153.861 41.209H153.853C153.668 41.4111 153.475 41.5781 153.149 41.7803C153.431 41.9648 153.668 42.1582 153.853 42.3428C154.116 42.6416 154.318 42.9492 154.459 43.248C154.582 43.5645 154.67 43.9512 154.67 44.3291C154.67 44.6895 154.617 45.1377 154.512 45.6387L154.301 46.5879C154.195 47.0889 154.134 47.4844 154.134 47.6777C154.134 47.9238 154.222 48.1172 154.415 48.2842C154.617 48.4775 155.092 48.5654 155.821 48.5654H157.456V50.5342H155.804C154.222 50.5342 153.132 50.2266 152.604 49.6729C152.156 49.1455 151.857 48.46 151.857 47.792C151.857 47.4141 151.901 47.0449 151.98 46.667L152.147 45.999L152.139 46.0078L152.209 45.6123C152.235 45.498 152.262 45.3926 152.279 45.2783L152.376 44.8389C152.42 44.6279 152.438 44.4521 152.438 44.2939C152.438 43.8721 152.297 43.5205 151.998 43.2041C151.717 42.9053 151.181 42.7559 150.416 42.7559H149.326V40.7783H150.416C151.181 40.7783 151.717 40.6289 152.007 40.3389C152.297 40.0488 152.438 39.6885 152.438 39.2227C152.438 39.0645 152.42 38.8887 152.385 38.7217L152.394 38.7305L152.279 38.2822L152.147 37.5439C152.104 37.3242 152.033 37.0957 151.98 36.876C151.901 36.4893 151.857 36.1201 151.857 35.7422C151.857 35.083 152.156 34.3975 152.604 33.8701C153.132 33.3164 154.222 33 155.804 33H157.456V34.9775H155.821C155.101 34.9775 154.626 35.0654 154.424 35.2588C154.23 35.4258 154.134 35.6367 154.134 35.874C154.134 36.0586 154.195 36.4541 154.301 36.9551L154.512 37.9043C154.608 38.3965 154.67 38.8535 154.67 39.2139C154.67 40.04 154.415 40.6201 153.861 41.209Z" fill="#E6EDF3" style="fill:#E6EDF3;fill:color(display-p3 0.9020 0.9294 0.9529);fill-opacity:1;"/>
<path d="M137.338 40.1367H147.085V42.1143H137.338V40.1367ZM137.338 43.0547H147.085V45.0234H137.338V43.0547Z" fill="#E6EDF3" style="fill:#E6EDF3;fill:color(display-p3 0.9020 0.9294 0.9529);fill-opacity:1;"/>
<path d="M127.371 46.834V44.3643C128.312 44.9971 129.094 45.3662 129.718 45.5244L129.709 45.5156C130.368 45.6562 130.913 45.7441 131.379 45.7441C132.056 45.7441 132.565 45.6299 132.847 45.4365C133.084 45.252 133.216 45.0146 133.216 44.7686C133.216 44.6016 133.163 44.4697 133.066 44.3555V44.3643C132.935 44.2324 132.574 44.0391 132.003 43.8105H132.012L131.493 43.5996L130.43 43.1777C129.375 42.7559 128.461 42.2461 128.145 41.8506C127.819 41.4287 127.626 40.8662 127.626 40.2686C127.626 39.4248 127.942 38.7129 128.61 38.168C129.252 37.6318 130.271 37.3506 131.651 37.3506C132.645 37.3506 133.682 37.5176 134.771 37.8779V39.9785C133.479 39.5127 132.425 39.2842 131.599 39.2842C131.01 39.2842 130.57 39.3896 130.254 39.583C130.008 39.7324 129.876 39.9258 129.876 40.1455C129.876 40.3564 129.981 40.5146 130.192 40.6465C130.474 40.8135 130.983 41.0508 131.651 41.2881L132.372 41.5518H132.363L132.68 41.666C133.664 42.0264 134.367 42.4307 134.798 42.8789C135.255 43.3535 135.475 43.9336 135.475 44.6191C135.475 45.5332 135.132 46.2539 134.438 46.8252C133.77 47.3877 132.724 47.6777 131.309 47.6777C130.087 47.6777 128.777 47.3965 127.371 46.834Z" fill="#FFA657" style="fill:#FFA657;fill:color(display-p3 1.0000 0.6510 0.3412);fill-opacity:1;"/>
<path d="M116.561 46.834V44.3643C117.501 44.9971 118.283 45.3662 118.907 45.5244L118.898 45.5156C119.558 45.6562 120.103 45.7441 120.568 45.7441C121.245 45.7441 121.755 45.6299 122.036 45.4365C122.273 45.252 122.405 45.0146 122.405 44.7686C122.405 44.6016 122.353 44.4697 122.256 44.3555V44.3643C122.124 44.2324 121.764 44.0391 121.192 43.8105H121.201L120.683 43.5996L119.619 43.1777C118.564 42.7559 117.65 42.2461 117.334 41.8506C117.009 41.4287 116.815 40.8662 116.815 40.2686C116.815 39.4248 117.132 38.7129 117.8 38.168C118.441 37.6318 119.461 37.3506 120.841 37.3506C121.834 37.3506 122.871 37.5176 123.961 37.8779V39.9785C122.669 39.5127 121.614 39.2842 120.788 39.2842C120.199 39.2842 119.76 39.3896 119.443 39.583C119.197 39.7324 119.065 39.9258 119.065 40.1455C119.065 40.3564 119.171 40.5146 119.382 40.6465C119.663 40.8135 120.173 41.0508 120.841 41.2881L121.562 41.5518H121.553L121.869 41.666C122.854 42.0264 123.557 42.4307 123.987 42.8789C124.444 43.3535 124.664 43.9336 124.664 44.6191C124.664 45.5332 124.321 46.2539 123.627 46.8252C122.959 47.3877 121.913 47.6777 120.498 47.6777C119.276 47.6777 117.967 47.3965 116.561 46.834Z" fill="#FFA657" style="fill:#FFA657;fill:color(display-p3 1.0000 0.6510 0.3412);fill-opacity:1;"/>
<path d="M112.148 47.4229L111.981 47.2998C111.876 46.8691 111.797 46.4209 111.735 45.9287C111.357 46.377 110.918 46.7725 110.479 47.0449C109.775 47.458 109.099 47.6777 108.519 47.6777C107.648 47.6777 106.875 47.3086 106.198 46.5791C105.53 45.8584 105.205 44.7861 105.205 43.3447C105.205 42.2373 105.425 41.2354 105.838 40.3652C106.26 39.4951 106.866 38.7744 107.561 38.2646C108.29 37.7461 109.222 37.4824 110.276 37.4824C110.584 37.4824 111.059 37.5 111.621 37.5615C111.691 37.5615 111.735 37.5703 111.797 37.5791L111.981 37.6055H113.854V44.3994C113.854 45.4541 114.012 46.4561 114.328 47.4229H112.148ZM111.656 43.1338V39.5566C111.234 39.4688 110.83 39.4248 110.479 39.4248C109.679 39.4248 108.923 39.8115 108.378 40.4004V40.3916C107.833 41.0508 107.525 42 107.525 43.1338C107.525 43.9863 107.684 44.6016 107.965 45.0059V44.9971C108.246 45.3662 108.545 45.5508 108.87 45.5508C109.257 45.5508 109.731 45.3398 110.232 44.9092C110.742 44.4609 111.234 43.8633 111.656 43.1338Z" fill="#FFA657" style="fill:#FFA657;fill:color(display-p3 1.0000 0.6510 0.3412);fill-opacity:1;"/>
<path d="M102.322 47.4229H97.2686V35.4785H94.5264V33.5361H99.457V45.4893H102.322V47.4229Z" fill="#FFA657" style="fill:#FFA657;fill:color(display-p3 1.0000 0.6510 0.3412);fill-opacity:1;"/>
<path d="M92.3818 44.8916V47.0537C91.1689 47.4756 90.0879 47.6777 89.1387 47.6777C86.2207 47.6953 84.0586 45.4541 84.0937 42.5186C84.0937 41.0508 84.5771 39.8115 85.5439 38.8271C86.5107 37.8428 87.6885 37.3506 89.0596 37.3506C90.0176 37.3506 91.1338 37.5615 92.3818 37.9834V40.1982C91.0547 39.6006 89.9912 39.2842 89.1914 39.2842C88.708 39.2842 88.2334 39.416 87.7852 39.6797C87.3545 39.917 87.0205 40.2949 86.7832 40.8047C86.5283 41.332 86.4228 41.9033 86.4228 42.457C86.4228 43.2393 86.6514 43.96 87.1172 44.6367C87.5654 45.2871 88.2949 45.6035 89.2881 45.6035C89.5781 45.6035 89.9121 45.5859 90.2197 45.542C90.5185 45.498 91.2656 45.2695 92.3818 44.8916Z" fill="#FFA657" style="fill:#FFA657;fill:color(display-p3 1.0000 0.6510 0.3412);fill-opacity:1;"/>
<path d="M66.498 47.8955C65.083 47.8955 63.958 47.3945 63.0967 46.4102C62.2705 45.4258 61.8398 44.2041 61.8398 42.7275C61.8398 41.251 62.2705 40.0205 63.0967 39.0537C63.958 38.0605 65.0918 37.5684 66.498 37.5684C67.9043 37.5684 69.0293 38.0693 69.8906 39.0537C70.7168 40.0117 71.1475 41.251 71.1475 42.7275C71.1475 44.2041 70.7168 45.4346 69.8906 46.4102C69.0293 47.3945 67.9043 47.8955 66.498 47.8955ZM66.498 45.9619C67.2012 45.9619 67.7549 45.6895 68.1768 45.1357C68.6074 44.5645 68.8271 43.7559 68.8271 42.7275C68.8271 41.708 68.6074 40.8994 68.1768 40.3281C67.7549 39.7744 67.2012 39.502 66.498 39.502C65.7949 39.502 65.2324 39.7744 64.8105 40.3281C64.3799 40.8994 64.1602 41.708 64.1602 42.7275C64.1602 43.7559 64.3799 44.5645 64.8105 45.1357C65.2324 45.6895 65.7949 45.9619 66.498 45.9619Z" fill="#F85149" style="fill:#F85149;fill:color(display-p3 0.9725 0.3176 0.2863);fill-opacity:1;"/>
<path d="M57.6914 46.542V46.252C57.3486 46.6211 56.8828 47.0254 56.5137 47.2627C55.8281 47.6758 55.1426 47.8955 54.5537 47.8955C53.6836 47.8955 52.9189 47.5264 52.2334 46.7969C51.5654 46.0674 51.2402 44.9951 51.2402 43.5625C51.2402 42.4727 51.4688 41.4443 51.8906 40.583C52.2949 39.7393 52.9189 38.9834 53.6045 38.4824C54.334 37.9639 55.2656 37.7002 56.3203 37.7002C56.6191 37.7002 57.0938 37.7178 57.665 37.7793L57.8584 37.8057H57.8496C57.9199 37.8145 57.9902 37.8232 58.0342 37.8232H59.8887V44.626C59.8887 46.1113 59.8623 47.0957 59.8184 47.4824C59.792 47.7988 59.7129 48.1943 59.6074 48.5723C59.3613 49.4336 58.7988 50.1982 57.9639 50.6992C57.1289 51.2002 56.127 51.4463 54.9756 51.4463C53.8066 51.4463 52.5674 51.1299 51.2754 50.4795V48.0977C52.0049 48.5811 52.7168 48.9678 53.3145 49.1875C53.9209 49.3896 54.501 49.5127 55.0371 49.5127C55.8633 49.5127 56.6455 49.2402 57.1113 48.7656C57.3311 48.5283 57.4893 48.2559 57.5596 47.9395C57.6387 47.5879 57.6914 47.1309 57.6914 46.542ZM57.6914 43.3516V39.7744C57.2695 39.6865 56.874 39.6426 56.5225 39.6426C55.7227 39.6426 54.9756 40.0293 54.4131 40.6182V40.6094C53.877 41.2686 53.5693 42.209 53.5693 43.3516C53.5693 44.1865 53.7275 44.8105 54.0088 45.2148C54.2812 45.5752 54.5889 45.7686 54.9053 45.7686C55.3096 45.7686 55.7578 45.5576 56.2676 45.127C56.8125 44.6787 57.2783 44.0811 57.6914 43.3516Z" fill="#F85149" style="fill:#F85149;fill:color(display-p3 0.9725 0.3176 0.2863);fill-opacity:1;"/>
<path d="M44.877 47.8955C43.4619 47.8955 42.3369 47.3945 41.4756 46.4102C40.6494 45.4258 40.2188 44.2041 40.2188 42.7275C40.2188 41.251 40.6494 40.0205 41.4756 39.0537C42.3369 38.0605 43.4707 37.5684 44.877 37.5684C46.2832 37.5684 47.4082 38.0693 48.2695 39.0537C49.0957 40.0117 49.5264 41.251 49.5264 42.7275C49.5264 44.2041 49.0957 45.4346 48.2695 46.4102C47.4082 47.3945 46.2832 47.8955 44.877 47.8955ZM44.877 45.9619C45.5801 45.9619 46.1338 45.6895 46.5557 45.1357C46.9863 44.5645 47.2061 43.7559 47.2061 42.7275C47.2061 41.708 46.9863 40.8994 46.5557 40.3281C46.1338 39.7744 45.5801 39.502 44.877 39.502C44.1738 39.502 43.6113 39.7744 43.1895 40.3281C42.7588 40.8994 42.5391 41.708 42.5391 42.7275C42.5391 43.7559 42.7588 44.5645 43.1895 45.1357C43.6113 45.6895 44.1738 45.9619 44.877 45.9619Z" fill="#F85149" style="fill:#F85149;fill:color(display-p3 0.9725 0.3176 0.2863);fill-opacity:1;"/>
<path d="M32.8359 45.5312H38.1533V47.6406H30.4717V34H32.8359V45.5312Z" fill="#F85149" style="fill:#F85149;fill:color(display-p3 0.9725 0.3176 0.2863);fill-opacity:1;"/>
<path d="M28.1689 47.8604L18 42.7627L28.1689 37.6914V39.8975L22.4033 42.7539L24.6533 43.8965L28.1689 45.6719V47.8604Z" fill="#F85149" style="fill:#F85149;fill:color(display-p3 0.9725 0.3176 0.2863);fill-opacity:1;"/>
</svg>
