<svg width="204" height="81" viewBox="0 0 204 81" fill="none" xmlns="http://www.w3.org/2000/svg">
<path d="M199.043 37.7628V36.2304C198.665 36.6377 198.151 37.0839 197.743 37.3457C196.987 37.8016 196.23 38.044 195.581 38.044C194.62 38.044 193.777 37.6367 193.02 36.8317C192.283 36.0267 191.924 34.8435 191.924 33.2627C191.924 32.0601 192.176 30.9253 192.642 29.9749C193.088 29.0438 193.777 28.2098 194.533 27.6569C195.338 27.0847 196.366 26.7938 197.53 26.7938C197.86 26.7938 198.374 26.8132 199.004 26.8811C199.004 26.8811 199.014 26.8908 199.043 26.8908V22.4392H201.468V37.7628H199.043ZM199.043 33.0299V29.0826C198.577 28.9856 198.141 28.9371 197.753 28.9371C196.871 28.9371 196.046 29.3639 195.425 30.0137V30.004C194.834 30.7314 194.494 31.7691 194.494 33.0299C194.494 33.9513 194.669 34.6399 194.979 35.086C195.28 35.4836 195.619 35.697 195.969 35.697C196.415 35.697 196.909 35.4642 197.472 34.989C198.073 34.4944 198.587 33.8349 199.043 33.0299Z" fill="white" style="fill:white;fill:white;fill-opacity:1;"/>
<path d="M182.788 37.7628H180.374V26.9296H182.788V28.3843C183.157 27.9576 183.535 27.6375 183.972 27.3563C184.699 26.8811 185.446 26.6483 186.212 26.6483C186.891 26.6483 187.502 26.8229 188.045 27.1817C188.598 27.5503 189.005 28.0352 189.219 28.6074C189.422 29.1602 189.529 30.2173 189.529 31.7497V37.7628H187.104V31.546C187.104 30.6247 187.065 30.0234 186.988 29.7421C186.91 29.5094 186.775 29.296 186.59 29.1602C186.406 29.005 186.212 28.9371 186.008 28.9371C185.504 28.9371 184.942 29.1796 184.34 29.6839C183.729 30.1882 183.225 30.838 182.788 31.6139V37.7628Z" fill="white" style="fill:white;fill:white;fill-opacity:1;"/>
<path d="M176.494 37.7628H171.257V29.0632H168.454V26.9296H173.672V35.6291H176.494V37.7628ZM170.976 23.6515C170.976 23.1568 171.179 22.7689 171.519 22.507C171.829 22.2743 172.169 22.1579 172.46 22.1579C172.78 22.1579 173.119 22.2743 173.429 22.507C173.769 22.7689 173.963 23.1568 173.963 23.6515C173.963 24.1461 173.769 24.5243 173.429 24.7862C173.109 25.0287 172.77 25.145 172.46 25.145C172.149 25.145 171.829 25.0287 171.519 24.7862C171.179 24.5243 170.976 24.1461 170.976 23.6515Z" fill="white" style="fill:white;fill:white;fill-opacity:1;"/>
<path d="M159.221 37.7628H156.99L155.225 26.9296H157.534L158.465 32.8262L160.016 26.9296H162.082L163.847 32.9135L164.798 26.9296H166.844L165.089 37.7628H162.926L160.938 31.129L159.221 37.7628Z" fill="white" style="fill:white;fill:white;fill-opacity:1;"/>
<path d="M152.859 37.7628H147.282V24.5825H144.256V22.4392H149.697V35.6291H152.859V37.7628Z" fill="white" style="fill:white;fill:white;fill-opacity:1;"/>
<path d="M140.707 37.7628H135.469V29.0632H132.667V26.9296H137.884V35.6291H140.707V37.7628ZM135.188 23.6515C135.188 23.1568 135.392 22.7689 135.731 22.507C136.042 22.2743 136.381 22.1579 136.672 22.1579C136.992 22.1579 137.332 22.2743 137.642 22.507C137.981 22.7689 138.175 23.1568 138.175 23.6515C138.175 24.1461 137.981 24.5243 137.642 24.7862C137.322 25.0287 136.982 25.145 136.672 25.145C136.362 25.145 136.042 25.0287 135.731 24.7862C135.392 24.5243 135.188 24.1461 135.188 23.6515Z" fill="white" style="fill:white;fill:white;fill-opacity:1;"/>
<path d="M127.914 37.7628L127.73 37.627C127.614 37.1518 127.526 36.6571 127.459 36.114C127.042 36.6086 126.557 37.0451 126.072 37.3457C125.296 37.8016 124.549 38.044 123.909 38.044C122.949 38.044 122.095 37.6367 121.348 36.8317C120.611 36.0364 120.253 34.8532 120.253 33.2627C120.253 32.0407 120.495 30.935 120.951 29.9749C121.416 29.0147 122.086 28.2195 122.852 27.6569C123.657 27.0847 124.685 26.7938 125.849 26.7938C126.188 26.7938 126.712 26.8132 127.332 26.8811C127.41 26.8811 127.459 26.8908 127.526 26.9005L127.73 26.9296H129.796V34.4265C129.796 35.5903 129.97 36.6959 130.32 37.7628H127.914ZM127.371 33.0299V29.0826C126.906 28.9856 126.46 28.9371 126.072 28.9371C125.189 28.9371 124.355 29.3639 123.754 30.0137V30.004C123.152 30.7314 122.813 31.7788 122.813 33.0299C122.813 33.9707 122.988 34.6496 123.298 35.0957V35.086C123.608 35.4933 123.938 35.697 124.297 35.697C124.724 35.697 125.247 35.4642 125.8 34.989C126.363 34.4944 126.906 33.8349 127.371 33.0299Z" fill="white" style="fill:white;fill:white;fill-opacity:1;"/>
<path d="M117.973 34.8823V37.2294C116.994 37.627 116.325 37.8888 115.956 37.9373C115.607 38.0052 115.238 38.044 114.86 38.044C114.104 38.044 113.415 37.8888 112.775 37.6076C112.115 37.2972 111.611 36.8317 111.281 36.2498C110.942 35.6679 110.787 34.7756 110.787 33.6021V29.907H108.265V27.7733H110.787V23.7H113.202V27.7733H117.692V29.907H113.202V33.573C113.202 34.3198 113.289 34.8435 113.444 35.1345L113.434 35.1248C113.58 35.3672 113.803 35.5709 114.045 35.7067C114.317 35.8231 114.666 35.9104 115.035 35.9104C115.791 35.9104 116.771 35.5612 117.973 34.8823Z" fill="white" style="fill:white;fill:white;fill-opacity:1;"/>
<path d="M105.404 32.6808H97.5096V30.5083H105.404V32.6808Z" fill="white" style="fill:white;fill:white;fill-opacity:1;"/>
<path d="M94.0763 34.5526V36.9675C92.544 37.6949 91.1474 38.0537 89.8963 38.0537C87.9275 38.0537 86.3369 37.0451 85.3962 35.2315C84.95 34.3489 84.7173 33.3791 84.7173 32.3704C84.7173 31.4006 84.9404 30.4598 85.3671 29.5481C85.8035 28.6462 86.4339 27.9188 87.2195 27.4145C88.0051 26.9005 88.8779 26.6483 89.8769 26.6483C91.1765 26.6483 92.2336 27.1332 93.0289 28.0643C93.7951 28.9856 94.2218 30.4307 94.2218 32.254V32.9911H87.2777C87.3165 33.4857 87.4523 33.9513 87.6559 34.378C87.9275 34.8823 88.2669 35.2703 88.6743 35.5224H88.6646C89.0913 35.7746 89.5665 35.9104 90.1096 35.9104C91.1086 35.9104 92.447 35.4545 94.0763 34.5526ZM91.6517 30.9932V31.129V31.1775L91.8457 30.9932H91.6517ZM87.4523 30.9932H91.6517C91.642 30.3337 91.4577 29.7809 91.128 29.393C90.8079 28.9856 90.3618 28.782 89.7993 28.782C88.7131 28.782 87.8596 29.5094 87.4523 30.9932Z" fill="white" style="fill:white;fill:white;fill-opacity:1;"/>
<path d="M81.284 37.7628H75.7074V24.5825H72.6815V22.4392H78.1223V35.6291H81.284V37.7628Z" fill="white" style="fill:white;fill:white;fill-opacity:1;"/>
<path d="M63.3806 22.4392V28.4328C63.7783 28.0061 64.2438 27.6084 64.6802 27.3466C65.4367 26.8908 66.1835 26.6483 66.843 26.6483C67.8031 26.6483 68.6469 27.0556 69.4034 27.8606C70.1308 28.6462 70.509 29.8294 70.509 31.4297C70.509 32.6323 70.2568 33.767 69.7816 34.7271C69.3258 35.6679 68.6663 36.4923 67.8807 37.0451C67.0757 37.627 66.0865 37.8985 64.8839 37.8985C64.5541 37.8985 64.0498 37.8791 63.4 37.8113L63.1867 37.7822C63.1188 37.7725 63.0509 37.7628 63.0121 37.7628H60.9657V22.4392H63.3806ZM63.3806 31.6624V35.6097C63.8461 35.7067 64.3117 35.7552 64.6899 35.7552C65.524 35.7552 66.3872 35.28 66.9885 34.698C67.5801 33.9707 67.9389 32.8941 67.9389 31.6624C67.9389 30.7411 67.7643 30.0428 67.4443 29.6063C67.1339 29.2087 66.7945 28.9953 66.4453 28.9953C66.038 28.9953 65.4464 29.296 64.9518 29.7033C64.3893 30.1979 63.8365 30.8574 63.3806 31.6624Z" fill="white" style="fill:white;fill:white;fill-opacity:1;"/>
<path d="M56.3395 37.7628L56.1552 37.627C56.0388 37.1518 55.9515 36.6571 55.8837 36.114C55.4666 36.6086 54.9817 37.0451 54.4968 37.3457C53.7209 37.8016 52.9741 38.044 52.334 38.044C51.3739 38.044 50.5204 37.6367 49.7736 36.8317C49.0365 36.0364 48.6777 34.8532 48.6777 33.2627C48.6777 32.0407 48.9201 30.935 49.376 29.9749C49.8415 29.0147 50.5107 28.2195 51.2769 27.6569C52.0818 27.0847 53.1099 26.7938 54.2737 26.7938C54.6131 26.7938 55.1369 26.8132 55.7576 26.8811C55.8352 26.8811 55.8837 26.8908 55.9515 26.9005L56.1552 26.9296H58.221V34.4265C58.221 35.5903 58.3956 36.6959 58.7447 37.7628H56.3395ZM55.7964 33.0299V29.0826C55.3308 28.9856 54.8847 28.9371 54.4968 28.9371C53.6142 28.9371 52.7801 29.3639 52.1788 30.0137V30.004C51.5775 30.7314 51.2381 31.7788 51.2381 33.0299C51.2381 33.9707 51.4126 34.6496 51.723 35.0957V35.086C52.0334 35.4933 52.3631 35.697 52.7219 35.697C53.1487 35.697 53.6724 35.4642 54.2252 34.989C54.7877 34.4944 55.3308 33.8349 55.7964 33.0299Z" fill="white" style="fill:white;fill:white;fill-opacity:1;"/>
<path d="M43.9642 37.7628V36.2304C43.586 36.6377 43.0719 37.0839 42.6646 37.3457C41.9081 37.8016 41.1516 38.044 40.5018 38.044C39.5417 38.044 38.6979 37.6367 37.9414 36.8317C37.2044 36.0267 36.8455 34.8435 36.8455 33.2627C36.8455 32.0601 37.0977 30.9253 37.5632 29.9749C38.0093 29.0438 38.6979 28.2098 39.4544 27.6569C40.2594 27.0847 41.2874 26.7938 42.4512 26.7938C42.781 26.7938 43.295 26.8132 43.9254 26.8811C43.9254 26.8811 43.9351 26.8908 43.9642 26.8908V22.4392H46.3888V37.7628H43.9642ZM43.9642 33.0299V29.0826C43.4987 28.9856 43.0623 28.9371 42.6743 28.9371C41.7917 28.9371 40.9674 29.3639 40.3467 30.0137V30.004C39.7551 30.7314 39.4156 31.7691 39.4156 33.0299C39.4156 33.9513 39.5902 34.6399 39.9005 35.086C40.2012 35.4836 40.5406 35.697 40.8898 35.697C41.3359 35.697 41.8305 35.4642 42.3931 34.989C42.9944 34.4944 43.5084 33.8349 43.9642 33.0299Z" fill="white" style="fill:white;fill:white;fill-opacity:1;"/>
<path d="M32.4811 37.7628L32.2969 37.627C32.1805 37.1518 32.0932 36.6571 32.0253 36.114C31.6083 36.6086 31.1234 37.0451 30.6384 37.3457C29.8626 37.8016 29.1158 38.044 28.4757 38.044C27.5155 38.044 26.662 37.6367 25.9153 36.8317C25.1782 36.0364 24.8193 34.8532 24.8193 33.2627C24.8193 32.0407 25.0618 30.935 25.5176 29.9749C25.9832 29.0147 26.6524 28.2195 27.4185 27.6569C28.2235 27.0847 29.2515 26.7938 30.4154 26.7938C30.7548 26.7938 31.2785 26.8132 31.8992 26.8811C31.9768 26.8811 32.0253 26.8908 32.0932 26.9005L32.2969 26.9296H34.3626V34.4265C34.3626 35.5903 34.5372 36.6959 34.8864 37.7628H32.4811ZM31.938 33.0299V29.0826C31.4725 28.9856 31.0264 28.9371 30.6384 28.9371C29.7559 28.9371 28.9218 29.3639 28.3205 30.0137V30.004C27.7192 30.7314 27.3797 31.7788 27.3797 33.0299C27.3797 33.9707 27.5543 34.6496 27.8647 35.0957V35.086C28.175 35.4933 28.5048 35.697 28.8636 35.697C29.2903 35.697 29.8141 35.4642 30.3669 34.989C30.9294 34.4944 31.4725 33.8349 31.938 33.0299Z" fill="white" style="fill:white;fill:white;fill-opacity:1;"/>
<path d="M22.5015 34.5526V36.9675C20.9691 37.6949 19.5726 38.0537 18.3214 38.0537C16.3527 38.0537 14.7621 37.0451 13.8214 35.2315C13.3752 34.3489 13.1425 33.3791 13.1425 32.3704C13.1425 31.4006 13.3655 30.4598 13.7923 29.5481C14.2287 28.6462 14.8591 27.9188 15.6447 27.4145C16.4302 26.9005 17.3031 26.6483 18.3021 26.6483C19.6017 26.6483 20.6588 27.1332 21.4541 28.0643C22.2202 28.9856 22.647 30.4307 22.647 32.254V32.9911H15.7029C15.7417 33.4857 15.8774 33.9513 16.0811 34.378C16.3527 34.8823 16.6921 35.2703 17.0994 35.5224H17.0897C17.5165 35.7746 17.9917 35.9104 18.5348 35.9104C19.5338 35.9104 20.8722 35.4545 22.5015 34.5526ZM20.0769 30.9932V31.129V31.1775L20.2708 30.9932H20.0769ZM15.8774 30.9932H20.0769C20.0672 30.3337 19.8829 29.7809 19.5532 29.393C19.2331 28.9856 18.787 28.782 18.2245 28.782C17.1382 28.782 16.2848 29.5094 15.8774 30.9932Z" fill="white" style="fill:white;fill:white;fill-opacity:1;"/>
<path d="M4.73383 37.7628H2.31891V26.9296H4.73383V28.4037C5.73278 27.3175 7.04207 26.6483 8.42896 26.6483C9.09815 26.6483 9.81584 26.7841 10.6208 27.0265V31.3133H8.27378V28.9565C8.1477 28.9371 8.03132 28.9371 7.97313 28.9371C6.8578 28.9371 5.79097 29.8391 4.73383 31.6236V37.7628Z" fill="white" style="fill:white;fill:white;fill-opacity:1;"/>
<path fill-rule="evenodd" clip-rule="evenodd" d="M6.56063 55.6284C5.70766 56.4753 4.64538 57 3.25 57C2.55964 57 2 56.2538 2 55.3333C2 54.4129 2.55964 53.6667 3.25 53.6667C4.12704 53.6667 4.66151 53.358 5.06746 52.9549C5.52304 52.5026 5.8791 51.8784 6.35827 51.0113C6.37091 50.9884 6.38365 50.9654 6.39649 50.9421C6.83269 50.1523 7.38817 49.1464 8.16853 48.3716C9.0215 47.5247 10.0838 47 11.4792 47C12.8745 47 13.9368 47.5247 14.7898 48.3716C15.5702 49.1464 16.1256 50.1523 16.5618 50.9421C16.5747 50.9654 16.5874 50.9884 16.6001 51.0113C17.0792 51.8784 17.4353 52.5026 17.8909 52.9549C18.2968 53.358 18.8313 53.6667 19.7083 53.6667C20.5854 53.6667 21.1198 53.358 21.5258 52.9549C21.9814 52.5026 22.3374 51.8784 22.8166 51.0113C22.8292 50.9885 22.842 50.9654 22.8548 50.9421C23.291 50.1523 23.8465 49.1464 24.6269 48.3716C25.4798 47.5247 26.5421 47 27.9375 47C29.3329 47 30.3952 47.5247 31.2481 48.3716C32.0285 49.1464 32.584 50.1523 33.0202 50.9421C33.033 50.9654 33.0458 50.9884 33.0584 51.0113C33.5376 51.8784 33.8936 52.5026 34.3492 52.9549C34.7552 53.358 35.2896 53.6667 36.1667 53.6667C37.0437 53.6667 37.5782 53.358 37.9841 52.9549C38.4397 52.5026 38.7958 51.8784 39.2749 51.0113C39.2876 50.9884 39.3003 50.9654 39.3132 50.9421C39.7494 50.1523 40.3048 49.1464 41.0852 48.3716C41.9382 47.5247 43.0005 47 44.3958 47C45.7912 47 46.8535 47.5247 47.7065 48.3716C48.4868 49.1464 49.0423 50.1523 49.4785 50.9421L49.5167 51.0113C49.9959 51.8784 50.352 52.5026 50.8075 52.9549C51.2135 53.358 51.748 53.6667 52.625 53.6667C53.502 53.6667 54.0365 53.358 54.4425 52.9549C54.898 52.5026 55.2541 51.8784 55.7333 51.0113L55.7715 50.9421C56.2077 50.1523 56.7632 49.1464 57.5435 48.3716C58.3965 47.5247 59.4588 47 60.8542 47C62.2495 47 63.3118 47.5247 64.1648 48.3716C64.9452 49.1464 65.5006 50.1523 65.9368 50.9421L65.9751 51.0113C66.4542 51.8784 66.8103 52.5026 67.2659 52.9549C67.6718 53.358 68.2063 53.6667 69.0833 53.6667C69.9604 53.6667 70.4948 53.358 70.9008 52.9549C71.3564 52.5026 71.7124 51.8784 72.1916 51.0113L72.2298 50.9421C72.666 50.1523 73.2215 49.1464 74.0019 48.3716C74.8548 47.5247 75.9171 47 77.3125 47C78.7079 47 79.7702 47.5247 80.6231 48.3716C81.4035 49.1464 81.959 50.1523 82.3952 50.9421L82.4334 51.0113C82.9126 51.8784 83.2686 52.5026 83.7242 52.9549C84.1302 53.358 84.6646 53.6667 85.5417 53.6667C86.4187 53.6667 86.9532 53.358 87.3591 52.9549C87.8147 52.5026 88.1708 51.8784 88.6499 51.0113L88.6881 50.9422C89.1243 50.1523 89.6798 49.1465 90.4602 48.3716C91.3132 47.5247 92.3755 47 93.7708 47C95.1662 47 96.2285 47.5247 97.0815 48.3716C97.8618 49.1464 98.4173 50.1523 98.8535 50.9421L98.8917 51.0113C99.3709 51.8784 99.727 52.5026 100.183 52.9549C100.588 53.358 101.123 53.6667 102 53.6667C102.877 53.6667 103.412 53.358 103.817 52.9549C104.273 52.5026 104.629 51.8784 105.108 51.0113L105.147 50.9421C105.583 50.1523 106.138 49.1464 106.919 48.3716C107.772 47.5247 108.834 47 110.229 47C111.625 47 112.687 47.5247 113.54 48.3716C114.32 49.1464 114.876 50.1523 115.312 50.9421L115.35 51.0113C115.829 51.8784 116.185 52.5026 116.641 52.9549C117.047 53.358 117.581 53.6667 118.458 53.6667C119.335 53.6667 119.87 53.358 120.276 52.9549C120.731 52.5026 121.087 51.8784 121.567 51.0113L121.605 50.9421C122.041 50.1523 122.597 49.1464 123.377 48.3716C124.23 47.5247 125.292 47 126.688 47C128.083 47 129.145 47.5247 129.998 48.3716C130.779 49.1465 131.334 50.1524 131.77 50.9422L131.808 51.0113C132.288 51.8784 132.644 52.5026 133.099 52.9549C133.505 53.358 134.04 53.6667 134.917 53.6667C135.794 53.6667 136.328 53.358 136.734 52.9549C137.19 52.5026 137.546 51.8784 138.025 51.0113L138.063 50.9421C138.499 50.1523 139.055 49.1464 139.835 48.3716C140.688 47.5247 141.75 47 143.146 47C144.541 47 145.603 47.5247 146.456 48.3716C147.237 49.1464 147.792 50.1523 148.229 50.9422L148.267 51.0113C148.746 51.8784 149.102 52.5026 149.558 52.9549C149.963 53.358 150.498 53.6667 151.375 53.6667C152.252 53.6667 152.787 53.358 153.192 52.9549C153.648 52.5026 154.004 51.8784 154.483 51.0113L154.521 50.9421C154.958 50.1523 155.513 49.1464 156.294 48.3716C157.147 47.5247 158.209 47 159.604 47C161 47 162.062 47.5247 162.915 48.3716C163.695 49.1465 164.251 50.1524 164.687 50.9422L164.725 51.0113C165.204 51.8784 165.56 52.5026 166.016 52.9549C166.422 53.358 166.956 53.6667 167.833 53.6667C168.71 53.6667 169.245 53.358 169.651 52.9549C170.106 52.5026 170.462 51.8784 170.942 51.0113L170.98 50.942C171.416 50.1522 171.972 49.1464 172.752 48.3716C173.605 47.5247 174.667 47 176.063 47C177.458 47 178.52 47.5247 179.373 48.3716C180.154 49.1464 180.709 50.1523 181.145 50.9421L181.183 51.0113C181.663 51.8784 182.019 52.5026 182.474 52.9549C182.88 53.358 183.415 53.6667 184.292 53.6667C185.169 53.6667 185.703 53.358 186.109 52.9549C186.565 52.5026 186.921 51.8784 187.4 51.0113L187.438 50.9422C187.874 50.1524 188.43 49.1465 189.21 48.3716C190.063 47.5247 191.125 47 192.521 47C193.916 47 194.979 47.5247 195.831 48.3716C196.612 49.1465 197.167 50.1524 197.604 50.9422L197.642 51.0113C198.121 51.8784 198.477 52.5026 198.933 52.9549C199.338 53.358 199.873 53.6667 200.75 53.6667C201.44 53.6667 202 54.4129 202 55.3333C202 56.2538 201.44 57 200.75 57C199.355 57 198.292 56.4753 197.439 55.6284C196.659 54.8535 196.103 53.8476 195.667 53.0578L195.629 52.9887C195.15 52.1216 194.794 51.4974 194.338 51.0451C193.932 50.642 193.398 50.3333 192.521 50.3333C191.644 50.3333 191.109 50.642 190.703 51.0451C190.248 51.4974 189.892 52.1216 189.413 52.9887L189.374 53.0579C188.938 53.8477 188.383 54.8536 187.602 55.6284C186.749 56.4753 185.687 57 184.292 57C182.896 57 181.834 56.4753 180.981 55.6284C180.201 54.8535 179.645 53.8476 179.209 53.0578L179.171 52.9887C178.692 52.1216 178.336 51.4974 177.88 51.0451C177.474 50.642 176.94 50.3333 176.063 50.3333C175.185 50.3333 174.651 50.642 174.245 51.0451C173.789 51.4974 173.433 52.1216 172.954 52.9887L172.916 53.0578C172.48 53.8476 171.924 54.8535 171.144 55.6284C170.291 56.4753 169.229 57 167.833 57C166.438 57 165.376 56.4753 164.523 55.6284C163.742 54.8536 163.187 53.8477 162.751 53.0579L162.712 52.9887C162.233 52.1216 161.877 51.4974 161.422 51.0451C161.016 50.642 160.481 50.3333 159.604 50.3333C158.727 50.3333 158.193 50.642 157.787 51.0451C157.331 51.4974 156.975 52.1216 156.496 52.9887L156.458 53.0579C156.021 53.8477 155.466 54.8536 154.686 55.6284C153.833 56.4753 152.77 57 151.375 57C149.98 57 148.917 56.4753 148.064 55.6284C147.284 54.8536 146.729 53.8477 146.292 53.0579L146.254 52.9887C145.775 52.1216 145.419 51.4974 144.963 51.0451C144.557 50.642 144.023 50.3333 143.146 50.3333C142.269 50.3333 141.734 50.642 141.328 51.0451C140.873 51.4974 140.517 52.1216 140.038 52.9887L139.999 53.0579C139.563 53.8477 139.008 54.8536 138.227 55.6284C137.374 56.4753 136.312 57 134.917 57C133.521 57 132.459 56.4753 131.606 55.6284C130.826 54.8536 130.27 53.8477 129.834 53.0579L129.796 52.9887C129.317 52.1216 128.961 51.4974 128.505 51.0451C128.099 50.642 127.565 50.3333 126.688 50.3333C125.81 50.3333 125.276 50.642 124.87 51.0451C124.414 51.4974 124.058 52.1216 123.579 52.9887L123.541 53.0579C123.105 53.8477 122.549 54.8536 121.769 55.6284C120.916 56.4753 119.854 57 118.458 57C117.063 57 116.001 56.4753 115.148 55.6284C114.367 54.8536 113.812 53.8477 113.376 53.0579L113.337 52.9887C112.858 52.1216 112.502 51.4974 112.047 51.0451C111.641 50.642 111.106 50.3333 110.229 50.3333C109.352 50.3333 108.818 50.642 108.412 51.0451C107.956 51.4974 107.6 52.1216 107.121 52.9887L107.083 53.0579C106.646 53.8477 106.091 54.8536 105.311 55.6284C104.458 56.4753 103.395 57 102 57C100.605 57 99.5423 56.4753 98.6894 55.6284C97.909 54.8536 97.3535 53.8477 96.9173 53.0579L96.8791 52.9887C96.3999 52.1216 96.0439 51.4974 95.5883 51.0451C95.1823 50.642 94.6479 50.3333 93.7708 50.3333C92.8938 50.3333 92.3593 50.642 91.9534 51.0451C91.4978 51.4974 91.1417 52.1216 90.6626 52.9887L90.6243 53.0579C90.1881 53.8477 89.6326 54.8536 88.8523 55.6284C87.9993 56.4753 86.937 57 85.5417 57C84.1463 57 83.084 56.4753 82.231 55.6284C81.4507 54.8536 80.8952 53.8477 80.459 53.0579L80.4208 52.9887C79.9416 52.1216 79.5855 51.4974 79.13 51.0451C78.724 50.642 78.1895 50.3333 77.3125 50.3333C76.4355 50.3333 75.901 50.642 75.495 51.0451C75.0395 51.4974 74.6834 52.1216 74.2042 52.9887L74.166 53.0579C73.7298 53.8477 73.1743 54.8536 72.394 55.6284C71.541 56.4753 70.4787 57 69.0833 57C67.6879 57 66.6257 56.4753 65.7727 55.6284C64.9923 54.8536 64.4369 53.8477 64.0007 53.0579L63.9624 52.9887C63.4833 52.1216 63.1272 51.4974 62.6716 51.0451C62.2657 50.642 61.7312 50.3333 60.8542 50.3333C59.9771 50.3333 59.4427 50.642 59.0367 51.0451C58.5811 51.4974 58.2251 52.1216 57.7459 52.9887L57.7077 53.0579C57.2715 53.8477 56.716 54.8536 55.9356 55.6284C55.0827 56.4753 54.0204 57 52.625 57C51.2296 57 50.1673 56.4753 49.3144 55.6284C48.534 54.8536 47.9785 53.8477 47.5423 53.0579L47.5041 52.9887C47.0249 52.1216 46.6689 51.4974 46.2133 51.0451C45.8073 50.642 45.2729 50.3333 44.3958 50.3333C43.5188 50.3333 42.9843 50.642 42.5784 51.0451C42.1228 51.4974 41.7667 52.1216 41.2876 52.9887C41.2749 53.0116 41.2622 53.0346 41.2493 53.0579C40.8131 53.8477 40.2577 54.8536 39.4773 55.6284C38.6243 56.4753 37.562 57 36.1667 57C34.7713 57 33.709 56.4753 32.856 55.6284C32.0757 54.8536 31.5202 53.8477 31.084 53.0579C31.0711 53.0346 31.0584 53.0115 31.0458 52.9887C30.5666 52.1216 30.2105 51.4974 29.755 51.0451C29.349 50.642 28.8145 50.3333 27.9375 50.3333C27.0605 50.3333 26.526 50.642 26.12 51.0451C25.6645 51.4974 25.3084 52.1216 24.8292 52.9887C24.8166 53.0116 24.8038 53.0346 24.791 53.0579C24.3548 53.8477 23.7993 54.8536 23.019 55.6284C22.166 56.4753 21.1037 57 19.7083 57C18.313 57 17.2507 56.4753 16.3977 55.6284C15.6173 54.8536 15.0619 53.8477 14.6257 53.0579C14.6128 53.0346 14.6001 53.0116 14.5874 52.9887C14.1083 52.1216 13.7522 51.4974 13.2966 51.0451C12.8907 50.642 12.3562 50.3333 11.4792 50.3333C10.6021 50.3333 10.0677 50.642 9.66171 51.0451C9.20613 51.4974 8.85007 52.1216 8.37089 52.9887C8.35825 53.0116 8.34552 53.0346 8.33267 53.0579C7.89648 53.8477 7.34099 54.8536 6.56063 55.6284Z" fill="#D0B243" style="fill:#D0B243;fill:color(display-p3 0.8157 0.6980 0.2627);fill-opacity:1;"/>
</svg>
