<svg width="204" height="81" viewBox="0 0 204 81" fill="none" xmlns="http://www.w3.org/2000/svg">
<path d="M199.043 37.7628V36.2304C198.665 36.6377 198.151 37.0839 197.743 37.3457C196.987 37.8016 196.23 38.044 195.581 38.044C194.62 38.044 193.777 37.6367 193.02 36.8317C192.283 36.0267 191.924 34.8435 191.924 33.2627C191.924 32.0601 192.176 30.9253 192.642 29.9749C193.088 29.0438 193.777 28.2098 194.533 27.6569C195.338 27.0847 196.366 26.7938 197.53 26.7938C197.86 26.7938 198.374 26.8132 199.004 26.8811C199.004 26.8811 199.014 26.8908 199.043 26.8908V22.4392H201.468V37.7628H199.043ZM199.043 33.0299V29.0826C198.577 28.9856 198.141 28.9371 197.753 28.9371C196.871 28.9371 196.046 29.3639 195.425 30.0137V30.004C194.834 30.7314 194.494 31.7691 194.494 33.0299C194.494 33.9513 194.669 34.6399 194.979 35.086C195.28 35.4836 195.619 35.697 195.969 35.697C196.415 35.697 196.909 35.4642 197.472 34.989C198.073 34.4944 198.587 33.8349 199.043 33.0299Z" fill="white" style="fill:white;fill:white;fill-opacity:1;"/>
<path d="M182.788 37.7628H180.374V26.9296H182.788V28.3843C183.157 27.9576 183.535 27.6375 183.972 27.3563C184.699 26.8811 185.446 26.6483 186.212 26.6483C186.891 26.6483 187.502 26.8229 188.045 27.1817C188.598 27.5503 189.005 28.0352 189.219 28.6074C189.422 29.1602 189.529 30.2173 189.529 31.7497V37.7628H187.104V31.546C187.104 30.6247 187.065 30.0234 186.988 29.7421C186.91 29.5094 186.775 29.296 186.59 29.1602C186.406 29.005 186.212 28.9371 186.008 28.9371C185.504 28.9371 184.942 29.1796 184.34 29.6839C183.729 30.1882 183.225 30.838 182.788 31.6139V37.7628Z" fill="white" style="fill:white;fill:white;fill-opacity:1;"/>
<path d="M176.494 37.7628H171.257V29.0632H168.454V26.9296H173.672V35.6291H176.494V37.7628ZM170.976 23.6515C170.976 23.1568 171.179 22.7689 171.519 22.507C171.829 22.2743 172.169 22.1579 172.46 22.1579C172.78 22.1579 173.119 22.2743 173.429 22.507C173.769 22.7689 173.963 23.1568 173.963 23.6515C173.963 24.1461 173.769 24.5243 173.429 24.7862C173.109 25.0287 172.77 25.145 172.46 25.145C172.149 25.145 171.829 25.0287 171.519 24.7862C171.179 24.5243 170.976 24.1461 170.976 23.6515Z" fill="white" style="fill:white;fill:white;fill-opacity:1;"/>
<path d="M159.221 37.7628H156.99L155.225 26.9296H157.534L158.465 32.8262L160.016 26.9296H162.082L163.847 32.9135L164.798 26.9296H166.844L165.089 37.7628H162.926L160.938 31.129L159.221 37.7628Z" fill="white" style="fill:white;fill:white;fill-opacity:1;"/>
<path d="M152.859 37.7628H147.282V24.5825H144.256V22.4392H149.697V35.6291H152.859V37.7628Z" fill="white" style="fill:white;fill:white;fill-opacity:1;"/>
<path d="M140.707 37.7628H135.469V29.0632H132.667V26.9296H137.884V35.6291H140.707V37.7628ZM135.188 23.6515C135.188 23.1568 135.392 22.7689 135.731 22.507C136.042 22.2743 136.381 22.1579 136.672 22.1579C136.992 22.1579 137.332 22.2743 137.642 22.507C137.981 22.7689 138.175 23.1568 138.175 23.6515C138.175 24.1461 137.981 24.5243 137.642 24.7862C137.322 25.0287 136.982 25.145 136.672 25.145C136.362 25.145 136.042 25.0287 135.731 24.7862C135.392 24.5243 135.188 24.1461 135.188 23.6515Z" fill="white" style="fill:white;fill:white;fill-opacity:1;"/>
<path d="M127.914 37.7628L127.73 37.627C127.614 37.1518 127.526 36.6571 127.459 36.114C127.042 36.6086 126.557 37.0451 126.072 37.3457C125.296 37.8016 124.549 38.044 123.909 38.044C122.949 38.044 122.095 37.6367 121.348 36.8317C120.611 36.0364 120.253 34.8532 120.253 33.2627C120.253 32.0407 120.495 30.935 120.951 29.9749C121.416 29.0147 122.086 28.2195 122.852 27.6569C123.657 27.0847 124.685 26.7938 125.849 26.7938C126.188 26.7938 126.712 26.8132 127.332 26.8811C127.41 26.8811 127.459 26.8908 127.526 26.9005L127.73 26.9296H129.796V34.4265C129.796 35.5903 129.97 36.6959 130.32 37.7628H127.914ZM127.371 33.0299V29.0826C126.906 28.9856 126.46 28.9371 126.072 28.9371C125.189 28.9371 124.355 29.3639 123.754 30.0137V30.004C123.152 30.7314 122.813 31.7788 122.813 33.0299C122.813 33.9707 122.988 34.6496 123.298 35.0957V35.086C123.608 35.4933 123.938 35.697 124.297 35.697C124.724 35.697 125.247 35.4642 125.8 34.989C126.363 34.4944 126.906 33.8349 127.371 33.0299Z" fill="white" style="fill:white;fill:white;fill-opacity:1;"/>
<path d="M117.973 34.8823V37.2294C116.994 37.627 116.325 37.8888 115.956 37.9373C115.607 38.0052 115.238 38.044 114.86 38.044C114.104 38.044 113.415 37.8888 112.775 37.6076C112.115 37.2972 111.611 36.8317 111.281 36.2498C110.942 35.6679 110.787 34.7756 110.787 33.6021V29.907H108.265V27.7733H110.787V23.7H113.202V27.7733H117.692V29.907H113.202V33.573C113.202 34.3198 113.289 34.8435 113.444 35.1345L113.434 35.1248C113.58 35.3672 113.803 35.5709 114.045 35.7067C114.317 35.8231 114.666 35.9104 115.035 35.9104C115.791 35.9104 116.771 35.5612 117.973 34.8823Z" fill="white" style="fill:white;fill:white;fill-opacity:1;"/>
<path d="M105.404 32.6808H97.5096V30.5083H105.404V32.6808Z" fill="white" style="fill:white;fill:white;fill-opacity:1;"/>
<path d="M94.0763 34.5526V36.9675C92.544 37.6949 91.1474 38.0537 89.8963 38.0537C87.9275 38.0537 86.3369 37.0451 85.3962 35.2315C84.95 34.3489 84.7173 33.3791 84.7173 32.3704C84.7173 31.4006 84.9404 30.4598 85.3671 29.5481C85.8035 28.6462 86.4339 27.9188 87.2195 27.4145C88.0051 26.9005 88.8779 26.6483 89.8769 26.6483C91.1765 26.6483 92.2336 27.1332 93.0289 28.0643C93.7951 28.9856 94.2218 30.4307 94.2218 32.254V32.9911H87.2777C87.3165 33.4857 87.4523 33.9513 87.6559 34.378C87.9275 34.8823 88.2669 35.2703 88.6743 35.5224H88.6646C89.0913 35.7746 89.5665 35.9104 90.1096 35.9104C91.1086 35.9104 92.447 35.4545 94.0763 34.5526ZM91.6517 30.9932V31.129V31.1775L91.8457 30.9932H91.6517ZM87.4523 30.9932H91.6517C91.642 30.3337 91.4577 29.7809 91.128 29.393C90.8079 28.9856 90.3618 28.782 89.7993 28.782C88.7131 28.782 87.8596 29.5094 87.4523 30.9932Z" fill="white" style="fill:white;fill:white;fill-opacity:1;"/>
<path d="M81.284 37.7628H75.7074V24.5825H72.6815V22.4392H78.1223V35.6291H81.284V37.7628Z" fill="white" style="fill:white;fill:white;fill-opacity:1;"/>
<path d="M63.3806 22.4392V28.4328C63.7783 28.0061 64.2438 27.6085 64.6802 27.3466C65.4367 26.8908 66.1835 26.6483 66.843 26.6483C67.8031 26.6483 68.6469 27.0556 69.4034 27.8606C70.1308 28.6462 70.509 29.8294 70.509 31.4297C70.509 32.6323 70.2568 33.767 69.7816 34.7271C69.3258 35.6679 68.6663 36.4923 67.8807 37.0451C67.0757 37.627 66.0865 37.8985 64.8839 37.8985C64.5541 37.8985 64.0498 37.8791 63.4 37.8113L63.1867 37.7822C63.1188 37.7725 63.0509 37.7628 63.0121 37.7628H60.9657V22.4392H63.3806ZM63.3806 31.6624V35.6097C63.8461 35.7067 64.3117 35.7552 64.6899 35.7552C65.524 35.7552 66.3872 35.28 66.9885 34.698C67.5801 33.9707 67.9389 32.8941 67.9389 31.6624C67.9389 30.7411 67.7643 30.0428 67.4443 29.6063C67.1339 29.2087 66.7945 28.9953 66.4453 28.9953C66.038 28.9953 65.4464 29.296 64.9518 29.7033C64.3893 30.1979 63.8365 30.8574 63.3806 31.6624Z" fill="white" style="fill:white;fill:white;fill-opacity:1;"/>
<path d="M56.3395 37.7628L56.1552 37.627C56.0388 37.1518 55.9515 36.6571 55.8837 36.114C55.4666 36.6086 54.9817 37.0451 54.4968 37.3457C53.7209 37.8016 52.9741 38.044 52.334 38.044C51.3739 38.044 50.5204 37.6367 49.7736 36.8317C49.0365 36.0364 48.6777 34.8532 48.6777 33.2627C48.6777 32.0407 48.9201 30.935 49.376 29.9749C49.8415 29.0147 50.5107 28.2195 51.2769 27.6569C52.0818 27.0847 53.1099 26.7938 54.2737 26.7938C54.6131 26.7938 55.1369 26.8132 55.7576 26.8811C55.8352 26.8811 55.8837 26.8908 55.9515 26.9005L56.1552 26.9296H58.221V34.4265C58.221 35.5903 58.3956 36.6959 58.7447 37.7628H56.3395ZM55.7964 33.0299V29.0826C55.3308 28.9856 54.8847 28.9371 54.4968 28.9371C53.6142 28.9371 52.7801 29.3639 52.1788 30.0137V30.004C51.5775 30.7314 51.2381 31.7788 51.2381 33.0299C51.2381 33.9707 51.4126 34.6496 51.723 35.0957V35.086C52.0334 35.4933 52.3631 35.697 52.7219 35.697C53.1487 35.697 53.6724 35.4642 54.2252 34.989C54.7877 34.4944 55.3308 33.8349 55.7964 33.0299Z" fill="white" style="fill:white;fill:white;fill-opacity:1;"/>
<path d="M43.9642 37.7628V36.2304C43.586 36.6377 43.0719 37.0839 42.6646 37.3457C41.9081 37.8016 41.1516 38.044 40.5018 38.044C39.5417 38.044 38.6979 37.6367 37.9414 36.8317C37.2044 36.0267 36.8455 34.8435 36.8455 33.2627C36.8455 32.0601 37.0977 30.9253 37.5632 29.9749C38.0093 29.0438 38.6979 28.2098 39.4544 27.6569C40.2594 27.0847 41.2874 26.7938 42.4512 26.7938C42.781 26.7938 43.295 26.8132 43.9254 26.8811C43.9254 26.8811 43.9351 26.8908 43.9642 26.8908V22.4392H46.3888V37.7628H43.9642ZM43.9642 33.0299V29.0826C43.4987 28.9856 43.0623 28.9371 42.6743 28.9371C41.7917 28.9371 40.9674 29.3639 40.3467 30.0137V30.004C39.7551 30.7314 39.4156 31.7691 39.4156 33.0299C39.4156 33.9513 39.5902 34.6399 39.9005 35.086C40.2012 35.4836 40.5406 35.697 40.8898 35.697C41.3359 35.697 41.8305 35.4642 42.3931 34.989C42.9944 34.4944 43.5084 33.8349 43.9642 33.0299Z" fill="white" style="fill:white;fill:white;fill-opacity:1;"/>
<path d="M32.4811 37.7628L32.2969 37.627C32.1805 37.1518 32.0932 36.6571 32.0253 36.114C31.6083 36.6086 31.1234 37.0451 30.6384 37.3457C29.8626 37.8016 29.1158 38.044 28.4757 38.044C27.5155 38.044 26.662 37.6367 25.9153 36.8317C25.1782 36.0364 24.8193 34.8532 24.8193 33.2627C24.8193 32.0407 25.0618 30.935 25.5176 29.9749C25.9832 29.0147 26.6524 28.2195 27.4185 27.6569C28.2235 27.0847 29.2515 26.7938 30.4154 26.7938C30.7548 26.7938 31.2785 26.8132 31.8992 26.8811C31.9768 26.8811 32.0253 26.8908 32.0932 26.9005L32.2969 26.9296H34.3626V34.4265C34.3626 35.5903 34.5372 36.6959 34.8864 37.7628H32.4811ZM31.938 33.0299V29.0826C31.4725 28.9856 31.0264 28.9371 30.6384 28.9371C29.7559 28.9371 28.9218 29.3639 28.3205 30.0137V30.004C27.7192 30.7314 27.3797 31.7788 27.3797 33.0299C27.3797 33.9707 27.5543 34.6496 27.8647 35.0957V35.086C28.175 35.4933 28.5048 35.697 28.8636 35.697C29.2903 35.697 29.8141 35.4642 30.3669 34.989C30.9294 34.4944 31.4725 33.8349 31.938 33.0299Z" fill="white" style="fill:white;fill:white;fill-opacity:1;"/>
<path d="M22.5015 34.5526V36.9675C20.9691 37.6949 19.5726 38.0537 18.3214 38.0537C16.3527 38.0537 14.7621 37.0451 13.8214 35.2315C13.3752 34.3489 13.1425 33.3791 13.1425 32.3704C13.1425 31.4006 13.3655 30.4598 13.7923 29.5481C14.2287 28.6462 14.8591 27.9188 15.6447 27.4145C16.4302 26.9005 17.3031 26.6483 18.3021 26.6483C19.6017 26.6483 20.6588 27.1332 21.4541 28.0643C22.2202 28.9856 22.647 30.4307 22.647 32.254V32.9911H15.7029C15.7417 33.4857 15.8774 33.9513 16.0811 34.378C16.3527 34.8823 16.6921 35.2703 17.0994 35.5224H17.0897C17.5165 35.7746 17.9917 35.9104 18.5348 35.9104C19.5338 35.9104 20.8722 35.4545 22.5015 34.5526ZM20.0769 30.9932V31.129V31.1775L20.2708 30.9932H20.0769ZM15.8774 30.9932H20.0769C20.0672 30.3337 19.8829 29.7809 19.5532 29.393C19.2331 28.9856 18.787 28.782 18.2245 28.782C17.1382 28.782 16.2848 29.5094 15.8774 30.9932Z" fill="white" style="fill:white;fill:white;fill-opacity:1;"/>
<path d="M4.73383 37.7628H2.31891V26.9296H4.73383V28.4037C5.73278 27.3175 7.04207 26.6483 8.42896 26.6483C9.09815 26.6483 9.81584 26.7841 10.6208 27.0265V31.3133H8.27378V28.9565C8.1477 28.9371 8.03132 28.9371 7.97313 28.9371C6.8578 28.9371 5.79097 29.8391 4.73383 31.6236V37.7628Z" fill="white" style="fill:white;fill:white;fill-opacity:1;"/>
<path fill-rule="evenodd" clip-rule="evenodd" d="M7.5244 54.6829C6.56567 55.504 5.37885 56 3.86335 56C2.83425 56 2 55.0406 2 53.8571C2 52.6737 2.83425 51.7143 3.86335 51.7143C4.60617 51.7143 5.00618 51.496 5.29855 51.2456C5.6649 50.9319 5.96683 50.4865 6.45229 49.7288C6.46847 49.7036 6.4849 49.6779 6.50161 49.6518C6.92874 48.9842 7.52891 48.0462 8.38036 47.3171C9.33909 46.496 10.5259 46 12.0414 46C13.5569 46 14.7437 46.496 15.7025 47.3171C16.5539 48.0462 17.1541 48.9842 17.5812 49.6518C17.5979 49.6779 17.6143 49.7036 17.6305 49.7288C18.116 50.4865 18.4179 50.9319 18.7843 51.2456C19.0766 51.496 19.4766 51.7143 20.2195 51.7143C20.9623 51.7143 21.3623 51.496 21.6547 51.2456C22.021 50.9319 22.3229 50.4865 22.8084 49.7288C22.8246 49.7036 22.841 49.6779 22.8577 49.6518C23.2848 48.9842 23.885 48.0462 24.7365 47.3171C25.6952 46.496 26.882 46 28.3975 46C29.913 46 31.0998 46.496 32.0586 47.3171C32.91 48.0462 33.5102 48.9842 33.9373 49.6518C33.954 49.6779 33.9705 49.7036 33.9866 49.7288C34.4721 50.4865 34.774 50.9319 35.1404 51.2456C35.4327 51.496 35.8328 51.7143 36.5756 51.7143C37.3184 51.7143 37.7184 51.496 38.0108 51.2456C38.3771 50.9319 38.679 50.4865 39.1645 49.7288C39.1807 49.7036 39.1971 49.6779 39.2138 49.6518C39.641 48.9842 40.2411 48.0462 41.0926 47.3171C42.0513 46.496 43.2381 46 44.7536 46C46.2691 46 47.4559 46.496 48.4147 47.3171C49.2661 48.0462 49.8663 48.9842 50.2934 49.6518C50.3101 49.6779 50.3266 49.7036 50.3427 49.7288C50.8282 50.4865 51.1301 50.9319 51.4965 51.2456C51.7888 51.496 52.1889 51.7143 52.9317 51.7143C53.6745 51.7143 54.0745 51.496 54.3669 51.2456C54.7332 50.9319 55.0352 50.4865 55.5206 49.7288C55.5368 49.7036 55.5532 49.6779 55.5699 49.6518C55.997 48.9843 56.5972 48.0462 57.4487 47.3171C58.4074 46.496 59.5942 46 61.1097 46C62.6252 46 63.812 46.496 64.7708 47.3171C65.6222 48.0462 66.2224 48.9842 66.6495 49.6518C66.6662 49.6779 66.6827 49.7036 66.6988 49.7288C67.1843 50.4865 67.4862 50.9319 67.8526 51.2456C68.1449 51.496 68.545 51.7143 69.2878 51.7143C70.0306 51.7143 70.4306 51.496 70.723 51.2456C71.0893 50.9319 71.3913 50.4865 71.8767 49.7288C71.8929 49.7036 71.9093 49.6779 71.926 49.6518C72.3532 48.9842 72.9533 48.0462 73.8048 47.3171C74.7635 46.496 75.9503 46 77.4658 46C78.9813 46 80.1682 46.496 81.1269 47.3171C81.9783 48.0462 82.5785 48.9843 83.0057 49.6518C83.0224 49.6779 83.0388 49.7036 83.055 49.7288C83.5404 50.4865 83.8423 50.9319 84.2087 51.2456C84.5011 51.496 84.9011 51.7143 85.6439 51.7143C86.3867 51.7143 86.7867 51.496 87.0791 51.2456C87.4454 50.9319 87.7474 50.4865 88.2328 49.7288L88.2822 49.6518C88.7093 48.9842 89.3095 48.0462 90.1609 47.3171C91.1196 46.496 92.3065 46 93.8219 46C95.3374 46 96.5243 46.496 97.483 47.3171C98.3345 48.0463 98.9347 48.9843 99.3618 49.6519C99.3785 49.678 99.3949 49.7036 99.4111 49.7288C99.8965 50.4865 100.198 50.9319 100.565 51.2456C100.857 51.496 101.257 51.7143 102 51.7143C102.743 51.7143 103.143 51.496 103.435 51.2456C103.802 50.9319 104.103 50.4865 104.589 49.7288L104.638 49.6518C105.065 48.9842 105.666 48.0462 106.517 47.3171C107.476 46.496 108.663 46 110.178 46C111.694 46 112.88 46.496 113.839 47.3171C114.691 48.0462 115.291 48.9843 115.718 49.6518C115.735 49.6779 115.751 49.7036 115.767 49.7288C116.253 50.4865 116.555 50.9319 116.921 51.2456C117.213 51.496 117.613 51.7143 118.356 51.7143C119.099 51.7143 119.499 51.496 119.791 51.2456C120.158 50.9319 120.46 50.4865 120.945 49.7288L120.994 49.6518C121.422 48.9842 122.022 48.0462 122.873 47.3171C123.832 46.496 125.019 46 126.534 46C128.05 46 129.236 46.496 130.195 47.3171C131.047 48.0462 131.647 48.9842 132.074 49.6518L132.123 49.7288C132.609 50.4865 132.911 50.9319 133.277 51.2456C133.569 51.496 133.969 51.7143 134.712 51.7143C135.455 51.7143 135.855 51.496 136.147 51.2456C136.514 50.9319 136.816 50.4865 137.301 49.7288L137.35 49.6518C137.778 48.9843 138.378 48.0462 139.229 47.3171C140.188 46.496 141.375 46 142.89 46C144.406 46 145.593 46.496 146.551 47.3171C147.403 48.0462 148.003 48.9842 148.43 49.6518L148.479 49.7288C148.965 50.4865 149.267 50.9319 149.633 51.2456C149.925 51.496 150.326 51.7143 151.068 51.7143C151.811 51.7143 152.211 51.496 152.504 51.2456C152.87 50.9319 153.172 50.4865 153.657 49.7288L153.707 49.6518C154.134 48.9843 154.734 48.0462 155.585 47.3171C156.544 46.496 157.731 46 159.246 46C160.762 46 161.949 46.496 162.907 47.3171C163.759 48.0462 164.359 48.9843 164.786 49.6518L164.836 49.7288C165.321 50.4865 165.623 50.9319 165.989 51.2456C166.282 51.496 166.682 51.7143 167.424 51.7143C168.167 51.7143 168.567 51.496 168.86 51.2456C169.226 50.9319 169.528 50.4865 170.013 49.7288L170.063 49.6519C170.49 48.9844 171.09 48.0463 171.941 47.3171C172.9 46.496 174.087 46 175.603 46C177.118 46 178.305 46.496 179.264 47.3171C180.115 48.0463 180.715 48.9844 181.142 49.6519L181.192 49.7288C181.677 50.4865 181.979 50.9319 182.345 51.2456C182.638 51.496 183.038 51.7143 183.781 51.7143C184.523 51.7143 184.923 51.496 185.216 51.2456C185.582 50.9319 185.884 50.4865 186.369 49.7288L186.419 49.6518C186.846 48.9843 187.446 48.0462 188.298 47.3171C189.256 46.496 190.443 46 191.959 46C193.474 46 194.661 46.496 195.62 47.3171C196.471 48.0462 197.071 48.9842 197.498 49.6517L197.548 49.7288C198.033 50.4865 198.335 50.9319 198.701 51.2456C198.994 51.496 199.394 51.7143 200.137 51.7143C201.166 51.7143 202 52.6737 202 53.8571C202 55.0406 201.166 56 200.137 56C198.621 56 197.434 55.504 196.476 54.6829C195.624 53.9538 195.024 53.0158 194.597 52.3483L194.548 52.2712C194.062 51.5135 193.76 51.0681 193.394 50.7544C193.101 50.504 192.701 50.2857 191.959 50.2857C191.216 50.2857 190.816 50.504 190.523 50.7544C190.157 51.0681 189.855 51.5135 189.37 52.2712L189.32 52.3483C188.893 53.0158 188.293 53.9538 187.442 54.6829C186.483 55.504 185.296 56 183.781 56C182.265 56 181.078 55.504 180.119 54.6829C179.268 53.9538 178.668 53.0158 178.241 52.3483L178.191 52.2712C177.706 51.5135 177.404 51.0681 177.038 50.7544C176.745 50.504 176.345 50.2857 175.603 50.2857C174.86 50.2857 174.46 50.504 174.167 50.7544C173.801 51.0681 173.499 51.5135 173.014 52.2712L172.964 52.3483C172.537 53.0158 171.937 53.9538 171.085 54.6829C170.127 55.504 168.94 56 167.424 56C165.909 56 164.722 55.504 163.763 54.6829C162.912 53.9538 162.312 53.0157 161.885 52.3482L161.835 52.2712C161.35 51.5135 161.048 51.0681 160.682 50.7544C160.389 50.504 159.989 50.2857 159.246 50.2857C158.504 50.2857 158.104 50.504 157.811 50.7544C157.445 51.0681 157.143 51.5135 156.657 52.2712L156.608 52.3482C156.181 53.0158 155.581 53.9538 154.729 54.6829C153.771 55.504 152.584 56 151.068 56C149.553 56 148.366 55.504 147.407 54.6829C146.556 53.9538 145.956 53.0157 145.529 52.3482L145.479 52.2712C144.994 51.5135 144.692 51.0681 144.325 50.7544C144.033 50.504 143.633 50.2857 142.89 50.2857C142.147 50.2857 141.747 50.504 141.455 50.7544C141.089 51.0681 140.787 51.5135 140.301 52.2712L140.252 52.3482C139.825 53.0157 139.225 53.9538 138.373 54.6829C137.415 55.504 136.228 56 134.712 56C133.197 56 132.01 55.504 131.051 54.6829C130.2 53.9538 129.6 53.0157 129.172 52.3482L129.123 52.2712C128.638 51.5135 128.336 51.0681 127.969 50.7544C127.677 50.504 127.277 50.2857 126.534 50.2857C125.791 50.2857 125.391 50.504 125.099 50.7544C124.733 51.0681 124.431 51.5135 123.945 52.2712L123.896 52.3481C123.469 53.0157 122.869 53.9537 122.017 54.6829C121.058 55.504 119.872 56 118.356 56C116.841 56 115.654 55.504 114.695 54.6829C113.844 53.9538 113.243 53.0158 112.816 52.3482L112.767 52.2712C112.282 51.5135 111.98 51.0681 111.613 50.7544C111.321 50.504 110.921 50.2857 110.178 50.2857C109.435 50.2857 109.035 50.504 108.743 50.7544C108.377 51.0681 108.075 51.5135 107.589 52.2712L107.54 52.3482C107.113 53.0158 106.512 53.9538 105.661 54.6829C104.702 55.504 103.516 56 102 56C100.485 56 99.2977 55.504 98.339 54.6829C97.4875 53.9538 96.8873 53.0158 96.4602 52.3482L96.4109 52.2712C95.9254 51.5135 95.6235 51.0681 95.2571 50.7544C94.9648 50.504 94.5648 50.2857 93.8219 50.2857C93.0791 50.2857 92.6791 50.504 92.3867 50.7544C92.0204 51.0681 91.7185 51.5135 91.233 52.2712C91.2168 52.2964 91.2004 52.3221 91.1837 52.3482C90.7566 53.0157 90.1564 53.9538 89.3049 54.6829C88.3462 55.504 87.1594 56 85.6439 56C84.1284 56 82.9416 55.504 81.9828 54.6829C81.1314 53.9538 80.5312 53.0158 80.1041 52.3482C80.0874 52.3221 80.0709 52.2964 80.0548 52.2712C79.5693 51.5135 79.2674 51.0681 78.901 50.7544C78.6087 50.504 78.2087 50.2857 77.4658 50.2857C76.723 50.2857 76.323 50.504 76.0306 50.7544C75.6643 51.0681 75.3624 51.5135 74.8769 52.2712C74.8607 52.2964 74.8443 52.3221 74.8276 52.3482C74.4005 53.0157 73.8003 53.9538 72.9488 54.6829C71.9901 55.504 70.8033 56 69.2878 56C67.7723 56 66.5855 55.504 65.6267 54.6829C64.7753 53.9538 64.1751 53.0158 63.748 52.3482C63.7313 52.3221 63.7148 52.2964 63.6987 52.2712C63.2132 51.5135 62.9113 51.0681 62.5449 50.7544C62.2526 50.504 61.8525 50.2857 61.1097 50.2857C60.3669 50.2857 59.9669 50.504 59.6745 50.7544C59.3082 51.0681 59.0063 51.5135 58.5208 52.2712C58.5046 52.2964 58.4882 52.3221 58.4715 52.3482C58.0443 53.0158 57.4442 53.9538 56.5927 54.6829C55.634 55.504 54.4472 56 52.9317 56C51.4162 56 50.2294 55.504 49.2706 54.6829C48.4192 53.9538 47.819 53.0158 47.3919 52.3482C47.3752 52.3221 47.3587 52.2964 47.3426 52.2712C46.8571 51.5135 46.5552 51.0681 46.1888 50.7544C45.8965 50.504 45.4964 50.2857 44.7536 50.2857C44.0108 50.2857 43.6108 50.504 43.3184 50.7544C42.9521 51.0681 42.6502 51.5135 42.1647 52.2712C42.1485 52.2964 42.1321 52.3221 42.1154 52.3482C41.6882 53.0158 41.0881 53.9538 40.2366 54.6829C39.2779 55.504 38.0911 56 36.5756 56C35.0601 56 33.8733 55.504 32.9145 54.6829C32.0631 53.9538 31.4629 53.0157 31.0358 52.3482C31.0191 52.3221 31.0026 52.2964 30.9865 52.2712C30.501 51.5135 30.1991 51.0681 29.8327 50.7544C29.5403 50.504 29.1403 50.2857 28.3975 50.2857C27.6547 50.2857 27.2547 50.504 26.9623 50.7544C26.596 51.0681 26.294 51.5135 25.8086 52.2712C25.7924 52.2964 25.776 52.3221 25.7593 52.3482C25.3321 53.0158 24.732 53.9538 23.8805 54.6829C22.9218 55.504 21.735 56 20.2195 56C18.704 56 17.5172 55.504 16.5584 54.6829C15.707 53.9538 15.1068 53.0158 14.6797 52.3482C14.663 52.3221 14.6465 52.2964 14.6303 52.2712C14.1449 51.5135 13.843 51.0681 13.4766 50.7544C13.1842 50.504 12.7842 50.2857 12.0414 50.2857C11.2986 50.2857 10.8986 50.504 10.6062 50.7544C10.2399 51.0681 9.93793 51.5135 9.45247 52.2712C9.43629 52.2964 9.41986 52.3221 9.40316 52.3482C8.97602 53.0158 8.37585 53.9538 7.5244 54.6829Z" fill="#D0B243" style="fill:#D0B243;fill:color(display-p3 0.8157 0.6980 0.2627);fill-opacity:1;"/>
</svg>
