<svg width="128" height="128" viewBox="0 0 128 128" fill="none" xmlns="http://www.w3.org/2000/svg">
<path fill-rule="evenodd" clip-rule="evenodd" d="M18.19 63.5895L18 63.9186L18.0362 63.9814C18.087 63.8501 18.1383 63.7195 18.19 63.5895ZM23.6074 54.2064C29.2698 47.3478 37.4006 43.9185 48.0016 43.9185C63.8632 43.9185 71.1244 51.5936 77.3998 58.2331C81.2498 62.3046 84.7312 65.9845 89.602 67.2514C96.6438 69.0865 102.96 67.1373 108.548 61.4037L87 24.0814L41 24.0814L23.6074 54.2064ZM109.964 63.8571C109.915 63.9856 109.865 64.1135 109.814 64.2408L110 63.9186L109.964 63.8571ZM104.389 73.6367C98.7271 80.491 90.5974 83.9185 80.0008 83.9185C64.1391 83.9185 56.8755 76.2408 50.6001 69.6065C46.75 65.5324 43.2687 61.8525 38.4003 60.5856C31.3587 58.7527 25.043 60.7022 19.4532 66.4357L41 103.756H87L104.389 73.6367Z" fill="white" style="fill:white;fill-opacity:1;"/>
</svg>
