<svg width="65" height="65" viewBox="0 0 65 65" fill="none" xmlns="http://www.w3.org/2000/svg">
<path d="M9.09929 32.8262L9 33L9.01895 33.0332C9.04548 32.9638 9.07227 32.8949 9.09929 32.8262Z" fill="white" style="fill:white;fill-opacity:1;"/>
<path d="M11.9254 27.8805C14.8797 24.2649 19.122 22.4571 24.653 22.4571C32.9287 22.4571 36.7171 26.503 39.9912 30.003C41.9999 32.1492 43.8163 34.0891 46.3576 34.7569C50.0316 35.7243 53.3268 34.6968 56.2425 31.6743L45 12L21 12L11.9254 27.8805Z" fill="white" style="fill:white;fill-opacity:1;"/>
<path d="M56.9815 32.9676C56.9556 33.0352 56.9295 33.1025 56.9031 33.1695L57 33L56.9815 32.9676Z" fill="white" style="fill:white;fill-opacity:1;"/>
<path d="M54.0725 38.1232C51.1183 41.7362 46.8768 43.5429 41.3483 43.5429C33.0726 43.5429 29.2829 39.4956 26.0088 35.9984C24 33.8507 22.1837 31.9109 19.6437 31.2431C15.9698 30.2769 12.6746 31.3045 9.75823 34.3269L21 54L45 54L54.0725 38.1232Z" fill="white" style="fill:white;fill-opacity:1;"/>
</svg>
