<svg width="204" height="81" viewBox="0 0 204 81" fill="none" xmlns="http://www.w3.org/2000/svg">
<path d="M199.108 37.7663V36.2329C198.729 36.6405 198.215 37.0869 197.807 37.349C197.05 37.8051 196.294 38.0477 195.643 38.0477C194.682 38.0477 193.838 37.6401 193.081 36.8346C192.344 36.0291 191.984 34.8451 191.984 33.2632C191.984 32.0598 192.237 30.9243 192.703 29.9732C193.149 29.0415 193.838 28.2069 194.595 27.6537C195.401 27.0811 196.429 26.79 197.594 26.79C197.924 26.79 198.438 26.8094 199.069 26.8773C199.069 26.8773 199.079 26.887 199.108 26.887V22.4324H201.534V37.7663H199.108ZM199.108 33.0303V29.0803C198.642 28.9833 198.205 28.9348 197.817 28.9348C196.934 28.9348 196.109 29.3618 195.488 30.012V30.0023C194.896 30.7302 194.556 31.7686 194.556 33.0303C194.556 33.9522 194.731 34.6413 195.042 35.0877C195.342 35.4856 195.682 35.6991 196.031 35.6991C196.478 35.6991 196.973 35.4662 197.536 34.9907C198.137 34.4957 198.652 33.8358 199.108 33.0303Z" fill="#1F2328" style="fill:#1F2328;fill:color(display-p3 0.1216 0.1373 0.1569);fill-opacity:1;"/>
<path d="M182.842 37.7663H180.426V26.9258H182.842V28.3816C183.211 27.9546 183.59 27.6343 184.026 27.3528C184.754 26.8773 185.501 26.6444 186.268 26.6444C186.948 26.6444 187.559 26.8191 188.102 27.1782C188.656 27.5469 189.063 28.0322 189.277 28.6048C189.481 29.158 189.587 30.2158 189.587 31.7492V37.7663H187.161V31.5454C187.161 30.6234 187.122 30.0217 187.045 29.7403C186.967 29.5074 186.831 29.2938 186.647 29.158C186.462 29.0027 186.268 28.9348 186.064 28.9348C185.56 28.9348 184.997 29.1774 184.395 29.682C183.784 30.1867 183.279 30.8369 182.842 31.6133V37.7663Z" fill="#1F2328" style="fill:#1F2328;fill:color(display-p3 0.1216 0.1373 0.1569);fill-opacity:1;"/>
<path d="M176.544 37.7663H171.303V29.0609H168.498V26.9258H173.72V35.6312H176.544V37.7663ZM171.022 23.6456C171.022 23.1506 171.226 22.7624 171.565 22.5004C171.876 22.2674 172.215 22.151 172.507 22.151C172.827 22.151 173.167 22.2674 173.477 22.5004C173.817 22.7624 174.011 23.1506 174.011 23.6456C174.011 24.1405 173.817 24.519 173.477 24.781C173.157 25.0237 172.817 25.1401 172.507 25.1401C172.196 25.1401 171.876 25.0237 171.565 24.781C171.226 24.519 171.022 24.1405 171.022 23.6456Z" fill="#1F2328" style="fill:#1F2328;fill:color(display-p3 0.1216 0.1373 0.1569);fill-opacity:1;"/>
<path d="M159.259 37.7663H157.027L155.261 26.9258H157.571L158.502 32.8264L160.055 26.9258H162.122L163.889 32.9138L164.84 26.9258H166.887L165.131 37.7663H162.967L160.977 31.1281L159.259 37.7663Z" fill="#1F2328" style="fill:#1F2328;fill:color(display-p3 0.1216 0.1373 0.1569);fill-opacity:1;"/>
<path d="M152.893 37.7663H147.312V24.5772H144.285V22.4324H149.729V35.6312H152.893V37.7663Z" fill="#1F2328" style="fill:#1F2328;fill:color(display-p3 0.1216 0.1373 0.1569);fill-opacity:1;"/>
<path d="M140.733 37.7663H135.492V29.0609H132.687V26.9258H137.908V35.6312H140.733V37.7663ZM135.21 23.6456C135.21 23.1506 135.414 22.7624 135.754 22.5004C136.064 22.2674 136.404 22.151 136.695 22.151C137.016 22.151 137.355 22.2674 137.666 22.5004C138.005 22.7624 138.2 23.1506 138.2 23.6456C138.2 24.1405 138.005 24.519 137.666 24.781C137.346 25.0237 137.006 25.1401 136.695 25.1401C136.385 25.1401 136.064 25.0237 135.754 24.781C135.414 24.519 135.21 24.1405 135.21 23.6456Z" fill="#1F2328" style="fill:#1F2328;fill:color(display-p3 0.1216 0.1373 0.1569);fill-opacity:1;"/>
<path d="M127.932 37.7663L127.747 37.6304C127.631 37.1549 127.543 36.6599 127.476 36.1164C127.058 36.6114 126.573 37.0481 126.088 37.349C125.311 37.8051 124.564 38.0477 123.924 38.0477C122.963 38.0477 122.109 37.6401 121.361 36.8346C120.624 36.0388 120.265 34.8548 120.265 33.2632C120.265 32.0404 120.507 30.934 120.964 29.9732C121.429 29.0124 122.099 28.2166 122.866 27.6537C123.671 27.0811 124.7 26.79 125.865 26.79C126.204 26.79 126.728 26.8094 127.349 26.8773C127.427 26.8773 127.476 26.887 127.543 26.8967L127.747 26.9258H129.814V34.4278C129.814 35.5924 129.989 36.6987 130.339 37.7663H127.932ZM127.388 33.0303V29.0803C126.922 28.9833 126.476 28.9348 126.088 28.9348C125.205 28.9348 124.37 29.3618 123.768 30.012V30.0023C123.167 30.7302 122.827 31.7783 122.827 33.0303C122.827 33.9716 123.002 34.651 123.312 35.0974V35.0877C123.623 35.4953 123.953 35.6991 124.312 35.6991C124.739 35.6991 125.263 35.4662 125.816 34.9907C126.379 34.4957 126.922 33.8358 127.388 33.0303Z" fill="#1F2328" style="fill:#1F2328;fill:color(display-p3 0.1216 0.1373 0.1569);fill-opacity:1;"/>
<path d="M117.984 34.8839V37.2325C117.004 37.6304 116.334 37.8924 115.965 37.941C115.616 38.0089 115.247 38.0477 114.869 38.0477C114.112 38.0477 113.423 37.8924 112.782 37.611C112.122 37.3004 111.618 36.8346 111.288 36.2523C110.948 35.67 110.793 34.7772 110.793 33.6028V29.9053H108.269V27.7702H110.793V23.6941H113.209V27.7702H117.703V29.9053H113.209V33.5737C113.209 34.321 113.297 34.8451 113.452 35.1362L113.442 35.1265C113.588 35.3692 113.811 35.573 114.054 35.7088C114.325 35.8253 114.675 35.9126 115.043 35.9126C115.8 35.9126 116.781 35.5633 117.984 34.8839Z" fill="#1F2328" style="fill:#1F2328;fill:color(display-p3 0.1216 0.1373 0.1569);fill-opacity:1;"/>
<path d="M105.406 32.6809H97.5066V30.507H105.406V32.6809Z" fill="#1F2328" style="fill:#1F2328;fill:color(display-p3 0.1216 0.1373 0.1569);fill-opacity:1;"/>
<path d="M94.071 34.5539V36.9705C92.5376 37.6983 91.1401 38.0574 89.8881 38.0574C87.918 38.0574 86.3264 37.0481 85.385 35.2333C84.9386 34.3501 84.7057 33.3796 84.7057 32.3703C84.7057 31.3998 84.9289 30.4584 85.3559 29.5462C85.7926 28.6436 86.4235 27.9157 87.2096 27.4111C87.9957 26.8967 88.8691 26.6444 89.8687 26.6444C91.1692 26.6444 92.227 27.1296 93.0228 28.0613C93.7895 28.9833 94.2166 30.4293 94.2166 32.2539V32.9914H87.2678C87.3066 33.4864 87.4425 33.9522 87.6463 34.3792C87.918 34.8839 88.2577 35.2721 88.6653 35.5244H88.6556C89.0826 35.7768 89.5582 35.9126 90.1017 35.9126C91.1013 35.9126 92.4405 35.4565 94.071 34.5539ZM91.6447 30.9922V31.1281V31.1766L91.8388 30.9922H91.6447ZM87.4425 30.9922H91.6447C91.635 30.3323 91.4506 29.7791 91.1207 29.3909C90.8004 28.9833 90.354 28.7795 89.7911 28.7795C88.7041 28.7795 87.8501 29.5074 87.4425 30.9922Z" fill="#1F2328" style="fill:#1F2328;fill:color(display-p3 0.1216 0.1373 0.1569);fill-opacity:1;"/>
<path d="M81.2702 37.7663H75.6898V24.5772H72.6619V22.4324H78.1064V35.6312H81.2702V37.7663Z" fill="#1F2328" style="fill:#1F2328;fill:color(display-p3 0.1216 0.1373 0.1569);fill-opacity:1;"/>
<path d="M63.3548 22.4324V28.4301C63.7527 28.0031 64.2185 27.6052 64.6552 27.3431C65.4122 26.887 66.1595 26.6444 66.8194 26.6444C67.7802 26.6444 68.6246 27.052 69.3816 27.8575C70.1094 28.6436 70.4879 29.8276 70.4879 31.4289C70.4879 32.6323 70.2356 33.7678 69.76 34.7286C69.3039 35.67 68.644 36.4949 67.8579 37.0481C67.0524 37.6304 66.0625 37.9021 64.859 37.9021C64.5291 37.9021 64.0244 37.8827 63.3742 37.8148L63.1607 37.7857C63.0927 37.776 63.0248 37.7663 62.986 37.7663H60.9382V22.4324H63.3548ZM63.3548 31.6619V35.6118C63.8206 35.7088 64.2864 35.7573 64.6649 35.7573C65.4996 35.7573 66.3633 35.2818 66.965 34.6995C67.557 33.9716 67.9161 32.8944 67.9161 31.6619C67.9161 30.7399 67.7414 30.0411 67.4212 29.6044C67.1106 29.2065 66.7709 28.993 66.4215 28.993C66.0139 28.993 65.4219 29.2938 64.927 29.7014C64.3641 30.1964 63.8109 30.8563 63.3548 31.6619Z" fill="#1F2328" style="fill:#1F2328;fill:color(display-p3 0.1216 0.1373 0.1569);fill-opacity:1;"/>
<path d="M56.309 37.7663L56.1246 37.6304C56.0082 37.1549 55.9208 36.6599 55.8529 36.1164C55.4356 36.6114 54.9503 37.0481 54.4651 37.349C53.6887 37.8051 52.9414 38.0477 52.3009 38.0477C51.3401 38.0477 50.486 37.6401 49.7388 36.8346C49.0012 36.0388 48.6421 34.8548 48.6421 33.2632C48.6421 32.0404 48.8847 30.934 49.3408 29.9732C49.8067 29.0124 50.4763 28.2166 51.243 27.6537C52.0485 27.0811 53.0773 26.79 54.2419 26.79C54.5815 26.79 55.1056 26.8094 55.7267 26.8773C55.8044 26.8773 55.8529 26.887 55.9208 26.8967L56.1246 26.9258H58.1918V34.4278C58.1918 35.5924 58.3665 36.6987 58.7158 37.7663H56.309ZM55.7655 33.0303V29.0803C55.2997 28.9833 54.8533 28.9348 54.4651 28.9348C53.5819 28.9348 52.7473 29.3618 52.1456 30.012V30.0023C51.5439 30.7302 51.2042 31.7783 51.2042 33.0303C51.2042 33.9716 51.3789 34.651 51.6895 35.0974V35.0877C52 35.4953 52.33 35.6991 52.6891 35.6991C53.1161 35.6991 53.6401 35.4662 54.1933 34.9907C54.7562 34.4957 55.2997 33.8358 55.7655 33.0303Z" fill="#1F2328" style="fill:#1F2328;fill:color(display-p3 0.1216 0.1373 0.1569);fill-opacity:1;"/>
<path d="M43.9254 37.7663V36.2329C43.547 36.6405 43.0326 37.0869 42.625 37.349C41.868 37.8051 41.111 38.0477 40.4608 38.0477C39.5 38.0477 38.6557 37.6401 37.8987 36.8346C37.1611 36.0291 36.802 34.8451 36.802 33.2632C36.802 32.0598 37.0543 30.9243 37.5202 29.9732C37.9666 29.0415 38.6557 28.2069 39.4126 27.6537C40.2182 27.0811 41.2469 26.79 42.4115 26.79C42.7414 26.79 43.2558 26.8094 43.8866 26.8773C43.8866 26.8773 43.8963 26.887 43.9254 26.887V22.4324H46.3517V37.7663H43.9254ZM43.9254 33.0303V29.0803C43.4596 28.9833 43.0229 28.9348 42.6347 28.9348C41.7515 28.9348 40.9266 29.3618 40.3055 30.012V30.0023C39.7135 30.7302 39.3738 31.7686 39.3738 33.0303C39.3738 33.9522 39.5485 34.6413 39.8591 35.0877C40.1599 35.4856 40.4996 35.6991 40.849 35.6991C41.2954 35.6991 41.7904 35.4662 42.3532 34.9907C42.955 34.4957 43.4693 33.8358 43.9254 33.0303Z" fill="#1F2328" style="fill:#1F2328;fill:color(display-p3 0.1216 0.1373 0.1569);fill-opacity:1;"/>
<path d="M32.4347 37.7663L32.2504 37.6304C32.1339 37.1549 32.0465 36.6599 31.9786 36.1164C31.5613 36.6114 31.0761 37.0481 30.5908 37.349C29.8144 37.8051 29.0671 38.0477 28.4266 38.0477C27.4658 38.0477 26.6118 37.6401 25.8645 36.8346C25.1269 36.0388 24.7678 34.8548 24.7678 33.2632C24.7678 32.0404 25.0104 30.934 25.4666 29.9732C25.9324 29.0124 26.6021 28.2166 27.3688 27.6537C28.1743 27.0811 29.203 26.79 30.3676 26.79C30.7073 26.79 31.2313 26.8094 31.8524 26.8773C31.9301 26.8773 31.9786 26.887 32.0465 26.8967L32.2504 26.9258H34.3175V34.4278C34.3175 35.5924 34.4922 36.6987 34.8416 37.7663H32.4347ZM31.8913 33.0303V29.0803C31.4254 28.9833 30.979 28.9348 30.5908 28.9348C29.7077 28.9348 28.873 29.3618 28.2713 30.012V30.0023C27.6696 30.7302 27.3299 31.7783 27.3299 33.0303C27.3299 33.9716 27.5046 34.651 27.8152 35.0974V35.0877C28.1257 35.4953 28.4557 35.6991 28.8148 35.6991C29.2418 35.6991 29.7659 35.4662 30.3191 34.9907C30.882 34.4957 31.4254 33.8358 31.8913 33.0303Z" fill="#1F2328" style="fill:#1F2328;fill:color(display-p3 0.1216 0.1373 0.1569);fill-opacity:1;"/>
<path d="M22.4483 34.5539V36.9705C20.9149 37.6983 19.5174 38.0574 18.2655 38.0574C16.2954 38.0574 14.7037 37.0481 13.7624 35.2333C13.3159 34.3501 13.083 33.3796 13.083 32.3703C13.083 31.3998 13.3062 30.4584 13.7332 29.5462C14.17 28.6436 14.8008 27.9157 15.5869 27.4111C16.373 26.8967 17.2464 26.6444 18.2461 26.6444C19.5465 26.6444 20.6044 27.1296 21.4002 28.0613C22.1669 28.9833 22.5939 30.4293 22.5939 32.2539V32.9914H15.6451C15.6839 33.4864 15.8198 33.9522 16.0236 34.3792C16.2954 34.8839 16.635 35.2721 17.0426 35.5244H17.0329C17.4599 35.7768 17.9355 35.9126 18.479 35.9126C19.4786 35.9126 20.8179 35.4565 22.4483 34.5539ZM20.0221 30.9922V31.1281V31.1766L20.2162 30.9922H20.0221ZM15.8198 30.9922H20.0221C20.0124 30.3323 19.828 29.7791 19.498 29.3909C19.1777 28.9833 18.7313 28.7795 18.1684 28.7795C17.0815 28.7795 16.2274 29.5074 15.8198 30.9922Z" fill="#1F2328" style="fill:#1F2328;fill:color(display-p3 0.1216 0.1373 0.1569);fill-opacity:1;"/>
<path d="M4.66886 37.7663H2.25232V26.9258H4.66886V28.401C5.66847 27.314 6.97864 26.6444 8.36645 26.6444C9.03609 26.6444 9.75426 26.7803 10.5598 27.0229V31.3125H8.21117V28.9542C8.08501 28.9348 7.96855 28.9348 7.91032 28.9348C6.79424 28.9348 5.7267 29.8373 4.66886 31.623V37.7663Z" fill="#1F2328" style="fill:#1F2328;fill:color(display-p3 0.1216 0.1373 0.1569);fill-opacity:1;"/>
<path fill-rule="evenodd" clip-rule="evenodd" d="M7.5244 54.8146C6.56567 55.5536 5.37885 56 3.86335 56C2.83425 56 2 55.1365 2 54.0714C2 53.0063 2.83425 52.1429 3.86335 52.1429C4.60617 52.1429 5.00618 51.9464 5.29855 51.7211C5.6649 51.4387 5.96683 51.0378 6.45229 50.356C6.46847 50.3332 6.4849 50.3101 6.50161 50.2866C6.92874 49.6858 7.52891 48.8416 8.38036 48.1854C9.33909 47.4464 10.5259 47 12.0414 47C13.5569 47 14.7437 47.4464 15.7025 48.1854C16.5539 48.8416 17.1541 49.6858 17.5812 50.2866C17.5979 50.3101 17.6143 50.3332 17.6305 50.356C18.116 51.0378 18.4179 51.4387 18.7843 51.7211C19.0766 51.9464 19.4766 52.1429 20.2195 52.1429C20.9623 52.1429 21.3623 51.9464 21.6547 51.7211C22.021 51.4387 22.3229 51.0378 22.8084 50.356C22.8246 50.3332 22.841 50.3101 22.8577 50.2866C23.2848 49.6858 23.885 48.8416 24.7365 48.1854C25.6952 47.4464 26.882 47 28.3975 47C29.913 47 31.0998 47.4464 32.0586 48.1854C32.91 48.8416 33.5102 49.6858 33.9373 50.2866C33.954 50.3101 33.9705 50.3332 33.9866 50.356C34.4721 51.0378 34.774 51.4387 35.1404 51.7211C35.4327 51.9464 35.8328 52.1429 36.5756 52.1429C37.3184 52.1429 37.7184 51.9464 38.0108 51.7211C38.3771 51.4387 38.679 51.0378 39.1645 50.3559C39.1807 50.3332 39.1971 50.3101 39.2138 50.2866C39.641 49.6858 40.2411 48.8416 41.0926 48.1854C42.0513 47.4464 43.2381 47 44.7536 47C46.2691 47 47.4559 47.4464 48.4147 48.1854C49.2661 48.8416 49.8663 49.6858 50.2934 50.2866C50.3101 50.3101 50.3266 50.3332 50.3427 50.356C50.8282 51.0378 51.1301 51.4387 51.4965 51.7211C51.7888 51.9464 52.1889 52.1429 52.9317 52.1429C53.6745 52.1429 54.0745 51.9464 54.3669 51.7211C54.7332 51.4387 55.0352 51.0378 55.5206 50.356C55.5368 50.3332 55.5532 50.3101 55.5699 50.2866C55.997 49.6858 56.5972 48.8416 57.4487 48.1854C58.4074 47.4464 59.5942 47 61.1097 47C62.6252 47 63.812 47.4464 64.7708 48.1854C65.6222 48.8416 66.2224 49.6858 66.6495 50.2866C66.6662 50.3101 66.6827 50.3332 66.6988 50.356C67.1843 51.0378 67.4862 51.4387 67.8526 51.7211C68.1449 51.9464 68.545 52.1429 69.2878 52.1429C70.0306 52.1429 70.4306 51.9464 70.723 51.7211C71.0893 51.4387 71.3913 51.0378 71.8767 50.3559C71.8929 50.3332 71.9093 50.3101 71.926 50.2866C72.3532 49.6858 72.9533 48.8416 73.8048 48.1854C74.7635 47.4464 75.9503 47 77.4658 47C78.9813 47 80.1682 47.4464 81.1269 48.1854C81.9783 48.8416 82.5785 49.6858 83.0057 50.2866C83.0224 50.3101 83.0388 50.3332 83.055 50.356C83.5404 51.0378 83.8423 51.4387 84.2087 51.7211C84.5011 51.9464 84.9011 52.1429 85.6439 52.1429C86.3867 52.1429 86.7867 51.9464 87.0791 51.7211C87.4454 51.4387 87.7474 51.0378 88.2328 50.356L88.2822 50.2866C88.7093 49.6858 89.3095 48.8416 90.1609 48.1854C91.1196 47.4464 92.3065 47 93.8219 47C95.3374 47 96.5243 47.4464 97.483 48.1854C98.3345 48.8416 98.9347 49.6859 99.3618 50.2867C99.3785 50.3102 99.3949 50.3333 99.4111 50.3559C99.8965 51.0378 100.198 51.4387 100.565 51.7211C100.857 51.9464 101.257 52.1429 102 52.1429C102.743 52.1429 103.143 51.9464 103.435 51.7211C103.802 51.4387 104.103 51.0378 104.589 50.356L104.638 50.2866C105.065 49.6858 105.666 48.8416 106.517 48.1854C107.476 47.4464 108.663 47 110.178 47C111.694 47 112.88 47.4464 113.839 48.1854C114.691 48.8416 115.291 49.6858 115.718 50.2867C115.735 50.3101 115.751 50.3332 115.767 50.356C116.253 51.0378 116.555 51.4387 116.921 51.7211C117.213 51.9464 117.613 52.1429 118.356 52.1429C119.099 52.1429 119.499 51.9464 119.791 51.7211C120.158 51.4387 120.46 51.0378 120.945 50.356L120.994 50.2866C121.422 49.6858 122.022 48.8416 122.873 48.1854C123.832 47.4464 125.019 47 126.534 47C128.05 47 129.236 47.4464 130.195 48.1854C131.047 48.8416 131.647 49.6858 132.074 50.2866L132.123 50.356C132.609 51.0378 132.911 51.4387 133.277 51.7211C133.569 51.9464 133.969 52.1429 134.712 52.1429C135.455 52.1429 135.855 51.9464 136.147 51.7211C136.514 51.4387 136.816 51.0378 137.301 50.356L137.35 50.2867C137.778 49.6858 138.378 48.8416 139.229 48.1854C140.188 47.4464 141.375 47 142.89 47C144.406 47 145.593 47.4464 146.551 48.1853C147.403 48.8416 148.003 49.6858 148.43 50.2866L148.479 50.3559C148.965 51.0378 149.267 51.4387 149.633 51.7211C149.925 51.9464 150.326 52.1429 151.068 52.1429C151.811 52.1429 152.211 51.9464 152.504 51.7211C152.87 51.4387 153.172 51.0378 153.657 50.356L153.707 50.2867C154.134 49.6858 154.734 48.8416 155.585 48.1854C156.544 47.4464 157.731 47 159.246 47C160.762 47 161.949 47.4464 162.907 48.1854C163.759 48.8416 164.359 49.6858 164.786 50.2866L164.836 50.356C165.321 51.0378 165.623 51.4387 165.989 51.7211C166.282 51.9464 166.682 52.1429 167.424 52.1429C168.167 52.1429 168.567 51.9464 168.86 51.7211C169.226 51.4387 169.528 51.0378 170.013 50.356L170.063 50.2867C170.49 49.6859 171.09 48.8417 171.941 48.1854C172.9 47.4464 174.087 47 175.603 47C177.118 47 178.305 47.4464 179.264 48.1854C180.115 48.8417 180.715 49.6859 181.142 50.2867L181.192 50.356C181.677 51.0378 181.979 51.4387 182.345 51.7211C182.638 51.9464 183.038 52.1429 183.781 52.1429C184.523 52.1429 184.923 51.9464 185.216 51.7211C185.582 51.4387 185.884 51.0378 186.369 50.3559L186.419 50.2866C186.846 49.6858 187.446 48.8416 188.298 48.1853C189.256 47.4464 190.443 47 191.959 47C193.474 47 194.661 47.4464 195.62 48.1854C196.471 48.8416 197.071 49.6858 197.498 50.2866L197.548 50.356C198.033 51.0378 198.335 51.4387 198.701 51.7211C198.994 51.9464 199.394 52.1429 200.137 52.1429C201.166 52.1429 202 53.0063 202 54.0714C202 55.1365 201.166 56 200.137 56C198.621 56 197.434 55.5536 196.476 54.8146C195.624 54.1584 195.024 53.3142 194.597 52.7134L194.548 52.644C194.062 51.9622 193.76 51.5613 193.394 51.2789C193.101 51.0536 192.701 50.8571 191.959 50.8571C191.216 50.8571 190.816 51.0536 190.523 51.2789C190.157 51.5613 189.855 51.9622 189.37 52.6441L189.32 52.7134C188.893 53.3142 188.293 54.1584 187.442 54.8147C186.483 55.5536 185.296 56 183.781 56C182.265 56 181.078 55.5536 180.119 54.8146C179.268 54.1584 178.668 53.3142 178.241 52.7134L178.191 52.644C177.706 51.9622 177.404 51.5613 177.038 51.2789C176.745 51.0536 176.345 50.8571 175.603 50.8571C174.86 50.8571 174.46 51.0536 174.167 51.2789C173.801 51.5613 173.499 51.9622 173.014 52.644L172.964 52.7134C172.537 53.3142 171.937 54.1584 171.085 54.8146C170.127 55.5536 168.94 56 167.424 56C165.909 56 164.722 55.5536 163.763 54.8146C162.912 54.1584 162.312 53.3142 161.885 52.7134L161.835 52.644C161.35 51.9622 161.048 51.5613 160.682 51.2789C160.389 51.0536 159.989 50.8571 159.246 50.8571C158.504 50.8571 158.104 51.0536 157.811 51.2789C157.445 51.5613 157.143 51.9622 156.657 52.644L156.608 52.7134C156.181 53.3142 155.581 54.1584 154.729 54.8146C153.771 55.5536 152.584 56 151.068 56C149.553 56 148.366 55.5536 147.407 54.8147C146.556 54.1584 145.956 53.3142 145.529 52.7134L145.479 52.6441C144.994 51.9622 144.692 51.5613 144.325 51.2789C144.033 51.0536 143.633 50.8571 142.89 50.8571C142.147 50.8571 141.747 51.0536 141.455 51.2789C141.089 51.5613 140.787 51.9622 140.301 52.644L140.252 52.7133C139.825 53.3142 139.225 54.1584 138.373 54.8146C137.415 55.5536 136.228 56 134.712 56C133.197 56 132.01 55.5536 131.051 54.8146C130.2 54.1584 129.6 53.3142 129.172 52.7133L129.123 52.644C128.638 51.9622 128.336 51.5613 127.969 51.2789C127.677 51.0536 127.277 50.8571 126.534 50.8571C125.791 50.8571 125.391 51.0536 125.099 51.2789C124.733 51.5613 124.431 51.9622 123.945 52.644L123.896 52.7133C123.469 53.3141 122.869 54.1584 122.017 54.8146C121.058 55.5536 119.872 56 118.356 56C116.841 56 115.654 55.5536 114.695 54.8146C113.844 54.1584 113.243 53.3142 112.816 52.7134L112.767 52.644C112.282 51.9622 111.98 51.5613 111.613 51.2789C111.321 51.0536 110.921 50.8571 110.178 50.8571C109.435 50.8571 109.035 51.0536 108.743 51.2789C108.377 51.5613 108.075 51.9622 107.589 52.644L107.54 52.7134C107.113 53.3142 106.512 54.1584 105.661 54.8146C104.702 55.5536 103.516 56 102 56C100.485 56 99.2977 55.5536 98.339 54.8146C97.4875 54.1584 96.8873 53.3142 96.4602 52.7134L96.4109 52.6441C95.9254 51.9622 95.6235 51.5613 95.2571 51.2789C94.9648 51.0536 94.5648 50.8571 93.8219 50.8571C93.0791 50.8571 92.6791 51.0536 92.3867 51.2789C92.0204 51.5613 91.7185 51.9622 91.233 52.644C91.2168 52.6668 91.2004 52.6899 91.1837 52.7133C90.7566 53.3142 90.1564 54.1584 89.3049 54.8146C88.3462 55.5536 87.1594 56 85.6439 56C84.1284 56 82.9416 55.5536 81.9828 54.8146C81.1314 54.1584 80.5312 53.3142 80.1041 52.7134C80.0874 52.6899 80.0709 52.6668 80.0548 52.644C79.5693 51.9622 79.2674 51.5613 78.901 51.2789C78.6087 51.0536 78.2087 50.8571 77.4658 50.8571C76.723 50.8571 76.323 51.0536 76.0306 51.2789C75.6643 51.5613 75.3624 51.9622 74.8769 52.6441C74.8607 52.6668 74.8443 52.6899 74.8276 52.7134C74.4005 53.3142 73.8003 54.1584 72.9488 54.8146C71.9901 55.5536 70.8033 56 69.2878 56C67.7723 56 66.5855 55.5536 65.6267 54.8146C64.7753 54.1584 64.1751 53.3142 63.748 52.7134C63.7313 52.6899 63.7148 52.6668 63.6987 52.644C63.2132 51.9622 62.9113 51.5613 62.5449 51.2789C62.2526 51.0536 61.8525 50.8571 61.1097 50.8571C60.3669 50.8571 59.9669 51.0536 59.6745 51.2789C59.3082 51.5613 59.0063 51.9622 58.5208 52.644C58.5046 52.6668 58.4882 52.6899 58.4715 52.7134C58.0443 53.3142 57.4442 54.1584 56.5927 54.8146C55.634 55.5536 54.4472 56 52.9317 56C51.4162 56 50.2294 55.5536 49.2706 54.8146C48.4192 54.1584 47.819 53.3142 47.3919 52.7134C47.3752 52.6899 47.3587 52.6668 47.3426 52.644C46.8571 51.9622 46.5552 51.5613 46.1888 51.2789C45.8965 51.0536 45.4964 50.8571 44.7536 50.8571C44.0108 50.8571 43.6108 51.0536 43.3184 51.2789C42.9521 51.5613 42.6502 51.9622 42.1647 52.644C42.1485 52.6668 42.1321 52.6899 42.1154 52.7134C41.6882 53.3142 41.0881 54.1584 40.2366 54.8146C39.2779 55.5536 38.0911 56 36.5756 56C35.0601 56 33.8733 55.5536 32.9145 54.8146C32.0631 54.1584 31.4629 53.3142 31.0358 52.7134C31.0191 52.6899 31.0026 52.6668 30.9865 52.644C30.501 51.9622 30.1991 51.5613 29.8327 51.2789C29.5403 51.0536 29.1403 50.8571 28.3975 50.8571C27.6547 50.8571 27.2547 51.0536 26.9623 51.2789C26.596 51.5613 26.294 51.9622 25.8086 52.644C25.7924 52.6668 25.776 52.6899 25.7593 52.7134C25.3321 53.3142 24.732 54.1584 23.8805 54.8146C22.9218 55.5536 21.735 56 20.2195 56C18.704 56 17.5172 55.5536 16.5584 54.8146C15.707 54.1584 15.1068 53.3142 14.6797 52.7134C14.663 52.6899 14.6465 52.6668 14.6303 52.644C14.1449 51.9622 13.843 51.5613 13.4766 51.2789C13.1842 51.0536 12.7842 50.8571 12.0414 50.8571C11.2986 50.8571 10.8986 51.0536 10.6062 51.2789C10.2399 51.5613 9.93793 51.9622 9.45247 52.644C9.43629 52.6668 9.41986 52.6899 9.40316 52.7134C8.97602 53.3142 8.37585 54.1584 7.5244 54.8146Z" fill="#D0B243" style="fill:#D0B243;fill:color(display-p3 0.8157 0.6980 0.2627);fill-opacity:1;"/>
</svg>
