<svg width="128" height="128" viewBox="0 0 128 128" fill="none" xmlns="http://www.w3.org/2000/svg">
<path fill-rule="evenodd" clip-rule="evenodd" d="M32.1324 63.6893L32 63.9186L32.0253 63.9623C32.0606 63.8708 32.0964 63.7798 32.1324 63.6893ZM35.9006 57.1626C39.8396 52.3912 45.4959 50.0055 52.8707 50.0055C63.9049 50.0055 68.9561 55.3447 73.3216 59.9635C75.9999 62.7959 78.4217 65.3558 81.8101 66.2371C86.7088 67.5137 91.1024 66.1577 94.99 62.1691L80 36.2057L48 36.2058L35.9006 57.1626ZM95.9753 63.8758C95.9408 63.9651 95.906 64.0539 95.8708 64.1423L96 63.9186L95.9753 63.8758ZM92.0966 70.6794C88.1578 75.4474 82.5024 77.8316 75.131 77.8316C64.0968 77.8316 59.0439 72.4906 54.6783 67.8754C52.0001 65.0413 49.5783 62.4814 46.1916 61.6C41.293 60.3249 36.8995 61.6811 33.011 65.6696L48 91.6314L80 91.6314L92.0966 70.6794Z" fill="white" style="fill:white;fill-opacity:1;"/>
</svg>
