<svg width="206" height="91" viewBox="0 0 206 91" fill="none" xmlns="http://www.w3.org/2000/svg">
<path d="M44.6377 77.0508L54.8066 82.1221L44.6377 87.2197V84.9961L50.4209 82.1309L48.3291 81.0762L44.6377 79.2217V77.0508Z" fill="#56B6C2" style="fill:#56B6C2;fill:color(display-p3 0.3373 0.7137 0.7608);fill-opacity:1;"/>
<path d="M44.1543 72.9727L35.5586 87.3955H33.2471L41.8955 72.9727H44.1543Z" fill="#56B6C2" style="fill:#56B6C2;fill:color(display-p3 0.3373 0.7137 0.7608);fill-opacity:1;"/>
<path d="M16.2314 81.9287C16.4072 81.7354 16.6533 81.542 16.9521 81.3486C16.2139 80.874 15.8623 80.3643 15.6514 79.8809C15.5195 79.5732 15.4404 79.1777 15.4404 78.791C15.4404 78.4307 15.4844 77.9736 15.5986 77.4814L15.8096 76.5322C15.9062 76.0312 15.9766 75.6357 15.9766 75.4424C15.9766 75.2139 15.8711 75.0117 15.6777 74.8359H15.6865C15.4844 74.6426 15.0186 74.5547 14.2803 74.5547H12.6543V72.5771H14.2979C15.9238 72.5771 16.9873 72.8672 17.5059 73.4473C17.9893 73.9922 18.2529 74.625 18.2529 75.3193C18.2529 75.6621 18.2178 76.04 18.1035 76.4619L18.1123 76.4531L17.9717 77.1123L17.8926 77.499C17.875 77.6221 17.8398 77.7275 17.8223 77.8418L17.7256 78.29C17.6816 78.4922 17.6641 78.668 17.6641 78.8262C17.6641 79.2568 17.8135 79.6084 18.0947 79.9072C18.376 80.2061 18.9033 80.3555 19.6943 80.3555H20.7754V82.333H19.6943C18.9121 82.333 18.3936 82.4824 18.0947 82.7812C17.8135 83.0801 17.6641 83.4316 17.6641 83.8975C17.6641 84.0469 17.6816 84.2139 17.7168 84.3984L17.708 84.3896L17.8135 84.8467L17.9629 85.5762C18.0068 85.7959 18.0684 86.0244 18.1123 86.2354L18.1035 86.2266C18.2178 86.6572 18.2529 87.0352 18.2529 87.3779C18.2529 88.0635 17.9629 88.7314 17.4971 89.2588C16.9697 89.8125 15.8975 90.1113 14.2979 90.1113H12.6543V88.1426H14.2803C15.0186 88.1426 15.4844 88.0547 15.6865 87.8613H15.6777C15.8711 87.6855 15.9766 87.4834 15.9766 87.2461C15.9766 87.0615 15.9062 86.666 15.8096 86.165L15.5986 85.2158C15.4932 84.7236 15.4404 84.2666 15.4404 83.9062C15.4404 83.0889 15.7041 82.5088 16.2314 81.9287Z" fill="#E06C75" style="fill:#E06C75;fill:color(display-p3 0.8784 0.4235 0.4588);fill-opacity:1;"/>
<path d="M5.75488 72.8496L8.83105 76.2422H6.50195L2.93359 72.8496H5.75488Z" fill="#98C379" style="fill:#98C379;fill:color(display-p3 0.5961 0.7647 0.4745);fill-opacity:1;"/>
<path d="M202.814 63V61.6113C202.472 61.9805 202.006 62.3848 201.637 62.6221C200.951 63.0352 200.266 63.2549 199.677 63.2549C198.807 63.2549 198.042 62.8857 197.356 62.1562C196.688 61.4268 196.363 60.3545 196.363 58.9219C196.363 57.832 196.592 56.8037 197.014 55.9424C197.418 55.0986 198.042 54.3428 198.728 53.8418C199.457 53.3232 200.389 53.0596 201.443 53.0596C201.742 53.0596 202.208 53.0771 202.779 53.1387C202.779 53.1387 202.788 53.1475 202.814 53.1475V49.1133H205.012V63H202.814ZM202.814 58.7109V55.1338C202.393 55.0459 201.997 55.002 201.646 55.002C200.846 55.002 200.099 55.3887 199.536 55.9775V55.9688C199 56.6279 198.692 57.5684 198.692 58.7109C198.692 59.5459 198.851 60.1699 199.132 60.5742C199.404 60.9346 199.712 61.1279 200.028 61.1279C200.433 61.1279 200.881 60.917 201.391 60.4863C201.936 60.0381 202.401 59.4404 202.814 58.7109Z" fill="#98C379" style="fill:#98C379;fill:color(display-p3 0.5961 0.7647 0.4745);fill-opacity:1;"/>
<path d="M188.084 63H185.896V53.1826H188.084V54.501C188.418 54.1143 188.761 53.8242 189.156 53.5693C189.815 53.1387 190.492 52.9277 191.187 52.9277C191.802 52.9277 192.355 53.0859 192.848 53.4111C193.349 53.7451 193.718 54.1846 193.911 54.7031C194.096 55.2041 194.192 56.1621 194.192 57.5508V63H191.995V57.3662C191.995 56.5312 191.96 55.9863 191.89 55.7314C191.819 55.5205 191.696 55.3271 191.529 55.2041C191.362 55.0635 191.187 55.002 191.002 55.002C190.545 55.002 190.035 55.2217 189.49 55.6787C188.937 56.1357 188.479 56.7246 188.084 57.4277V63Z" fill="#98C379" style="fill:#98C379;fill:color(display-p3 0.5961 0.7647 0.4745);fill-opacity:1;"/>
<path d="M182.38 63H177.634V55.1162H175.094V53.1826H179.822V61.0664H182.38V63ZM177.379 50.2119C177.379 49.7637 177.563 49.4121 177.871 49.1748C178.152 48.9639 178.46 48.8584 178.724 48.8584C179.014 48.8584 179.321 48.9639 179.603 49.1748C179.91 49.4121 180.086 49.7637 180.086 50.2119C180.086 50.6602 179.91 51.0029 179.603 51.2402C179.312 51.46 179.005 51.5654 178.724 51.5654C178.442 51.5654 178.152 51.46 177.871 51.2402C177.563 51.0029 177.379 50.6602 177.379 50.2119Z" fill="#98C379" style="fill:#98C379;fill:color(display-p3 0.5961 0.7647 0.4745);fill-opacity:1;"/>
<path d="M166.727 63H164.705L163.105 53.1826H165.197L166.041 58.5264L167.447 53.1826H169.319L170.919 58.6055L171.78 53.1826H173.635L172.044 63H170.084L168.282 56.9883L166.727 63Z" fill="#98C379" style="fill:#98C379;fill:color(display-p3 0.5961 0.7647 0.4745);fill-opacity:1;"/>
<path d="M160.961 63H155.907V51.0557H153.165V49.1133H158.096V61.0664H160.961V63Z" fill="#98C379" style="fill:#98C379;fill:color(display-p3 0.5961 0.7647 0.4745);fill-opacity:1;"/>
<path d="M149.948 63H145.202V55.1162H142.662V53.1826H147.391V61.0664H149.948V63ZM144.947 50.2119C144.947 49.7637 145.132 49.4121 145.439 49.1748C145.721 48.9639 146.028 48.8584 146.292 48.8584C146.582 48.8584 146.89 48.9639 147.171 49.1748C147.479 49.4121 147.654 49.7637 147.654 50.2119C147.654 50.6602 147.479 51.0029 147.171 51.2402C146.881 51.46 146.573 51.5654 146.292 51.5654C146.011 51.5654 145.721 51.46 145.439 51.2402C145.132 51.0029 144.947 50.6602 144.947 50.2119Z" fill="#98C379" style="fill:#98C379;fill:color(display-p3 0.5961 0.7647 0.4745);fill-opacity:1;"/>
<path d="M138.355 63L138.188 62.877C138.083 62.4463 138.004 61.998 137.942 61.5059C137.564 61.9541 137.125 62.3496 136.686 62.6221C135.982 63.0352 135.306 63.2549 134.726 63.2549C133.855 63.2549 133.082 62.8857 132.405 62.1562C131.737 61.4355 131.412 60.3633 131.412 58.9219C131.412 57.8145 131.632 56.8125 132.045 55.9424C132.467 55.0723 133.073 54.3516 133.768 53.8418C134.497 53.3232 135.429 53.0596 136.483 53.0596C136.791 53.0596 137.266 53.0771 137.828 53.1387C137.898 53.1387 137.942 53.1475 138.004 53.1562L138.188 53.1826H140.061V59.9766C140.061 61.0312 140.219 62.0332 140.535 63H138.355ZM137.863 58.7109V55.1338C137.441 55.0459 137.037 55.002 136.686 55.002C135.886 55.002 135.13 55.3887 134.585 55.9775V55.9688C134.04 56.6279 133.732 57.5771 133.732 58.7109C133.732 59.5635 133.891 60.1787 134.172 60.583V60.5742C134.453 60.9434 134.752 61.1279 135.077 61.1279C135.464 61.1279 135.938 60.917 136.439 60.4863C136.949 60.0381 137.441 59.4404 137.863 58.7109Z" fill="#98C379" style="fill:#98C379;fill:color(display-p3 0.5961 0.7647 0.4745);fill-opacity:1;"/>
<path d="M129.347 60.3896V62.5166C128.459 62.877 127.853 63.1143 127.519 63.1582C127.202 63.2197 126.868 63.2549 126.525 63.2549C125.84 63.2549 125.216 63.1143 124.636 62.8594C124.038 62.5781 123.581 62.1562 123.282 61.6289C122.975 61.1016 122.834 60.293 122.834 59.2295V55.8809H120.549V53.9473H122.834V50.2559H125.022V53.9473H129.092V55.8809H125.022V59.2031C125.022 59.8799 125.102 60.3545 125.242 60.6182L125.233 60.6094C125.365 60.8291 125.567 61.0137 125.787 61.1367C126.033 61.2422 126.35 61.3213 126.684 61.3213C127.369 61.3213 128.257 61.0049 129.347 60.3896Z" fill="#98C379" style="fill:#98C379;fill:color(display-p3 0.5961 0.7647 0.4745);fill-opacity:1;"/>
<path d="M107.69 60.0908V62.2793C106.302 62.9385 105.036 63.2637 103.902 63.2637C102.118 63.2637 100.677 62.3496 99.8242 60.7061C99.4199 59.9062 99.209 59.0273 99.209 58.1133C99.209 57.2344 99.4111 56.3818 99.7979 55.5557C100.193 54.7383 100.765 54.0791 101.477 53.6221C102.188 53.1562 102.979 52.9277 103.885 52.9277C105.062 52.9277 106.021 53.3672 106.741 54.2109C107.436 55.0459 107.822 56.3555 107.822 58.0078V58.6758H101.529C101.564 59.124 101.688 59.5459 101.872 59.9326C102.118 60.3896 102.426 60.7412 102.795 60.9697H102.786C103.173 61.1982 103.604 61.3213 104.096 61.3213C105.001 61.3213 106.214 60.9082 107.69 60.0908ZM105.493 56.8652V56.9883V57.0322L105.669 56.8652H105.493ZM101.688 56.8652H105.493C105.484 56.2676 105.317 55.7666 105.019 55.415C104.729 55.0459 104.324 54.8613 103.814 54.8613C102.83 54.8613 102.057 55.5205 101.688 56.8652Z" fill="#98C379" style="fill:#98C379;fill:color(display-p3 0.5961 0.7647 0.4745);fill-opacity:1;"/>
<path d="M96.0977 63H91.0439V51.0557H88.3018V49.1133H93.2324V61.0664H96.0977V63Z" fill="#98C379" style="fill:#98C379;fill:color(display-p3 0.5961 0.7647 0.4745);fill-opacity:1;"/>
<path d="M79.873 49.1133V54.5449C80.2334 54.1582 80.6553 53.7979 81.0508 53.5605C81.7363 53.1475 82.4131 52.9277 83.0107 52.9277C83.8809 52.9277 84.6455 53.2969 85.3311 54.0264C85.9902 54.7383 86.333 55.8105 86.333 57.2607C86.333 58.3506 86.1045 59.3789 85.6738 60.249C85.2607 61.1016 84.6631 61.8486 83.9512 62.3496C83.2217 62.877 82.3252 63.123 81.2354 63.123C80.9365 63.123 80.4795 63.1055 79.8906 63.0439L79.6973 63.0176C79.6357 63.0088 79.5742 63 79.5391 63H77.6846V49.1133H79.873ZM79.873 57.4717V61.0488C80.2949 61.1367 80.7168 61.1807 81.0596 61.1807C81.8154 61.1807 82.5977 60.75 83.1426 60.2227C83.6787 59.5635 84.0039 58.5879 84.0039 57.4717C84.0039 56.6367 83.8457 56.0039 83.5557 55.6084C83.2744 55.248 82.9668 55.0547 82.6504 55.0547C82.2812 55.0547 81.7451 55.3271 81.2969 55.6963C80.7871 56.1445 80.2861 56.7422 79.873 57.4717Z" fill="#98C379" style="fill:#98C379;fill:color(display-p3 0.5961 0.7647 0.4745);fill-opacity:1;"/>
<path d="M73.4922 63L73.3252 62.877C73.2197 62.4463 73.1406 61.998 73.0791 61.5059C72.7012 61.9541 72.2617 62.3496 71.8223 62.6221C71.1191 63.0352 70.4424 63.2549 69.8623 63.2549C68.9922 63.2549 68.2188 62.8857 67.542 62.1562C66.874 61.4355 66.5488 60.3633 66.5488 58.9219C66.5488 57.8145 66.7686 56.8125 67.1816 55.9424C67.6035 55.0723 68.21 54.3516 68.9043 53.8418C69.6338 53.3232 70.5654 53.0596 71.6201 53.0596C71.9277 53.0596 72.4023 53.0771 72.9648 53.1387C73.0352 53.1387 73.0791 53.1475 73.1406 53.1562L73.3252 53.1826H75.1973V59.9766C75.1973 61.0312 75.3555 62.0332 75.6719 63H73.4922ZM73 58.7109V55.1338C72.5781 55.0459 72.1738 55.002 71.8223 55.002C71.0225 55.002 70.2666 55.3887 69.7217 55.9775V55.9688C69.1768 56.6279 68.8691 57.5771 68.8691 58.7109C68.8691 59.5635 69.0273 60.1787 69.3086 60.583V60.5742C69.5898 60.9434 69.8887 61.1279 70.2139 61.1279C70.6006 61.1279 71.0752 60.917 71.5762 60.4863C72.0859 60.0381 72.5781 59.4404 73 58.7109Z" fill="#98C379" style="fill:#98C379;fill:color(display-p3 0.5961 0.7647 0.4745);fill-opacity:1;"/>
<path d="M62.2773 63V61.6113C61.9346 61.9805 61.4688 62.3848 61.0996 62.6221C60.4141 63.0352 59.7285 63.2549 59.1396 63.2549C58.2695 63.2549 57.5049 62.8857 56.8193 62.1562C56.1514 61.4268 55.8262 60.3545 55.8262 58.9219C55.8262 57.832 56.0547 56.8037 56.4766 55.9424C56.8809 55.0986 57.5049 54.3428 58.1904 53.8418C58.9199 53.3232 59.8516 53.0596 60.9062 53.0596C61.2051 53.0596 61.6709 53.0771 62.2422 53.1387C62.2422 53.1387 62.251 53.1475 62.2773 53.1475V49.1133H64.4746V63H62.2773ZM62.2773 58.7109V55.1338C61.8555 55.0459 61.46 55.002 61.1084 55.002C60.3086 55.002 59.5615 55.3887 58.999 55.9775V55.9688C58.4629 56.6279 58.1553 57.5684 58.1553 58.7109C58.1553 59.5459 58.3135 60.1699 58.5947 60.5742C58.8672 60.9346 59.1748 61.1279 59.4912 61.1279C59.8955 61.1279 60.3438 60.917 60.8535 60.4863C61.3984 60.0381 61.8643 59.4404 62.2773 58.7109Z" fill="#98C379" style="fill:#98C379;fill:color(display-p3 0.5961 0.7647 0.4745);fill-opacity:1;"/>
<path d="M51.8711 63L51.7041 62.877C51.5986 62.4463 51.5195 61.998 51.458 61.5059C51.0801 61.9541 50.6406 62.3496 50.2012 62.6221C49.498 63.0352 48.8213 63.2549 48.2412 63.2549C47.3711 63.2549 46.5977 62.8857 45.9209 62.1562C45.2529 61.4355 44.9277 60.3633 44.9277 58.9219C44.9277 57.8145 45.1475 56.8125 45.5605 55.9424C45.9824 55.0723 46.5889 54.3516 47.2832 53.8418C48.0127 53.3232 48.9443 53.0596 49.999 53.0596C50.3066 53.0596 50.7812 53.0771 51.3438 53.1387C51.4141 53.1387 51.458 53.1475 51.5195 53.1562L51.7041 53.1826H53.5762V59.9766C53.5762 61.0312 53.7344 62.0332 54.0508 63H51.8711ZM51.3789 58.7109V55.1338C50.957 55.0459 50.5527 55.002 50.2012 55.002C49.4014 55.002 48.6455 55.3887 48.1006 55.9775V55.9688C47.5557 56.6279 47.248 57.5771 47.248 58.7109C47.248 59.5635 47.4062 60.1787 47.6875 60.583V60.5742C47.9688 60.9434 48.2676 61.1279 48.5928 61.1279C48.9795 61.1279 49.4541 60.917 49.9551 60.4863C50.4648 60.0381 50.957 59.4404 51.3789 58.7109Z" fill="#98C379" style="fill:#98C379;fill:color(display-p3 0.5961 0.7647 0.4745);fill-opacity:1;"/>
<path d="M42.8271 60.0908V62.2793C41.4385 62.9385 40.1729 63.2637 39.0391 63.2637C37.2549 63.2637 35.8135 62.3496 34.9609 60.7061C34.5566 59.9062 34.3457 59.0273 34.3457 58.1133C34.3457 57.2344 34.5479 56.3818 34.9346 55.5557C35.3301 54.7383 35.9014 54.0791 36.6133 53.6221C37.3252 53.1562 38.1162 52.9277 39.0215 52.9277C40.1992 52.9277 41.1572 53.3672 41.8779 54.2109C42.5723 55.0459 42.959 56.3555 42.959 58.0078V58.6758H36.666C36.7012 59.124 36.8242 59.5459 37.0088 59.9326C37.2549 60.3896 37.5625 60.7412 37.9316 60.9697H37.9229C38.3096 61.1982 38.7402 61.3213 39.2324 61.3213C40.1377 61.3213 41.3506 60.9082 42.8271 60.0908ZM40.6299 56.8652V56.9883V57.0322L40.8057 56.8652H40.6299ZM36.8242 56.8652H40.6299C40.6211 56.2676 40.4541 55.7666 40.1553 55.415C39.8652 55.0459 39.4609 54.8613 38.9512 54.8613C37.9668 54.8613 37.1934 55.5205 36.8242 56.8652Z" fill="#98C379" style="fill:#98C379;fill:color(display-p3 0.5961 0.7647 0.4745);fill-opacity:1;"/>
<path d="M26.7256 63H24.5371V53.1826H26.7256V54.5186C27.6309 53.5342 28.8174 52.9277 30.0742 52.9277C30.6807 52.9277 31.3311 53.0508 32.0605 53.2705V57.1553H29.9336V55.0195C29.8193 55.002 29.7139 55.002 29.6611 55.002C28.6504 55.002 27.6836 55.8193 26.7256 57.4365V63Z" fill="#98C379" style="fill:#98C379;fill:color(display-p3 0.5961 0.7647 0.4745);fill-opacity:1;"/>
<path d="M155.652 39H153.464V29.1826H155.652V30.501C155.986 30.1143 156.329 29.8242 156.725 29.5693C157.384 29.1387 158.061 28.9277 158.755 28.9277C159.37 28.9277 159.924 29.0859 160.416 29.4111C160.917 29.7451 161.286 30.1846 161.479 30.7031C161.664 31.2041 161.761 32.1621 161.761 33.5508V39H159.563V33.3662C159.563 32.5312 159.528 31.9863 159.458 31.7314C159.388 31.5205 159.265 31.3271 159.098 31.2041C158.931 31.0635 158.755 31.002 158.57 31.002C158.113 31.002 157.604 31.2217 157.059 31.6787C156.505 32.1357 156.048 32.7246 155.652 33.4277V39Z" fill="#98C379" style="fill:#98C379;fill:color(display-p3 0.5961 0.7647 0.4745);fill-opacity:1;"/>
<path d="M149.948 39H145.202V31.1162H142.662V29.1826H147.391V37.0664H149.948V39ZM144.947 26.2119C144.947 25.7637 145.132 25.4121 145.439 25.1748C145.721 24.9639 146.028 24.8584 146.292 24.8584C146.582 24.8584 146.89 24.9639 147.171 25.1748C147.479 25.4121 147.654 25.7637 147.654 26.2119C147.654 26.6602 147.479 27.0029 147.171 27.2402C146.881 27.46 146.573 27.5654 146.292 27.5654C146.011 27.5654 145.721 27.46 145.439 27.2402C145.132 27.0029 144.947 26.6602 144.947 26.2119Z" fill="#98C379" style="fill:#98C379;fill:color(display-p3 0.5961 0.7647 0.4745);fill-opacity:1;"/>
<path d="M137.951 37.9014V37.6113C137.608 37.9805 137.143 38.3848 136.773 38.6221C136.088 39.0352 135.402 39.2549 134.813 39.2549C133.943 39.2549 133.179 38.8857 132.493 38.1562C131.825 37.4268 131.5 36.3545 131.5 34.9219C131.5 33.832 131.729 32.8037 132.15 31.9424C132.555 31.0986 133.179 30.3428 133.864 29.8418C134.594 29.3232 135.525 29.0596 136.58 29.0596C136.879 29.0596 137.354 29.0771 137.925 29.1387L138.118 29.165H138.109C138.18 29.1738 138.25 29.1826 138.294 29.1826H140.148V35.9854C140.148 37.4707 140.122 38.4551 140.078 38.8418C140.052 39.1582 139.973 39.5537 139.867 39.9316C139.621 40.793 139.059 41.5576 138.224 42.0586C137.389 42.5596 136.387 42.8057 135.235 42.8057C134.066 42.8057 132.827 42.4893 131.535 41.8389V39.457C132.265 39.9404 132.977 40.3271 133.574 40.5469C134.181 40.749 134.761 40.8721 135.297 40.8721C136.123 40.8721 136.905 40.5996 137.371 40.125C137.591 39.8877 137.749 39.6152 137.819 39.2988C137.898 38.9473 137.951 38.4902 137.951 37.9014ZM137.951 34.7109V31.1338C137.529 31.0459 137.134 31.002 136.782 31.002C135.982 31.002 135.235 31.3887 134.673 31.9775V31.9688C134.137 32.6279 133.829 33.5684 133.829 34.7109C133.829 35.5459 133.987 36.1699 134.269 36.5742C134.541 36.9346 134.849 37.1279 135.165 37.1279C135.569 37.1279 136.018 36.917 136.527 36.4863C137.072 36.0381 137.538 35.4404 137.951 34.7109Z" fill="#98C379" style="fill:#98C379;fill:color(display-p3 0.5961 0.7647 0.4745);fill-opacity:1;"/>
<path d="M127.044 29.1826H129.232V39H127.044V37.6641C126.112 38.71 124.996 39.2549 123.924 39.2549C123.326 39.2549 122.772 39.1055 122.271 38.7803C121.771 38.4375 121.41 38.0156 121.208 37.4795C121.023 36.9785 120.936 36.0293 120.936 34.6318V29.1826H123.124V34.8164C123.124 35.6602 123.159 36.2051 123.229 36.46C123.3 36.6533 123.432 36.8555 123.59 36.9873C123.757 37.1191 123.933 37.1807 124.126 37.1807C124.565 37.1807 125.066 36.9434 125.629 36.5039L125.62 36.5127C126.174 36.0557 126.648 35.458 127.044 34.7549V29.1826Z" fill="#98C379" style="fill:#98C379;fill:color(display-p3 0.5961 0.7647 0.4745);fill-opacity:1;"/>
<path d="M117.719 39H112.665V27.0557H109.923V25.1133H114.854V37.0664H117.719V39Z" fill="#98C379" style="fill:#98C379;fill:color(display-p3 0.5961 0.7647 0.4745);fill-opacity:1;"/>
<path d="M101.494 29.1826V30.5449C101.854 30.1582 102.276 29.7979 102.672 29.5605C103.357 29.1475 104.034 28.9277 104.632 28.9277C105.502 28.9277 106.267 29.2969 106.952 30.0264C107.611 30.7383 107.954 31.8105 107.954 33.2607C107.954 34.3506 107.726 35.3789 107.295 36.249C106.882 37.1016 106.284 37.8486 105.572 38.3496C104.843 38.877 103.946 39.123 102.856 39.123C102.566 39.123 102.101 39.1055 101.521 39.0439C101.521 39.0439 101.521 39.0352 101.494 39.0352V42.5596H99.3057V29.1826H101.494ZM101.494 33.4717V37.0488C101.916 37.1367 102.338 37.1807 102.681 37.1807C103.437 37.1807 104.219 36.75 104.764 36.2227C105.3 35.5635 105.625 34.5879 105.625 33.4717C105.625 32.6367 105.467 32.0039 105.177 31.6084C104.896 31.248 104.588 31.0547 104.271 31.0547C103.902 31.0547 103.366 31.3271 102.918 31.6963C102.408 32.1445 101.907 32.7422 101.494 33.4717Z" fill="#98C379" style="fill:#98C379;fill:color(display-p3 0.5961 0.7647 0.4745);fill-opacity:1;"/>
<path d="M96.335 34.3945H89.1807V32.4258H96.335V34.3945Z" fill="#98C379" style="fill:#98C379;fill:color(display-p3 0.5961 0.7647 0.4745);fill-opacity:1;"/>
<path d="M86.1045 36.3896V38.5166C85.2168 38.877 84.6104 39.1143 84.2764 39.1582C83.96 39.2197 83.626 39.2549 83.2832 39.2549C82.5977 39.2549 81.9736 39.1143 81.3936 38.8594C80.7959 38.5781 80.3389 38.1562 80.04 37.6289C79.7324 37.1016 79.5918 36.293 79.5918 35.2295V31.8809H77.3066V29.9473H79.5918V26.2559H81.7803V29.9473H85.8496V31.8809H81.7803V35.2031C81.7803 35.8799 81.8594 36.3545 82 36.6182L81.9912 36.6094C82.123 36.8291 82.3252 37.0137 82.5449 37.1367C82.791 37.2422 83.1074 37.3213 83.4414 37.3213C84.127 37.3213 85.0146 37.0049 86.1045 36.3896Z" fill="#98C379" style="fill:#98C379;fill:color(display-p3 0.5961 0.7647 0.4745);fill-opacity:1;"/>
<path d="M69.168 39H66.9795V29.1826H69.168V30.501C69.502 30.1143 69.8447 29.8242 70.2402 29.5693C70.8994 29.1387 71.5762 28.9277 72.2705 28.9277C72.8857 28.9277 73.4395 29.0859 73.9316 29.4111C74.4326 29.7451 74.8018 30.1846 74.9951 30.7031C75.1797 31.2041 75.2764 32.1621 75.2764 33.5508V39H73.0791V33.3662C73.0791 32.5312 73.0439 31.9863 72.9736 31.7314C72.9033 31.5205 72.7803 31.3271 72.6133 31.2041C72.4463 31.0635 72.2705 31.002 72.0859 31.002C71.6289 31.002 71.1191 31.2217 70.5742 31.6787C70.0205 32.1357 69.5635 32.7246 69.168 33.4277V39Z" fill="#98C379" style="fill:#98C379;fill:color(display-p3 0.5961 0.7647 0.4745);fill-opacity:1;"/>
<path d="M63.4639 39H58.7178V31.1162H56.1777V29.1826H60.9062V37.0664H63.4639V39ZM58.4629 26.2119C58.4629 25.7637 58.6475 25.4121 58.9551 25.1748C59.2363 24.9639 59.5439 24.8584 59.8076 24.8584C60.0977 24.8584 60.4053 24.9639 60.6865 25.1748C60.9941 25.4121 61.1699 25.7637 61.1699 26.2119C61.1699 26.6602 60.9941 27.0029 60.6865 27.2402C60.3965 27.46 60.0889 27.5654 59.8076 27.5654C59.5264 27.5654 59.2363 27.46 58.9551 27.2402C58.6475 27.0029 58.4629 26.6602 58.4629 26.2119Z" fill="#98C379" style="fill:#98C379;fill:color(display-p3 0.5961 0.7647 0.4745);fill-opacity:1;"/>
<path d="M52.8555 39H47.8018V27.0557H45.0596V25.1133H49.9902V37.0664H52.8555V39Z" fill="#98C379" style="fill:#98C379;fill:color(display-p3 0.5961 0.7647 0.4745);fill-opacity:1;"/>
<path d="M34.6621 38.4111V35.9414C35.6025 36.5742 36.3848 36.9434 37.0088 37.1016L37 37.0928C37.6592 37.2334 38.2041 37.3213 38.6699 37.3213C39.3467 37.3213 39.8564 37.207 40.1377 37.0137C40.375 36.8291 40.5068 36.5918 40.5068 36.3457C40.5068 36.1787 40.4541 36.0469 40.3574 35.9326V35.9414C40.2256 35.8096 39.8652 35.6162 39.2939 35.3877H39.3027L38.7842 35.1768L37.7207 34.7549C36.666 34.333 35.752 33.8232 35.4355 33.4277C35.1104 33.0059 34.917 32.4434 34.917 31.8457C34.917 31.002 35.2334 30.29 35.9014 29.7451C36.543 29.209 37.5625 28.9277 38.9424 28.9277C39.9355 28.9277 40.9727 29.0947 42.0625 29.4551V31.5557C40.7705 31.0898 39.7158 30.8613 38.8896 30.8613C38.3008 30.8613 37.8613 30.9668 37.5449 31.1602C37.2988 31.3096 37.167 31.5029 37.167 31.7227C37.167 31.9336 37.2725 32.0918 37.4834 32.2236C37.7646 32.3906 38.2744 32.6279 38.9424 32.8652L39.6631 33.1289H39.6543L39.9707 33.2432C40.9551 33.6035 41.6582 34.0078 42.0889 34.4561C42.5459 34.9307 42.7656 35.5107 42.7656 36.1963C42.7656 37.1104 42.4229 37.8311 41.7285 38.4023C41.0605 38.9648 40.0146 39.2549 38.5996 39.2549C37.3779 39.2549 36.0684 38.9736 34.6621 38.4111Z" fill="#98C379" style="fill:#98C379;fill:color(display-p3 0.5961 0.7647 0.4745);fill-opacity:1;"/>
<path d="M32.0166 36.0908V38.2793C30.6279 38.9385 29.3623 39.2637 28.2285 39.2637C26.4443 39.2637 25.0029 38.3496 24.1504 36.7061C23.7461 35.9062 23.5352 35.0273 23.5352 34.1133C23.5352 33.2344 23.7373 32.3818 24.124 31.5557C24.5195 30.7383 25.0908 30.0791 25.8027 29.6221C26.5146 29.1562 27.3057 28.9277 28.2109 28.9277C29.3887 28.9277 30.3467 29.3672 31.0674 30.2109C31.7617 31.0459 32.1484 32.3555 32.1484 34.0078V34.6758H25.8555C25.8906 35.124 26.0137 35.5459 26.1982 35.9326C26.4443 36.3896 26.752 36.7412 27.1211 36.9697H27.1123C27.499 37.1982 27.9297 37.3213 28.4219 37.3213C29.3271 37.3213 30.54 36.9082 32.0166 36.0908ZM29.8193 32.8652V32.9883V33.0322L29.9951 32.8652H29.8193ZM26.0137 32.8652H29.8193C29.8105 32.2676 29.6436 31.7666 29.3447 31.415C29.0547 31.0459 28.6504 30.8613 28.1406 30.8613C27.1562 30.8613 26.3828 31.5205 26.0137 32.8652Z" fill="#98C379" style="fill:#98C379;fill:color(display-p3 0.5961 0.7647 0.4745);fill-opacity:1;"/>
<path d="M146.292 0.849609L149.368 4.24219H147.039L143.471 0.849609H146.292Z" fill="#98C379" style="fill:#98C379;fill:color(display-p3 0.5961 0.7647 0.4745);fill-opacity:1;"/>
<path d="M136.826 8.78613H136.817C136.633 8.98828 136.439 9.15527 136.114 9.35742C136.396 9.54199 136.633 9.73535 136.817 9.91992C137.081 10.2188 137.283 10.5264 137.424 10.8252C137.547 11.1416 137.635 11.5283 137.635 11.9062C137.635 12.2666 137.582 12.7148 137.477 13.2158L137.266 14.165C137.16 14.666 137.099 15.0615 137.099 15.2549C137.099 15.501 137.187 15.6943 137.38 15.8613C137.582 16.0547 138.057 16.1426 138.786 16.1426H140.421V18.1113H138.769C137.187 18.1113 136.097 17.8037 135.569 17.25C135.121 16.7227 134.822 16.0371 134.822 15.3691C134.822 14.9912 134.866 14.6221 134.945 14.2441L135.112 13.5762L135.104 13.585L135.174 13.1895C135.2 13.0752 135.227 12.9697 135.244 12.8555L135.341 12.416C135.385 12.2051 135.402 12.0293 135.402 11.8711C135.402 11.4492 135.262 11.0977 134.963 10.7812C134.682 10.4824 134.146 10.333 133.381 10.333H132.291V8.35547H133.381C134.146 8.35547 134.682 8.20605 134.972 7.91602C135.262 7.62598 135.402 7.26562 135.402 6.7998C135.402 6.6416 135.385 6.46582 135.35 6.29883L135.358 6.30762L135.244 5.85938L135.112 5.12109C135.068 4.90137 134.998 4.67285 134.945 4.45312C134.866 4.06641 134.822 3.69727 134.822 3.31934C134.822 2.66016 135.121 1.97461 135.569 1.44727C136.097 0.893555 137.187 0.577148 138.769 0.577148H140.421V2.55469H138.786C138.065 2.55469 137.591 2.64258 137.389 2.83594C137.195 3.00293 137.099 3.21387 137.099 3.45117C137.099 3.63574 137.16 4.03125 137.266 4.53223L137.477 5.48145C137.573 5.97363 137.635 6.43066 137.635 6.79102C137.635 7.61719 137.38 8.19727 136.826 8.78613Z" fill="#E06C75" style="fill:#E06C75;fill:color(display-p3 0.8784 0.4235 0.4588);fill-opacity:1;"/>
<path d="M120.303 7.71387H130.05V9.69141H120.303V7.71387ZM120.303 10.6318H130.05V12.6006H120.303V10.6318Z" fill="#E06C75" style="fill:#E06C75;fill:color(display-p3 0.8784 0.4235 0.4588);fill-opacity:1;"/>
<path d="M110.336 14.4111V11.9414C111.276 12.5742 112.059 12.9434 112.683 13.1016L112.674 13.0928C113.333 13.2334 113.878 13.3213 114.344 13.3213C115.021 13.3213 115.53 13.207 115.812 13.0137C116.049 12.8291 116.181 12.5918 116.181 12.3457C116.181 12.1787 116.128 12.0469 116.031 11.9326V11.9414C115.899 11.8096 115.539 11.6162 114.968 11.3877H114.977L114.458 11.1768L113.395 10.7549C112.34 10.333 111.426 9.82324 111.109 9.42773C110.784 9.00586 110.591 8.44336 110.591 7.8457C110.591 7.00195 110.907 6.29004 111.575 5.74512C112.217 5.20898 113.236 4.92773 114.616 4.92773C115.609 4.92773 116.646 5.09473 117.736 5.45508V7.55566C116.444 7.08984 115.39 6.86133 114.563 6.86133C113.975 6.86133 113.535 6.9668 113.219 7.16016C112.973 7.30957 112.841 7.50293 112.841 7.72266C112.841 7.93359 112.946 8.0918 113.157 8.22363C113.438 8.39062 113.948 8.62793 114.616 8.86523L115.337 9.12891H115.328L115.645 9.24316C116.629 9.60352 117.332 10.0078 117.763 10.4561C118.22 10.9307 118.439 11.5107 118.439 12.1963C118.439 13.1104 118.097 13.8311 117.402 14.4023C116.734 14.9648 115.688 15.2549 114.273 15.2549C113.052 15.2549 111.742 14.9736 110.336 14.4111Z" fill="#D19A66" style="fill:#D19A66;fill:color(display-p3 0.8196 0.6039 0.4000);fill-opacity:1;"/>
<path d="M99.5254 14.4111V11.9414C100.466 12.5742 101.248 12.9434 101.872 13.1016L101.863 13.0928C102.522 13.2334 103.067 13.3213 103.533 13.3213C104.21 13.3213 104.72 13.207 105.001 13.0137C105.238 12.8291 105.37 12.5918 105.37 12.3457C105.37 12.1787 105.317 12.0469 105.221 11.9326V11.9414C105.089 11.8096 104.729 11.6162 104.157 11.3877H104.166L103.647 11.1768L102.584 10.7549C101.529 10.333 100.615 9.82324 100.299 9.42773C99.9736 9.00586 99.7803 8.44336 99.7803 7.8457C99.7803 7.00195 100.097 6.29004 100.765 5.74512C101.406 5.20898 102.426 4.92773 103.806 4.92773C104.799 4.92773 105.836 5.09473 106.926 5.45508V7.55566C105.634 7.08984 104.579 6.86133 103.753 6.86133C103.164 6.86133 102.725 6.9668 102.408 7.16016C102.162 7.30957 102.03 7.50293 102.03 7.72266C102.03 7.93359 102.136 8.0918 102.347 8.22363C102.628 8.39062 103.138 8.62793 103.806 8.86523L104.526 9.12891H104.518L104.834 9.24316C105.818 9.60352 106.521 10.0078 106.952 10.4561C107.409 10.9307 107.629 11.5107 107.629 12.1963C107.629 13.1104 107.286 13.8311 106.592 14.4023C105.924 14.9648 104.878 15.2549 103.463 15.2549C102.241 15.2549 100.932 14.9736 99.5254 14.4111Z" fill="#D19A66" style="fill:#D19A66;fill:color(display-p3 0.8196 0.6039 0.4000);fill-opacity:1;"/>
<path d="M95.1133 15L94.9463 14.877C94.8408 14.4463 94.7617 13.998 94.7002 13.5059C94.3223 13.9541 93.8828 14.3496 93.4434 14.6221C92.7402 15.0352 92.0635 15.2549 91.4834 15.2549C90.6133 15.2549 89.8398 14.8857 89.1631 14.1562C88.4951 13.4355 88.1699 12.3633 88.1699 10.9219C88.1699 9.81445 88.3896 8.8125 88.8027 7.94238C89.2246 7.07227 89.8311 6.35156 90.5254 5.8418C91.2549 5.32324 92.1865 5.05957 93.2412 5.05957C93.5488 5.05957 94.0234 5.07715 94.5859 5.13867C94.6562 5.13867 94.7002 5.14746 94.7617 5.15625L94.9463 5.18262H96.8184V11.9766C96.8184 13.0312 96.9766 14.0332 97.293 15H95.1133ZM94.6211 10.7109V7.13379C94.1992 7.0459 93.7949 7.00195 93.4434 7.00195C92.6436 7.00195 91.8877 7.38867 91.3428 7.97754V7.96875C90.7979 8.62793 90.4902 9.57715 90.4902 10.7109C90.4902 11.5635 90.6484 12.1787 90.9297 12.583V12.5742C91.2109 12.9434 91.5098 13.1279 91.835 13.1279C92.2217 13.1279 92.6963 12.917 93.1973 12.4863C93.707 12.0381 94.1992 11.4404 94.6211 10.7109Z" fill="#D19A66" style="fill:#D19A66;fill:color(display-p3 0.8196 0.6039 0.4000);fill-opacity:1;"/>
<path d="M85.2871 15H80.2334V3.05566H77.4912V1.11328H82.4219V13.0664H85.2871V15Z" fill="#D19A66" style="fill:#D19A66;fill:color(display-p3 0.8196 0.6039 0.4000);fill-opacity:1;"/>
<path d="M75.3466 12.4688V14.6309C74.1337 15.0527 73.0527 15.2549 72.1034 15.2549C69.1855 15.2725 67.0234 13.0312 67.0585 10.0957C67.0585 8.62793 67.5419 7.38867 68.5087 6.4043C69.4755 5.41992 70.6533 4.92773 72.0243 4.92773C72.9824 4.92773 74.0986 5.13867 75.3466 5.56055V7.77539C74.0195 7.17773 72.956 6.86133 72.1562 6.86133C71.6728 6.86133 71.1982 6.99316 70.7499 7.25684C70.3193 7.49414 69.9853 7.87207 69.748 8.38184C69.4931 8.90918 69.3876 9.48047 69.3876 10.0342C69.3876 10.8164 69.6161 11.5371 70.082 12.2139C70.5302 12.8643 71.2597 13.1807 72.2529 13.1807C72.5429 13.1807 72.8769 13.1631 73.1845 13.1191C73.4833 13.0752 74.2304 12.8467 75.3466 12.4688Z" fill="#D19A66" style="fill:#D19A66;fill:color(display-p3 0.8196 0.6039 0.4000);fill-opacity:1;"/>
<path d="M49.4629 15.2549C48.0479 15.2549 46.9229 14.7539 46.0615 13.7695C45.2354 12.7852 44.8047 11.5635 44.8047 10.0869C44.8047 8.61035 45.2354 7.37988 46.0615 6.41309C46.9229 5.41992 48.0566 4.92773 49.4629 4.92773C50.8691 4.92773 51.9941 5.42871 52.8555 6.41309C53.6816 7.37109 54.1123 8.61035 54.1123 10.0869C54.1123 11.5635 53.6816 12.7939 52.8555 13.7695C51.9941 14.7539 50.8691 15.2549 49.4629 15.2549ZM49.4629 13.3213C50.166 13.3213 50.7197 13.0488 51.1416 12.4951C51.5723 11.9238 51.792 11.1152 51.792 10.0869C51.792 9.06738 51.5723 8.25879 51.1416 7.6875C50.7197 7.13379 50.166 6.86133 49.4629 6.86133C48.7598 6.86133 48.1973 7.13379 47.7754 7.6875C47.3447 8.25879 47.125 9.06738 47.125 10.0869C47.125 11.1152 47.3447 11.9238 47.7754 12.4951C48.1973 13.0488 48.7598 13.3213 49.4629 13.3213Z" fill="#56B6C2" style="fill:#56B6C2;fill:color(display-p3 0.3373 0.7137 0.7608);fill-opacity:1;"/>
<path d="M40.6562 13.9014V13.6113C40.3135 13.9805 39.8477 14.3848 39.4785 14.6221C38.793 15.0352 38.1074 15.2549 37.5186 15.2549C36.6484 15.2549 35.8838 14.8857 35.1982 14.1562C34.5303 13.4268 34.2051 12.3545 34.2051 10.9219C34.2051 9.83203 34.4336 8.80371 34.8555 7.94238C35.2598 7.09863 35.8838 6.34277 36.5693 5.8418C37.2988 5.32324 38.2305 5.05957 39.2852 5.05957C39.584 5.05957 40.0586 5.07715 40.6299 5.13867L40.8232 5.16504H40.8145C40.8848 5.17383 40.9551 5.18262 40.999 5.18262H42.8535V11.9854C42.8535 13.4707 42.8271 14.4551 42.7832 14.8418C42.7568 15.1582 42.6777 15.5537 42.5723 15.9316C42.3262 16.793 41.7637 17.5576 40.9287 18.0586C40.0938 18.5596 39.0918 18.8057 37.9404 18.8057C36.7715 18.8057 35.5322 18.4893 34.2402 17.8389V15.457C34.9697 15.9404 35.6816 16.3271 36.2793 16.5469C36.8857 16.749 37.4658 16.8721 38.002 16.8721C38.8281 16.8721 39.6104 16.5996 40.0762 16.125C40.2959 15.8877 40.4541 15.6152 40.5244 15.2988C40.6035 14.9473 40.6562 14.4902 40.6562 13.9014ZM40.6562 10.7109V7.13379C40.2344 7.0459 39.8389 7.00195 39.4873 7.00195C38.6875 7.00195 37.9404 7.38867 37.3779 7.97754V7.96875C36.8418 8.62793 36.5342 9.56836 36.5342 10.7109C36.5342 11.5459 36.6924 12.1699 36.9736 12.5742C37.2461 12.9346 37.5537 13.1279 37.8701 13.1279C38.2744 13.1279 38.7227 12.917 39.2324 12.4863C39.7773 12.0381 40.2432 11.4404 40.6562 10.7109Z" fill="#56B6C2" style="fill:#56B6C2;fill:color(display-p3 0.3373 0.7137 0.7608);fill-opacity:1;"/>
<path d="M27.8418 15.2549C26.4268 15.2549 25.3018 14.7539 24.4404 13.7695C23.6143 12.7852 23.1836 11.5635 23.1836 10.0869C23.1836 8.61035 23.6143 7.37988 24.4404 6.41309C25.3018 5.41992 26.4355 4.92773 27.8418 4.92773C29.248 4.92773 30.373 5.42871 31.2344 6.41309C32.0605 7.37109 32.4912 8.61035 32.4912 10.0869C32.4912 11.5635 32.0605 12.7939 31.2344 13.7695C30.373 14.7539 29.248 15.2549 27.8418 15.2549ZM27.8418 13.3213C28.5449 13.3213 29.0986 13.0488 29.5205 12.4951C29.9512 11.9238 30.1709 11.1152 30.1709 10.0869C30.1709 9.06738 29.9512 8.25879 29.5205 7.6875C29.0986 7.13379 28.5449 6.86133 27.8418 6.86133C27.1387 6.86133 26.5762 7.13379 26.1543 7.6875C25.7236 8.25879 25.5039 9.06738 25.5039 10.0869C25.5039 11.1152 25.7236 11.9238 26.1543 12.4951C26.5762 13.0488 27.1387 13.3213 27.8418 13.3213Z" fill="#56B6C2" style="fill:#56B6C2;fill:color(display-p3 0.3373 0.7137 0.7608);fill-opacity:1;"/>
<path d="M15.8008 12.8906H21.1182V15H13.4365V1.35938H15.8008V12.8906Z" fill="#56B6C2" style="fill:#56B6C2;fill:color(display-p3 0.3373 0.7137 0.7608);fill-opacity:1;"/>
<path d="M11.1338 15.2197L0.964844 10.1221L11.1338 5.05078V7.25684L5.36816 10.1133L7.61816 11.2559L11.1338 13.0312V15.2197Z" fill="#56B6C2" style="fill:#56B6C2;fill:color(display-p3 0.3373 0.7137 0.7608);fill-opacity:1;"/>
</svg>
