<svg width="65" height="65" viewBox="0 0 65 65" fill="none" xmlns="http://www.w3.org/2000/svg">
<path d="M4.11998 32.7931L4 33L4.02289 33.0395C4.05496 32.957 4.08732 32.8748 4.11998 32.7931Z" fill="black" style="fill:black;fill-opacity:1;"/>
<path d="M7.53488 26.9054C11.1047 22.6011 16.2307 20.4489 22.9141 20.4489C32.9138 20.4489 37.4915 25.2655 41.4477 29.4321C43.8749 31.9872 46.0697 34.2965 49.1404 35.0916C53.5798 36.2432 57.5615 35.02 61.0847 31.4218L47.5 8L18.5 8L7.53488 26.9054Z" fill="black" style="fill:black;fill-opacity:1;"/>
<path d="M61.9776 32.9614C61.9464 33.042 61.9148 33.1221 61.8829 33.2018L62 33L61.9776 32.9614Z" fill="black" style="fill:black;fill-opacity:1;"/>
<path d="M58.4626 39.099C54.893 43.4003 49.7678 45.5511 43.0875 45.5511C33.0878 45.5511 28.5085 40.7329 24.5523 36.5695C22.1251 34.0128 19.9303 31.7035 16.8611 30.9084C12.4218 29.7582 8.44017 30.9816 4.9162 34.5797L18.5 58L47.5 58L58.4626 39.099Z" fill="black" style="fill:black;fill-opacity:1;"/>
</svg>
