<svg width="239" height="157" viewBox="0 0 239 157" fill="none" xmlns="http://www.w3.org/2000/svg">
<rect width="239" height="157" fill="#0E1116" style="fill:#0E1116;fill:color(display-p3 0.0549 0.0667 0.0863);fill-opacity:1;"/>
<path d="M61.6729 107.474L71.8418 112.545L61.6729 117.643V115.419L67.4561 112.554L65.3643 111.499L61.6729 109.645V107.474Z" fill="#56B6C2" style="fill:#56B6C2;fill:color(display-p3 0.3373 0.7137 0.7608);fill-opacity:1;"/>
<path d="M61.1895 103.396L52.5938 117.818H50.2822L58.9307 103.396H61.1895Z" fill="#56B6C2" style="fill:#56B6C2;fill:color(display-p3 0.3373 0.7137 0.7608);fill-opacity:1;"/>
<path d="M33.2666 112.352C33.4424 112.158 33.6885 111.965 33.9873 111.771C33.249 111.297 32.8975 110.787 32.6865 110.304C32.5547 109.996 32.4756 109.601 32.4756 109.214C32.4756 108.854 32.5195 108.396 32.6338 107.904L32.8447 106.955C32.9414 106.454 33.0117 106.059 33.0117 105.865C33.0117 105.637 32.9062 105.435 32.7129 105.259H32.7217C32.5195 105.065 32.0537 104.978 31.3154 104.978H29.6895V103H31.333C32.959 103 34.0225 103.29 34.541 103.87C35.0244 104.415 35.2881 105.048 35.2881 105.742C35.2881 106.085 35.2529 106.463 35.1387 106.885L35.1475 106.876L35.0068 107.535L34.9277 107.922C34.9102 108.045 34.875 108.15 34.8574 108.265L34.7607 108.713C34.7168 108.915 34.6992 109.091 34.6992 109.249C34.6992 109.68 34.8486 110.031 35.1299 110.33C35.4111 110.629 35.9385 110.778 36.7295 110.778H37.8105V112.756H36.7295C35.9473 112.756 35.4287 112.905 35.1299 113.204C34.8486 113.503 34.6992 113.854 34.6992 114.32C34.6992 114.47 34.7168 114.637 34.752 114.821L34.7432 114.812L34.8486 115.27L34.998 115.999C35.042 116.219 35.1035 116.447 35.1475 116.658L35.1387 116.649C35.2529 117.08 35.2881 117.458 35.2881 117.801C35.2881 118.486 34.998 119.154 34.5322 119.682C34.0049 120.235 32.9326 120.534 31.333 120.534H29.6895V118.565H31.3154C32.0537 118.565 32.5195 118.478 32.7217 118.284H32.7129C32.9062 118.108 33.0117 117.906 33.0117 117.669C33.0117 117.484 32.9414 117.089 32.8447 116.588L32.6338 115.639C32.5283 115.146 32.4756 114.689 32.4756 114.329C32.4756 113.512 32.7393 112.932 33.2666 112.352Z" fill="#E06C75" style="fill:#E06C75;fill:color(display-p3 0.8784 0.4235 0.4588);fill-opacity:1;"/>
<path d="M22.79 103.272L25.8662 106.665H23.5371L19.9688 103.272H22.79Z" fill="#98C379" style="fill:#98C379;fill:color(display-p3 0.5961 0.7647 0.4745);fill-opacity:1;"/>
<path d="M219.85 93.4229V92.0342C219.507 92.4033 219.041 92.8076 218.672 93.0449C217.986 93.458 217.301 93.6777 216.712 93.6777C215.842 93.6777 215.077 93.3086 214.392 92.5791C213.724 91.8496 213.398 90.7773 213.398 89.3447C213.398 88.2549 213.627 87.2266 214.049 86.3652C214.453 85.5215 215.077 84.7656 215.763 84.2646C216.492 83.7461 217.424 83.4824 218.479 83.4824C218.777 83.4824 219.243 83.5 219.814 83.5615C219.814 83.5615 219.823 83.5703 219.85 83.5703V79.5361H222.047V93.4229H219.85ZM219.85 89.1338V85.5566C219.428 85.4688 219.032 85.4248 218.681 85.4248C217.881 85.4248 217.134 85.8115 216.571 86.4004V86.3916C216.035 87.0508 215.728 87.9912 215.728 89.1338C215.728 89.9688 215.886 90.5928 216.167 90.9971C216.439 91.3574 216.747 91.5508 217.063 91.5508C217.468 91.5508 217.916 91.3398 218.426 90.9092C218.971 90.4609 219.437 89.8633 219.85 89.1338Z" fill="#98C379" style="fill:#98C379;fill:color(display-p3 0.5961 0.7647 0.4745);fill-opacity:1;"/>
<path d="M205.119 93.4229H202.931V83.6055H205.119V84.9238C205.453 84.5371 205.796 84.2471 206.191 83.9922C206.851 83.5615 207.527 83.3506 208.222 83.3506C208.837 83.3506 209.391 83.5088 209.883 83.834C210.384 84.168 210.753 84.6074 210.946 85.126C211.131 85.627 211.228 86.585 211.228 87.9736V93.4229H209.03V87.7891C209.03 86.9541 208.995 86.4092 208.925 86.1543C208.854 85.9434 208.731 85.75 208.564 85.627C208.397 85.4863 208.222 85.4248 208.037 85.4248C207.58 85.4248 207.07 85.6445 206.525 86.1016C205.972 86.5586 205.515 87.1475 205.119 87.8506V93.4229Z" fill="#98C379" style="fill:#98C379;fill:color(display-p3 0.5961 0.7647 0.4745);fill-opacity:1;"/>
<path d="M199.415 93.4229H194.669V85.5391H192.129V83.6055H196.857V91.4893H199.415V93.4229ZM194.414 80.6348C194.414 80.1865 194.599 79.835 194.906 79.5977C195.188 79.3867 195.495 79.2812 195.759 79.2812C196.049 79.2812 196.356 79.3867 196.638 79.5977C196.945 79.835 197.121 80.1865 197.121 80.6348C197.121 81.083 196.945 81.4258 196.638 81.6631C196.348 81.8828 196.04 81.9883 195.759 81.9883C195.478 81.9883 195.188 81.8828 194.906 81.6631C194.599 81.4258 194.414 81.083 194.414 80.6348Z" fill="#98C379" style="fill:#98C379;fill:color(display-p3 0.5961 0.7647 0.4745);fill-opacity:1;"/>
<path d="M183.762 93.4229H181.74L180.141 83.6055H182.232L183.076 88.9492L184.482 83.6055H186.354L187.954 89.0283L188.815 83.6055H190.67L189.079 93.4229H187.119L185.317 87.4111L183.762 93.4229Z" fill="#98C379" style="fill:#98C379;fill:color(display-p3 0.5961 0.7647 0.4745);fill-opacity:1;"/>
<path d="M177.996 93.4229H172.942V81.4785H170.2V79.5361H175.131V91.4893H177.996V93.4229Z" fill="#98C379" style="fill:#98C379;fill:color(display-p3 0.5961 0.7647 0.4745);fill-opacity:1;"/>
<path d="M166.983 93.4229H162.237V85.5391H159.697V83.6055H164.426V91.4893H166.983V93.4229ZM161.982 80.6348C161.982 80.1865 162.167 79.835 162.475 79.5977C162.756 79.3867 163.063 79.2812 163.327 79.2812C163.617 79.2812 163.925 79.3867 164.206 79.5977C164.514 79.835 164.689 80.1865 164.689 80.6348C164.689 81.083 164.514 81.4258 164.206 81.6631C163.916 81.8828 163.608 81.9883 163.327 81.9883C163.046 81.9883 162.756 81.8828 162.475 81.6631C162.167 81.4258 161.982 81.083 161.982 80.6348Z" fill="#98C379" style="fill:#98C379;fill:color(display-p3 0.5961 0.7647 0.4745);fill-opacity:1;"/>
<path d="M155.391 93.4229L155.224 93.2998C155.118 92.8691 155.039 92.4209 154.978 91.9287C154.6 92.377 154.16 92.7725 153.721 93.0449C153.018 93.458 152.341 93.6777 151.761 93.6777C150.891 93.6777 150.117 93.3086 149.44 92.5791C148.772 91.8584 148.447 90.7861 148.447 89.3447C148.447 88.2373 148.667 87.2354 149.08 86.3652C149.502 85.4951 150.108 84.7744 150.803 84.2646C151.532 83.7461 152.464 83.4824 153.519 83.4824C153.826 83.4824 154.301 83.5 154.863 83.5615C154.934 83.5615 154.978 83.5703 155.039 83.5791L155.224 83.6055H157.096V90.3994C157.096 91.4541 157.254 92.4561 157.57 93.4229H155.391ZM154.898 89.1338V85.5566C154.477 85.4688 154.072 85.4248 153.721 85.4248C152.921 85.4248 152.165 85.8115 151.62 86.4004V86.3916C151.075 87.0508 150.768 88 150.768 89.1338C150.768 89.9863 150.926 90.6016 151.207 91.0059V90.9971C151.488 91.3662 151.787 91.5508 152.112 91.5508C152.499 91.5508 152.974 91.3398 153.475 90.9092C153.984 90.4609 154.477 89.8633 154.898 89.1338Z" fill="#98C379" style="fill:#98C379;fill:color(display-p3 0.5961 0.7647 0.4745);fill-opacity:1;"/>
<path d="M146.382 90.8125V92.9395C145.494 93.2998 144.888 93.5371 144.554 93.5811C144.237 93.6426 143.903 93.6777 143.561 93.6777C142.875 93.6777 142.251 93.5371 141.671 93.2822C141.073 93.001 140.616 92.5791 140.317 92.0518C140.01 91.5244 139.869 90.7158 139.869 89.6523V86.3037H137.584V84.3701H139.869V80.6787H142.058V84.3701H146.127V86.3037H142.058V89.626C142.058 90.3027 142.137 90.7773 142.277 91.041L142.269 91.0322C142.4 91.252 142.603 91.4365 142.822 91.5596C143.068 91.665 143.385 91.7441 143.719 91.7441C144.404 91.7441 145.292 91.4277 146.382 90.8125Z" fill="#98C379" style="fill:#98C379;fill:color(display-p3 0.5961 0.7647 0.4745);fill-opacity:1;"/>
<path d="M124.726 90.5137V92.7021C123.337 93.3613 122.071 93.6865 120.938 93.6865C119.153 93.6865 117.712 92.7725 116.859 91.1289C116.455 90.3291 116.244 89.4502 116.244 88.5361C116.244 87.6572 116.446 86.8047 116.833 85.9785C117.229 85.1611 117.8 84.502 118.512 84.0449C119.224 83.5791 120.015 83.3506 120.92 83.3506C122.098 83.3506 123.056 83.79 123.776 84.6338C124.471 85.4688 124.857 86.7783 124.857 88.4307V89.0986H118.564C118.6 89.5469 118.723 89.9688 118.907 90.3555C119.153 90.8125 119.461 91.1641 119.83 91.3926H119.821C120.208 91.6211 120.639 91.7441 121.131 91.7441C122.036 91.7441 123.249 91.3311 124.726 90.5137ZM122.528 87.2881V87.4111V87.4551L122.704 87.2881H122.528ZM118.723 87.2881H122.528C122.52 86.6904 122.353 86.1895 122.054 85.8379C121.764 85.4688 121.359 85.2842 120.85 85.2842C119.865 85.2842 119.092 85.9434 118.723 87.2881Z" fill="#98C379" style="fill:#98C379;fill:color(display-p3 0.5961 0.7647 0.4745);fill-opacity:1;"/>
<path d="M113.133 93.4229H108.079V81.4785H105.337V79.5361H110.268V91.4893H113.133V93.4229Z" fill="#98C379" style="fill:#98C379;fill:color(display-p3 0.5961 0.7647 0.4745);fill-opacity:1;"/>
<path d="M96.9082 79.5361V84.9678C97.2686 84.5811 97.6904 84.2207 98.0859 83.9834C98.7715 83.5703 99.4482 83.3506 100.046 83.3506C100.916 83.3506 101.681 83.7197 102.366 84.4492C103.025 85.1611 103.368 86.2334 103.368 87.6836C103.368 88.7734 103.14 89.8018 102.709 90.6719C102.296 91.5244 101.698 92.2715 100.986 92.7725C100.257 93.2998 99.3604 93.5459 98.2705 93.5459C97.9717 93.5459 97.5146 93.5283 96.9258 93.4668L96.7324 93.4404C96.6709 93.4316 96.6094 93.4229 96.5742 93.4229H94.7197V79.5361H96.9082ZM96.9082 87.8945V91.4717C97.3301 91.5596 97.752 91.6035 98.0947 91.6035C98.8506 91.6035 99.6328 91.1729 100.178 90.6455C100.714 89.9863 101.039 89.0107 101.039 87.8945C101.039 87.0596 100.881 86.4268 100.591 86.0312C100.31 85.6709 100.002 85.4775 99.6855 85.4775C99.3164 85.4775 98.7803 85.75 98.332 86.1191C97.8223 86.5674 97.3213 87.165 96.9082 87.8945Z" fill="#98C379" style="fill:#98C379;fill:color(display-p3 0.5961 0.7647 0.4745);fill-opacity:1;"/>
<path d="M90.5273 93.4229L90.3604 93.2998C90.2549 92.8691 90.1758 92.4209 90.1143 91.9287C89.7363 92.377 89.2969 92.7725 88.8574 93.0449C88.1543 93.458 87.4775 93.6777 86.8975 93.6777C86.0273 93.6777 85.2539 93.3086 84.5771 92.5791C83.9092 91.8584 83.584 90.7861 83.584 89.3447C83.584 88.2373 83.8037 87.2354 84.2168 86.3652C84.6387 85.4951 85.2451 84.7744 85.9395 84.2646C86.6689 83.7461 87.6006 83.4824 88.6553 83.4824C88.9629 83.4824 89.4375 83.5 90 83.5615C90.0703 83.5615 90.1143 83.5703 90.1758 83.5791L90.3604 83.6055H92.2324V90.3994C92.2324 91.4541 92.3906 92.4561 92.707 93.4229H90.5273ZM90.0352 89.1338V85.5566C89.6133 85.4688 89.209 85.4248 88.8574 85.4248C88.0576 85.4248 87.3018 85.8115 86.7568 86.4004V86.3916C86.2119 87.0508 85.9043 88 85.9043 89.1338C85.9043 89.9863 86.0625 90.6016 86.3438 91.0059V90.9971C86.625 91.3662 86.9238 91.5508 87.249 91.5508C87.6357 91.5508 88.1104 91.3398 88.6113 90.9092C89.1211 90.4609 89.6133 89.8633 90.0352 89.1338Z" fill="#98C379" style="fill:#98C379;fill:color(display-p3 0.5961 0.7647 0.4745);fill-opacity:1;"/>
<path d="M79.3125 93.4229V92.0342C78.9697 92.4033 78.5039 92.8076 78.1348 93.0449C77.4492 93.458 76.7637 93.6777 76.1748 93.6777C75.3047 93.6777 74.54 93.3086 73.8545 92.5791C73.1865 91.8496 72.8613 90.7773 72.8613 89.3447C72.8613 88.2549 73.0898 87.2266 73.5117 86.3652C73.916 85.5215 74.54 84.7656 75.2256 84.2646C75.9551 83.7461 76.8867 83.4824 77.9414 83.4824C78.2402 83.4824 78.7061 83.5 79.2773 83.5615C79.2773 83.5615 79.2861 83.5703 79.3125 83.5703V79.5361H81.5098V93.4229H79.3125ZM79.3125 89.1338V85.5566C78.8906 85.4688 78.4951 85.4248 78.1436 85.4248C77.3438 85.4248 76.5967 85.8115 76.0342 86.4004V86.3916C75.498 87.0508 75.1904 87.9912 75.1904 89.1338C75.1904 89.9688 75.3486 90.5928 75.6299 90.9971C75.9023 91.3574 76.21 91.5508 76.5264 91.5508C76.9307 91.5508 77.3789 91.3398 77.8887 90.9092C78.4336 90.4609 78.8994 89.8633 79.3125 89.1338Z" fill="#98C379" style="fill:#98C379;fill:color(display-p3 0.5961 0.7647 0.4745);fill-opacity:1;"/>
<path d="M68.9062 93.4229L68.7393 93.2998C68.6338 92.8691 68.5547 92.4209 68.4932 91.9287C68.1152 92.377 67.6758 92.7725 67.2363 93.0449C66.5332 93.458 65.8564 93.6777 65.2764 93.6777C64.4062 93.6777 63.6328 93.3086 62.9561 92.5791C62.2881 91.8584 61.9629 90.7861 61.9629 89.3447C61.9629 88.2373 62.1826 87.2354 62.5957 86.3652C63.0176 85.4951 63.624 84.7744 64.3184 84.2646C65.0479 83.7461 65.9795 83.4824 67.0342 83.4824C67.3418 83.4824 67.8164 83.5 68.3789 83.5615C68.4492 83.5615 68.4932 83.5703 68.5547 83.5791L68.7393 83.6055H70.6113V90.3994C70.6113 91.4541 70.7695 92.4561 71.0859 93.4229H68.9062ZM68.4141 89.1338V85.5566C67.9922 85.4688 67.5879 85.4248 67.2363 85.4248C66.4365 85.4248 65.6807 85.8115 65.1357 86.4004V86.3916C64.5908 87.0508 64.2832 88 64.2832 89.1338C64.2832 89.9863 64.4414 90.6016 64.7227 91.0059V90.9971C65.0039 91.3662 65.3027 91.5508 65.6279 91.5508C66.0146 91.5508 66.4893 91.3398 66.9902 90.9092C67.5 90.4609 67.9922 89.8633 68.4141 89.1338Z" fill="#98C379" style="fill:#98C379;fill:color(display-p3 0.5961 0.7647 0.4745);fill-opacity:1;"/>
<path d="M59.8623 90.5137V92.7021C58.4736 93.3613 57.208 93.6865 56.0742 93.6865C54.29 93.6865 52.8486 92.7725 51.9961 91.1289C51.5918 90.3291 51.3809 89.4502 51.3809 88.5361C51.3809 87.6572 51.583 86.8047 51.9697 85.9785C52.3652 85.1611 52.9365 84.502 53.6484 84.0449C54.3604 83.5791 55.1514 83.3506 56.0566 83.3506C57.2344 83.3506 58.1924 83.79 58.9131 84.6338C59.6074 85.4688 59.9941 86.7783 59.9941 88.4307V89.0986H53.7012C53.7363 89.5469 53.8594 89.9688 54.0439 90.3555C54.29 90.8125 54.5977 91.1641 54.9668 91.3926H54.958C55.3447 91.6211 55.7754 91.7441 56.2676 91.7441C57.1729 91.7441 58.3857 91.3311 59.8623 90.5137ZM57.665 87.2881V87.4111V87.4551L57.8408 87.2881H57.665ZM53.8594 87.2881H57.665C57.6562 86.6904 57.4893 86.1895 57.1904 85.8379C56.9004 85.4688 56.4961 85.2842 55.9863 85.2842C55.002 85.2842 54.2285 85.9434 53.8594 87.2881Z" fill="#98C379" style="fill:#98C379;fill:color(display-p3 0.5961 0.7647 0.4745);fill-opacity:1;"/>
<path d="M43.7607 93.4229H41.5723V83.6055H43.7607V84.9414C44.666 83.957 45.8525 83.3506 47.1094 83.3506C47.7158 83.3506 48.3662 83.4736 49.0957 83.6934V87.5781H46.9688V85.4424C46.8545 85.4248 46.749 85.4248 46.6963 85.4248C45.6855 85.4248 44.7188 86.2422 43.7607 87.8594V93.4229Z" fill="#98C379" style="fill:#98C379;fill:color(display-p3 0.5961 0.7647 0.4745);fill-opacity:1;"/>
<path d="M172.688 69.4229H170.499V59.6055H172.688V60.9238C173.021 60.5371 173.364 60.2471 173.76 59.9922C174.419 59.5615 175.096 59.3506 175.79 59.3506C176.405 59.3506 176.959 59.5088 177.451 59.834C177.952 60.168 178.321 60.6074 178.515 61.126C178.699 61.627 178.796 62.585 178.796 63.9736V69.4229H176.599V63.7891C176.599 62.9541 176.563 62.4092 176.493 62.1543C176.423 61.9434 176.3 61.75 176.133 61.627C175.966 61.4863 175.79 61.4248 175.605 61.4248C175.148 61.4248 174.639 61.6445 174.094 62.1016C173.54 62.5586 173.083 63.1475 172.688 63.8506V69.4229Z" fill="#98C379" style="fill:#98C379;fill:color(display-p3 0.5961 0.7647 0.4745);fill-opacity:1;"/>
<path d="M166.983 69.4229H162.237V61.5391H159.697V59.6055H164.426V67.4893H166.983V69.4229ZM161.982 56.6348C161.982 56.1865 162.167 55.835 162.475 55.5977C162.756 55.3867 163.063 55.2812 163.327 55.2812C163.617 55.2812 163.925 55.3867 164.206 55.5977C164.514 55.835 164.689 56.1865 164.689 56.6348C164.689 57.083 164.514 57.4258 164.206 57.6631C163.916 57.8828 163.608 57.9883 163.327 57.9883C163.046 57.9883 162.756 57.8828 162.475 57.6631C162.167 57.4258 161.982 57.083 161.982 56.6348Z" fill="#98C379" style="fill:#98C379;fill:color(display-p3 0.5961 0.7647 0.4745);fill-opacity:1;"/>
<path d="M154.986 68.3242V68.0342C154.644 68.4033 154.178 68.8076 153.809 69.0449C153.123 69.458 152.438 69.6777 151.849 69.6777C150.979 69.6777 150.214 69.3086 149.528 68.5791C148.86 67.8496 148.535 66.7773 148.535 65.3447C148.535 64.2549 148.764 63.2266 149.186 62.3652C149.59 61.5215 150.214 60.7656 150.899 60.2646C151.629 59.7461 152.561 59.4824 153.615 59.4824C153.914 59.4824 154.389 59.5 154.96 59.5615L155.153 59.5879H155.145C155.215 59.5967 155.285 59.6055 155.329 59.6055H157.184V66.4082C157.184 67.8936 157.157 68.8779 157.113 69.2646C157.087 69.5811 157.008 69.9766 156.902 70.3545C156.656 71.2158 156.094 71.9805 155.259 72.4814C154.424 72.9824 153.422 73.2285 152.271 73.2285C151.102 73.2285 149.862 72.9121 148.57 72.2617V69.8799C149.3 70.3633 150.012 70.75 150.609 70.9697C151.216 71.1719 151.796 71.2949 152.332 71.2949C153.158 71.2949 153.94 71.0225 154.406 70.5479C154.626 70.3105 154.784 70.0381 154.854 69.7217C154.934 69.3701 154.986 68.9131 154.986 68.3242ZM154.986 65.1338V61.5566C154.564 61.4688 154.169 61.4248 153.817 61.4248C153.018 61.4248 152.271 61.8115 151.708 62.4004V62.3916C151.172 63.0508 150.864 63.9912 150.864 65.1338C150.864 65.9688 151.022 66.5928 151.304 66.9971C151.576 67.3574 151.884 67.5508 152.2 67.5508C152.604 67.5508 153.053 67.3398 153.562 66.9092C154.107 66.4609 154.573 65.8633 154.986 65.1338Z" fill="#98C379" style="fill:#98C379;fill:color(display-p3 0.5961 0.7647 0.4745);fill-opacity:1;"/>
<path d="M144.079 59.6055H146.268V69.4229H144.079V68.0869C143.147 69.1328 142.031 69.6777 140.959 69.6777C140.361 69.6777 139.808 69.5283 139.307 69.2031C138.806 68.8604 138.445 68.4385 138.243 67.9023C138.059 67.4014 137.971 66.4521 137.971 65.0547V59.6055H140.159V65.2393C140.159 66.083 140.194 66.6279 140.265 66.8828C140.335 67.0762 140.467 67.2783 140.625 67.4102C140.792 67.542 140.968 67.6035 141.161 67.6035C141.601 67.6035 142.102 67.3662 142.664 66.9268L142.655 66.9355C143.209 66.4785 143.684 65.8809 144.079 65.1777V59.6055Z" fill="#98C379" style="fill:#98C379;fill:color(display-p3 0.5961 0.7647 0.4745);fill-opacity:1;"/>
<path d="M134.754 69.4229H129.7V57.4785H126.958V55.5361H131.889V67.4893H134.754V69.4229Z" fill="#98C379" style="fill:#98C379;fill:color(display-p3 0.5961 0.7647 0.4745);fill-opacity:1;"/>
<path d="M118.529 59.6055V60.9678C118.89 60.5811 119.312 60.2207 119.707 59.9834C120.393 59.5703 121.069 59.3506 121.667 59.3506C122.537 59.3506 123.302 59.7197 123.987 60.4492C124.646 61.1611 124.989 62.2334 124.989 63.6836C124.989 64.7734 124.761 65.8018 124.33 66.6719C123.917 67.5244 123.319 68.2715 122.607 68.7725C121.878 69.2998 120.981 69.5459 119.892 69.5459C119.602 69.5459 119.136 69.5283 118.556 69.4668C118.556 69.4668 118.556 69.458 118.529 69.458V72.9824H116.341V59.6055H118.529ZM118.529 63.8945V67.4717C118.951 67.5596 119.373 67.6035 119.716 67.6035C120.472 67.6035 121.254 67.1729 121.799 66.6455C122.335 65.9863 122.66 65.0107 122.66 63.8945C122.66 63.0596 122.502 62.4268 122.212 62.0312C121.931 61.6709 121.623 61.4775 121.307 61.4775C120.938 61.4775 120.401 61.75 119.953 62.1191C119.443 62.5674 118.942 63.165 118.529 63.8945Z" fill="#98C379" style="fill:#98C379;fill:color(display-p3 0.5961 0.7647 0.4745);fill-opacity:1;"/>
<path d="M113.37 64.8174H106.216V62.8486H113.37V64.8174Z" fill="#98C379" style="fill:#98C379;fill:color(display-p3 0.5961 0.7647 0.4745);fill-opacity:1;"/>
<path d="M103.14 66.8125V68.9395C102.252 69.2998 101.646 69.5371 101.312 69.5811C100.995 69.6426 100.661 69.6777 100.318 69.6777C99.6328 69.6777 99.0088 69.5371 98.4287 69.2822C97.8311 69.001 97.374 68.5791 97.0752 68.0518C96.7676 67.5244 96.627 66.7158 96.627 65.6523V62.3037H94.3418V60.3701H96.627V56.6787H98.8154V60.3701H102.885V62.3037H98.8154V65.626C98.8154 66.3027 98.8945 66.7773 99.0352 67.041L99.0264 67.0322C99.1582 67.252 99.3604 67.4365 99.5801 67.5596C99.8262 67.665 100.143 67.7441 100.477 67.7441C101.162 67.7441 102.05 67.4277 103.14 66.8125Z" fill="#98C379" style="fill:#98C379;fill:color(display-p3 0.5961 0.7647 0.4745);fill-opacity:1;"/>
<path d="M86.2031 69.4229H84.0146V59.6055H86.2031V60.9238C86.5371 60.5371 86.8799 60.2471 87.2754 59.9922C87.9346 59.5615 88.6113 59.3506 89.3057 59.3506C89.9209 59.3506 90.4746 59.5088 90.9668 59.834C91.4678 60.168 91.8369 60.6074 92.0303 61.126C92.2148 61.627 92.3115 62.585 92.3115 63.9736V69.4229H90.1143V63.7891C90.1143 62.9541 90.0791 62.4092 90.0088 62.1543C89.9385 61.9434 89.8154 61.75 89.6484 61.627C89.4814 61.4863 89.3057 61.4248 89.1211 61.4248C88.6641 61.4248 88.1543 61.6445 87.6094 62.1016C87.0557 62.5586 86.5986 63.1475 86.2031 63.8506V69.4229Z" fill="#98C379" style="fill:#98C379;fill:color(display-p3 0.5961 0.7647 0.4745);fill-opacity:1;"/>
<path d="M80.499 69.4229H75.7529V61.5391H73.2129V59.6055H77.9414V67.4893H80.499V69.4229ZM75.498 56.6348C75.498 56.1865 75.6826 55.835 75.9902 55.5977C76.2715 55.3867 76.5791 55.2812 76.8428 55.2812C77.1328 55.2812 77.4404 55.3867 77.7217 55.5977C78.0293 55.835 78.2051 56.1865 78.2051 56.6348C78.2051 57.083 78.0293 57.4258 77.7217 57.6631C77.4316 57.8828 77.124 57.9883 76.8428 57.9883C76.5615 57.9883 76.2715 57.8828 75.9902 57.6631C75.6826 57.4258 75.498 57.083 75.498 56.6348Z" fill="#98C379" style="fill:#98C379;fill:color(display-p3 0.5961 0.7647 0.4745);fill-opacity:1;"/>
<path d="M69.8906 69.4229H64.8369V57.4785H62.0947V55.5361H67.0254V67.4893H69.8906V69.4229Z" fill="#98C379" style="fill:#98C379;fill:color(display-p3 0.5961 0.7647 0.4745);fill-opacity:1;"/>
<path d="M51.6973 68.834V66.3643C52.6377 66.9971 53.4199 67.3662 54.0439 67.5244L54.0352 67.5156C54.6943 67.6562 55.2393 67.7441 55.7051 67.7441C56.3818 67.7441 56.8916 67.6299 57.1729 67.4365C57.4102 67.252 57.542 67.0146 57.542 66.7686C57.542 66.6016 57.4893 66.4697 57.3926 66.3555V66.3643C57.2607 66.2324 56.9004 66.0391 56.3291 65.8105H56.3379L55.8193 65.5996L54.7559 65.1777C53.7012 64.7559 52.7871 64.2461 52.4707 63.8506C52.1455 63.4287 51.9521 62.8662 51.9521 62.2686C51.9521 61.4248 52.2686 60.7129 52.9365 60.168C53.5781 59.6318 54.5977 59.3506 55.9775 59.3506C56.9707 59.3506 58.0078 59.5176 59.0977 59.8779V61.9785C57.8057 61.5127 56.751 61.2842 55.9248 61.2842C55.3359 61.2842 54.8965 61.3896 54.5801 61.583C54.334 61.7324 54.2021 61.9258 54.2021 62.1455C54.2021 62.3564 54.3076 62.5146 54.5186 62.6465C54.7998 62.8135 55.3096 63.0508 55.9775 63.2881L56.6982 63.5518H56.6895L57.0059 63.666C57.9902 64.0264 58.6934 64.4307 59.124 64.8789C59.5811 65.3535 59.8008 65.9336 59.8008 66.6191C59.8008 67.5332 59.458 68.2539 58.7637 68.8252C58.0957 69.3877 57.0498 69.6777 55.6348 69.6777C54.4131 69.6777 53.1035 69.3965 51.6973 68.834Z" fill="#98C379" style="fill:#98C379;fill:color(display-p3 0.5961 0.7647 0.4745);fill-opacity:1;"/>
<path d="M49.0518 66.5137V68.7021C47.6631 69.3613 46.3975 69.6865 45.2637 69.6865C43.4795 69.6865 42.0381 68.7725 41.1855 67.1289C40.7812 66.3291 40.5703 65.4502 40.5703 64.5361C40.5703 63.6572 40.7725 62.8047 41.1592 61.9785C41.5547 61.1611 42.126 60.502 42.8379 60.0449C43.5498 59.5791 44.3408 59.3506 45.2461 59.3506C46.4238 59.3506 47.3818 59.79 48.1025 60.6338C48.7969 61.4688 49.1836 62.7783 49.1836 64.4307V65.0986H42.8906C42.9258 65.5469 43.0488 65.9688 43.2334 66.3555C43.4795 66.8125 43.7871 67.1641 44.1562 67.3926H44.1475C44.5342 67.6211 44.9648 67.7441 45.457 67.7441C46.3623 67.7441 47.5752 67.3311 49.0518 66.5137ZM46.8545 63.2881V63.4111V63.4551L47.0303 63.2881H46.8545ZM43.0488 63.2881H46.8545C46.8457 62.6904 46.6787 62.1895 46.3799 61.8379C46.0898 61.4688 45.6855 61.2842 45.1758 61.2842C44.1914 61.2842 43.418 61.9434 43.0488 63.2881Z" fill="#98C379" style="fill:#98C379;fill:color(display-p3 0.5961 0.7647 0.4745);fill-opacity:1;"/>
<path d="M163.327 31.2725L166.403 34.665H164.074L160.506 31.2725H163.327Z" fill="#98C379" style="fill:#98C379;fill:color(display-p3 0.5961 0.7647 0.4745);fill-opacity:1;"/>
<path d="M153.861 39.209H153.853C153.668 39.4111 153.475 39.5781 153.149 39.7803C153.431 39.9648 153.668 40.1582 153.853 40.3428C154.116 40.6416 154.318 40.9492 154.459 41.248C154.582 41.5645 154.67 41.9512 154.67 42.3291C154.67 42.6895 154.617 43.1377 154.512 43.6387L154.301 44.5879C154.195 45.0889 154.134 45.4844 154.134 45.6777C154.134 45.9238 154.222 46.1172 154.415 46.2842C154.617 46.4775 155.092 46.5654 155.821 46.5654H157.456V48.5342H155.804C154.222 48.5342 153.132 48.2266 152.604 47.6729C152.156 47.1455 151.857 46.46 151.857 45.792C151.857 45.4141 151.901 45.0449 151.98 44.667L152.147 43.999L152.139 44.0078L152.209 43.6123C152.235 43.498 152.262 43.3926 152.279 43.2783L152.376 42.8389C152.42 42.6279 152.438 42.4521 152.438 42.2939C152.438 41.8721 152.297 41.5205 151.998 41.2041C151.717 40.9053 151.181 40.7559 150.416 40.7559H149.326V38.7783H150.416C151.181 38.7783 151.717 38.6289 152.007 38.3389C152.297 38.0488 152.438 37.6885 152.438 37.2227C152.438 37.0645 152.42 36.8887 152.385 36.7217L152.394 36.7305L152.279 36.2822L152.147 35.5439C152.104 35.3242 152.033 35.0957 151.98 34.876C151.901 34.4893 151.857 34.1201 151.857 33.7422C151.857 33.083 152.156 32.3975 152.604 31.8701C153.132 31.3164 154.222 31 155.804 31H157.456V32.9775H155.821C155.101 32.9775 154.626 33.0654 154.424 33.2588C154.23 33.4258 154.134 33.6367 154.134 33.874C154.134 34.0586 154.195 34.4541 154.301 34.9551L154.512 35.9043C154.608 36.3965 154.67 36.8535 154.67 37.2139C154.67 38.04 154.415 38.6201 153.861 39.209Z" fill="#E06C75" style="fill:#E06C75;fill:color(display-p3 0.8784 0.4235 0.4588);fill-opacity:1;"/>
<path d="M137.338 38.1367H147.085V40.1143H137.338V38.1367ZM137.338 41.0547H147.085V43.0234H137.338V41.0547Z" fill="#E06C75" style="fill:#E06C75;fill:color(display-p3 0.8784 0.4235 0.4588);fill-opacity:1;"/>
<path d="M127.371 44.834V42.3643C128.312 42.9971 129.094 43.3662 129.718 43.5244L129.709 43.5156C130.368 43.6562 130.913 43.7441 131.379 43.7441C132.056 43.7441 132.565 43.6299 132.847 43.4365C133.084 43.252 133.216 43.0146 133.216 42.7686C133.216 42.6016 133.163 42.4697 133.066 42.3555V42.3643C132.935 42.2324 132.574 42.0391 132.003 41.8105H132.012L131.493 41.5996L130.43 41.1777C129.375 40.7559 128.461 40.2461 128.145 39.8506C127.819 39.4287 127.626 38.8662 127.626 38.2686C127.626 37.4248 127.942 36.7129 128.61 36.168C129.252 35.6318 130.271 35.3506 131.651 35.3506C132.645 35.3506 133.682 35.5176 134.771 35.8779V37.9785C133.479 37.5127 132.425 37.2842 131.599 37.2842C131.01 37.2842 130.57 37.3896 130.254 37.583C130.008 37.7324 129.876 37.9258 129.876 38.1455C129.876 38.3564 129.981 38.5146 130.192 38.6465C130.474 38.8135 130.983 39.0508 131.651 39.2881L132.372 39.5518H132.363L132.68 39.666C133.664 40.0264 134.367 40.4307 134.798 40.8789C135.255 41.3535 135.475 41.9336 135.475 42.6191C135.475 43.5332 135.132 44.2539 134.438 44.8252C133.77 45.3877 132.724 45.6777 131.309 45.6777C130.087 45.6777 128.777 45.3965 127.371 44.834Z" fill="#D19A66" style="fill:#D19A66;fill:color(display-p3 0.8196 0.6039 0.4000);fill-opacity:1;"/>
<path d="M116.561 44.834V42.3643C117.501 42.9971 118.283 43.3662 118.907 43.5244L118.898 43.5156C119.558 43.6562 120.103 43.7441 120.568 43.7441C121.245 43.7441 121.755 43.6299 122.036 43.4365C122.273 43.252 122.405 43.0146 122.405 42.7686C122.405 42.6016 122.353 42.4697 122.256 42.3555V42.3643C122.124 42.2324 121.764 42.0391 121.192 41.8105H121.201L120.683 41.5996L119.619 41.1777C118.564 40.7559 117.65 40.2461 117.334 39.8506C117.009 39.4287 116.815 38.8662 116.815 38.2686C116.815 37.4248 117.132 36.7129 117.8 36.168C118.441 35.6318 119.461 35.3506 120.841 35.3506C121.834 35.3506 122.871 35.5176 123.961 35.8779V37.9785C122.669 37.5127 121.614 37.2842 120.788 37.2842C120.199 37.2842 119.76 37.3896 119.443 37.583C119.197 37.7324 119.065 37.9258 119.065 38.1455C119.065 38.3564 119.171 38.5146 119.382 38.6465C119.663 38.8135 120.173 39.0508 120.841 39.2881L121.562 39.5518H121.553L121.869 39.666C122.854 40.0264 123.557 40.4307 123.987 40.8789C124.444 41.3535 124.664 41.9336 124.664 42.6191C124.664 43.5332 124.321 44.2539 123.627 44.8252C122.959 45.3877 121.913 45.6777 120.498 45.6777C119.276 45.6777 117.967 45.3965 116.561 44.834Z" fill="#D19A66" style="fill:#D19A66;fill:color(display-p3 0.8196 0.6039 0.4000);fill-opacity:1;"/>
<path d="M112.148 45.4229L111.981 45.2998C111.876 44.8691 111.797 44.4209 111.735 43.9287C111.357 44.377 110.918 44.7725 110.479 45.0449C109.775 45.458 109.099 45.6777 108.519 45.6777C107.648 45.6777 106.875 45.3086 106.198 44.5791C105.53 43.8584 105.205 42.7861 105.205 41.3447C105.205 40.2373 105.425 39.2354 105.838 38.3652C106.26 37.4951 106.866 36.7744 107.561 36.2646C108.29 35.7461 109.222 35.4824 110.276 35.4824C110.584 35.4824 111.059 35.5 111.621 35.5615C111.691 35.5615 111.735 35.5703 111.797 35.5791L111.981 35.6055H113.854V42.3994C113.854 43.4541 114.012 44.4561 114.328 45.4229H112.148ZM111.656 41.1338V37.5566C111.234 37.4688 110.83 37.4248 110.479 37.4248C109.679 37.4248 108.923 37.8115 108.378 38.4004V38.3916C107.833 39.0508 107.525 40 107.525 41.1338C107.525 41.9863 107.684 42.6016 107.965 43.0059V42.9971C108.246 43.3662 108.545 43.5508 108.87 43.5508C109.257 43.5508 109.731 43.3398 110.232 42.9092C110.742 42.4609 111.234 41.8633 111.656 41.1338Z" fill="#D19A66" style="fill:#D19A66;fill:color(display-p3 0.8196 0.6039 0.4000);fill-opacity:1;"/>
<path d="M102.322 45.4229H97.2686V33.4785H94.5264V31.5361H99.457V43.4893H102.322V45.4229Z" fill="#D19A66" style="fill:#D19A66;fill:color(display-p3 0.8196 0.6039 0.4000);fill-opacity:1;"/>
<path d="M92.3818 42.8916V45.0537C91.1689 45.4756 90.0879 45.6777 89.1387 45.6777C86.2207 45.6953 84.0586 43.4541 84.0937 40.5186C84.0937 39.0508 84.5771 37.8115 85.5439 36.8271C86.5107 35.8428 87.6885 35.3506 89.0596 35.3506C90.0176 35.3506 91.1338 35.5615 92.3818 35.9834V38.1982C91.0547 37.6006 89.9912 37.2842 89.1914 37.2842C88.708 37.2842 88.2334 37.416 87.7852 37.6797C87.3545 37.917 87.0205 38.2949 86.7832 38.8047C86.5283 39.332 86.4228 39.9033 86.4228 40.457C86.4228 41.2393 86.6514 41.96 87.1172 42.6367C87.5654 43.2871 88.2949 43.6035 89.2881 43.6035C89.5781 43.6035 89.9121 43.5859 90.2197 43.542C90.5185 43.498 91.2656 43.2695 92.3818 42.8916Z" fill="#D19A66" style="fill:#D19A66;fill:color(display-p3 0.8196 0.6039 0.4000);fill-opacity:1;"/>
<path d="M66.498 45.6777C65.083 45.6777 63.958 45.1768 63.0967 44.1924C62.2705 43.208 61.8398 41.9863 61.8398 40.5098C61.8398 39.0332 62.2705 37.8027 63.0967 36.8359C63.958 35.8428 65.0918 35.3506 66.498 35.3506C67.9043 35.3506 69.0293 35.8516 69.8906 36.8359C70.7168 37.7939 71.1475 39.0332 71.1475 40.5098C71.1475 41.9863 70.7168 43.2168 69.8906 44.1924C69.0293 45.1768 67.9043 45.6777 66.498 45.6777ZM66.498 43.7441C67.2012 43.7441 67.7549 43.4717 68.1768 42.918C68.6074 42.3467 68.8271 41.5381 68.8271 40.5098C68.8271 39.4902 68.6074 38.6816 68.1768 38.1104C67.7549 37.5566 67.2012 37.2842 66.498 37.2842C65.7949 37.2842 65.2324 37.5566 64.8105 38.1104C64.3799 38.6816 64.1602 39.4902 64.1602 40.5098C64.1602 41.5381 64.3799 42.3467 64.8105 42.918C65.2324 43.4717 65.7949 43.7441 66.498 43.7441Z" fill="#56B6C2" style="fill:#56B6C2;fill:color(display-p3 0.3373 0.7137 0.7608);fill-opacity:1;"/>
<path d="M57.6914 44.3242V44.0342C57.3486 44.4033 56.8828 44.8076 56.5137 45.0449C55.8281 45.458 55.1426 45.6777 54.5537 45.6777C53.6836 45.6777 52.9189 45.3086 52.2334 44.5791C51.5654 43.8496 51.2402 42.7773 51.2402 41.3447C51.2402 40.2549 51.4688 39.2266 51.8906 38.3652C52.2949 37.5215 52.9189 36.7656 53.6045 36.2646C54.334 35.7461 55.2656 35.4824 56.3203 35.4824C56.6191 35.4824 57.0938 35.5 57.665 35.5615L57.8584 35.5879H57.8496C57.9199 35.5967 57.9902 35.6055 58.0342 35.6055H59.8887V42.4082C59.8887 43.8936 59.8623 44.8779 59.8184 45.2646C59.792 45.5811 59.7129 45.9766 59.6074 46.3545C59.3613 47.2158 58.7988 47.9805 57.9639 48.4814C57.1289 48.9824 56.127 49.2285 54.9756 49.2285C53.8066 49.2285 52.5674 48.9121 51.2754 48.2617V45.8799C52.0049 46.3633 52.7168 46.75 53.3145 46.9697C53.9209 47.1719 54.501 47.2949 55.0371 47.2949C55.8633 47.2949 56.6455 47.0225 57.1113 46.5479C57.3311 46.3105 57.4893 46.0381 57.5596 45.7217C57.6387 45.3701 57.6914 44.9131 57.6914 44.3242ZM57.6914 41.1338V37.5566C57.2695 37.4688 56.874 37.4248 56.5225 37.4248C55.7227 37.4248 54.9756 37.8115 54.4131 38.4004V38.3916C53.877 39.0508 53.5693 39.9912 53.5693 41.1338C53.5693 41.9688 53.7275 42.5928 54.0088 42.9971C54.2812 43.3574 54.5889 43.5508 54.9053 43.5508C55.3096 43.5508 55.7578 43.3398 56.2676 42.9092C56.8125 42.4609 57.2783 41.8633 57.6914 41.1338Z" fill="#56B6C2" style="fill:#56B6C2;fill:color(display-p3 0.3373 0.7137 0.7608);fill-opacity:1;"/>
<path d="M44.877 45.6777C43.4619 45.6777 42.3369 45.1768 41.4756 44.1924C40.6494 43.208 40.2188 41.9863 40.2188 40.5098C40.2188 39.0332 40.6494 37.8027 41.4756 36.8359C42.3369 35.8428 43.4707 35.3506 44.877 35.3506C46.2832 35.3506 47.4082 35.8516 48.2695 36.8359C49.0957 37.7939 49.5264 39.0332 49.5264 40.5098C49.5264 41.9863 49.0957 43.2168 48.2695 44.1924C47.4082 45.1768 46.2832 45.6777 44.877 45.6777ZM44.877 43.7441C45.5801 43.7441 46.1338 43.4717 46.5557 42.918C46.9863 42.3467 47.2061 41.5381 47.2061 40.5098C47.2061 39.4902 46.9863 38.6816 46.5557 38.1104C46.1338 37.5566 45.5801 37.2842 44.877 37.2842C44.1738 37.2842 43.6113 37.5566 43.1895 38.1104C42.7588 38.6816 42.5391 39.4902 42.5391 40.5098C42.5391 41.5381 42.7588 42.3467 43.1895 42.918C43.6113 43.4717 44.1738 43.7441 44.877 43.7441Z" fill="#56B6C2" style="fill:#56B6C2;fill:color(display-p3 0.3373 0.7137 0.7608);fill-opacity:1;"/>
<path d="M32.8359 43.3135H38.1533V45.4229H30.4717V31.7822H32.8359V43.3135Z" fill="#56B6C2" style="fill:#56B6C2;fill:color(display-p3 0.3373 0.7137 0.7608);fill-opacity:1;"/>
<path d="M28.1689 45.6426L18 40.5449L28.1689 35.4736V37.6797L22.4033 40.5361L24.6533 41.6787L28.1689 43.4541V45.6426Z" fill="#56B6C2" style="fill:#56B6C2;fill:color(display-p3 0.3373 0.7137 0.7608);fill-opacity:1;"/>
</svg>
