<svg width="92" height="92" viewBox="0 0 92 92" fill="none" xmlns="http://www.w3.org/2000/svg">
<path d="M14.1324 45.4835L14 45.7128L14.0253 45.7566C14.0606 45.6651 14.0964 45.5741 14.1324 45.4835Z" fill="black" style="fill:black;fill-opacity:1;"/>
<path d="M17.9006 38.9568C21.8396 34.1855 27.4959 31.7998 34.8707 31.7998C45.9049 31.7998 50.9561 37.139 55.3216 41.7578C57.9999 44.5901 60.4217 47.15 63.8101 48.0313C68.7088 49.3079 73.1024 47.952 76.99 43.9634L62 18L30 18L17.9006 38.9568Z" fill="black" style="fill:black;fill-opacity:1;"/>
<path d="M77.9753 45.6701C77.9408 45.7593 77.906 45.8481 77.8708 45.9365L78 45.7128L77.9753 45.6701Z" fill="black" style="fill:black;fill-opacity:1;"/>
<path d="M74.0966 52.4736C70.1578 57.2416 64.5024 59.6258 57.131 59.6258C46.0968 59.6258 41.0439 54.2848 36.6783 49.6697C34.0001 46.8355 31.5783 44.2756 28.1916 43.3943C23.293 42.1192 18.8995 43.4754 15.011 47.4639L30 73.4256L62 73.4256L74.0966 52.4736Z" fill="black" style="fill:black;fill-opacity:1;"/>
</svg>
